<svg xmlns="http://www.w3.org/2000/svg" viewBox="0 0 600 600">
    <path d="M190.506 126.09v468.624a6.619 6.619 0 006.62 6.62H526.75a6.619 6.619 0 006.62-6.62V126.09a6.619 6.619 0 00-6.62-6.619H197.125a6.619 6.619 0 00-6.619 6.62zM361.94 448.654a88.253 88.253 0 1188.253-88.253 88.253 88.253 0 01-88.253 88.253z"
          fill="#1d1d1b"/>
    <path d="M93.207 31.438a6.619 6.619 0 016.62-6.62h309.768V6.287a6.619 6.619 0 00-6.619-6.62H73.35a6.619 6.619 0 00-6.619 6.62V474.91a6.619 6.619 0 006.62 6.619h19.856z"
          fill="#1d1d1b"/>
    <path d="M134.245 71.152a6.619 6.619 0 016.619-6.62h309.769V46a6.619 6.619 0 00-6.619-6.62H114.388a6.619 6.619 0 00-6.619 6.62v468.625a6.619 6.619 0 006.619 6.619h19.857z"
          fill="#1d1d1b"/>
    <path d="M175.945 111.528a6.619 6.619 0 016.619-6.62H491.67V85.715a6.619 6.619 0 00-6.62-6.62H155.427a6.619 6.619 0 00-6.62 6.62v468.624a6.619 6.619 0 006.62 6.62h20.519z"
          fill="#1d1d1b"/>
</svg>