<svg xmlns="http://www.w3.org/2000/svg" viewBox="0 0 600 600">
    <path d="M424.468 408.913a10.533 10.533 0 00-10.532 10.532v88.996a69.24 69.24 0 01-69.162 69.161H166.08a69.24 69.24 0 01-69.16-69.16V91.72a69.239 69.239 0 0169.16-69.16h178.695a69.24 69.24 0 0169.162 69.16v89.7a10.532 10.532 0 0021.064 0v-89.7a90.327 90.327 0 00-90.226-90.224H166.08A90.327 90.327 0 0075.855 91.72v416.721a90.327 90.327 0 0090.224 90.226h178.695A90.327 90.327 0 00435 508.44v-88.996a10.533 10.533 0 00-10.532-10.532z"/>
    <path d="M544.915 292.634l-84.498-84.499a10.532 10.532 0 00-14.895 14.895l66.519 66.52H251.565a10.532 10.532 0 000 21.063h260.476l-66.52 66.518a10.532 10.532 0 0014.896 14.895l84.498-84.497a10.533 10.533 0 000-14.895z"/>
</svg>