<svg id="a318a776-4b1e-43b8-a898-d22fe209312b" xmlns="http://www.w3.org/2000/svg" viewBox="0 0 600 600">
    <title>level_up</title>
    <path d="M485.51628,205.40878,307.68114,3.47026a10.23592,10.23592,0,0,0-15.36228,0L114.48372,205.40878a10.23538,10.23538,0,0,0,7.68114,16.99946h89.1592V408.019a10.235,10.235,0,0,0,10.23486,10.23485H378.49356A10.235,10.235,0,0,0,388.72841,408.019V222.40824h89.10673a10.23538,10.23538,0,0,0,7.68114-16.99946Zm-107.02272-3.47026a10.235,10.235,0,0,0-10.23486,10.23486V397.78411H231.79377V212.17338a10.235,10.235,0,0,0-10.23485-10.23486H144.816L300,25.72107,455.184,201.93852Z"
          style="fill:#fff"/>
    <path d="M378.49356,429.48418H221.55892A10.235,10.235,0,0,0,211.32406,439.719V522.9812a10.235,10.235,0,0,0,10.23486,10.23485H378.49356a10.235,10.235,0,0,0,10.23485-10.23485V439.719A10.235,10.235,0,0,0,378.49356,429.48418ZM368.2587,512.74634H231.79377V449.95389H368.2587Z"
          style="fill:#fff"/>
</svg>