<svg id="addbcfc5-54d2-4354-925f-b8b838f5b725" data-name="Calque 1" xmlns="http://www.w3.org/2000/svg" viewBox="0 0 600 600"><title>level_up copie</title><path d="M508.05583,230.36523,308.61442,3.8916a11.48012,11.48012,0,0,0-17.22876,0L91.944,230.36523a11.47909,11.47909,0,0,0,8.6145,19.065h99.9917V457.5918a11.47869,11.47869,0,0,0,11.47827,11.47851H388.03019a11.47874,11.47874,0,0,0,11.47852-11.47851V249.43018h99.93286a11.47893,11.47893,0,0,0,8.61426-19.065Z" style="fill:#1d1d1b"/><path d="M211.99943,481.665H388.00065a11.47852,11.47852,0,0,1,11.47852,11.47852v93.37817A11.47827,11.47827,0,0,1,388.0009,598H211.99919a11.47827,11.47827,0,0,1-11.47827-11.47827V493.14355A11.47852,11.47852,0,0,1,211.99943,481.665Z" style="fill:#1d1d1b"/></svg>