<svg id="f155f488-e9aa-4c37-b70b-f478c338f074" data-name="Calque 1" xmlns="http://www.w3.org/2000/svg" viewBox="0 0 600 600"><title>exit copie</title><path d="M551.91545,250.63363l-84.49866-84.49854a10.53237,10.53237,0,0,0-14.895,14.895l66.51892,66.519H368.56523a10.53211,10.53211,0,1,0,0,21.06421H519.04069l-66.51892,66.51782a10.53237,10.53237,0,1,0,14.895,14.895l84.49866-84.49731a10.53331,10.53331,0,0,0,0-14.89526Z" style="fill:#1d1d1b"/><path d="M387.81681,345.2762a8.43993,8.43993,0,0,0-8.43969,8.43946v71.3164a55.50434,55.50434,0,0,1-35.70557,51.78467l.67895-239.44531c.10669-37.66528-26.386-83.55274-59.16479-102.47754L169.08708,67.86434c-12.91162-7.45435-24.863-9.595-34.62671-7.17554a55.40663,55.40663,0,0,1,46.29956-25.0122H323.95549a55.48406,55.48406,0,0,1,55.42163,55.42065V162.9764a8.43976,8.43976,0,1,0,16.87951,0V91.09725A72.38251,72.38251,0,0,0,323.95549,18.797H180.75993a72.38225,72.38225,0,0,0-72.30029,72.30029V425.03206a72.01907,72.01907,0,0,0,18.76074,48.53809c10.5896,17.61182,24.86279,32.90967,40.59741,41.99463l116.09863,67.0293c32.77881,18.9248,59.44483,3.73632,59.55152-33.9292l.15332-54.07227a72.41451,72.41451,0,0,0,52.63537-69.56055v-71.3164A8.44,8.44,0,0,0,387.81681,345.2762Z" style="fill:#1d1d1b"/></svg>