<svg xmlns="http://www.w3.org/2000/svg" viewBox="0 0 600 600"><path d="M551.915 250.634l-84.498-84.499a10.532 10.532 0 00-14.895 14.895l66.519 66.52H368.565a10.532 10.532 0 100 21.063h150.476l-66.52 66.518a10.532 10.532 0 1014.896 14.895l84.498-84.497a10.533 10.533 0 000-14.895z" fill="#fff"/><path d="M387.817 345.276a8.44 8.44 0 00-8.44 8.44v71.316a55.504 55.504 0 01-35.705 51.785l.678-239.446c.107-37.665-26.386-83.552-59.164-102.477l-116.099-67.03c-12.912-7.454-24.863-9.595-34.627-7.175a55.407 55.407 0 0146.3-25.012h143.195a55.484 55.484 0 0155.422 55.42v71.88a8.44 8.44 0 1016.88 0v-71.88a72.383 72.383 0 00-72.302-72.3H180.76a72.382 72.382 0 00-72.3 72.3v333.935a72.02 72.02 0 0018.76 48.538c10.59 17.612 24.863 32.91 40.598 41.995l116.098 67.03c32.78 18.924 59.445 3.735 59.552-33.93l.153-54.072a72.415 72.415 0 0052.636-69.56v-71.317a8.44 8.44 0 00-8.44-8.44z" fill="#fff"/></svg>