<svg id="eb635af7-f95c-4856-bff4-9da7a36f9507" data-name="Calque 1" xmlns="http://www.w3.org/2000/svg" viewBox="0 0 600 600"><title>notification copie</title><path d="M506.18864,413.76986l-7.14453-8.08789a56.13421,56.13421,0,0,1-14.07227-37.188V232.13436c0-90.28784-66.00635-165.43677-152.29516-179.7605a34.494,34.494,0,1,0-59.87818,0c-86.28808,14.324-152.29394,89.47266-152.29394,179.7605V368.494a56.13043,56.13043,0,0,1-14.07349,37.188l-7.14355,8.08789A76.42156,76.42156,0,0,0,156.56437,540.785h63.19751a88.314,88.314,0,0,0,165.99243,0H448.912a76.42217,76.42217,0,0,0,57.27661-127.01513Z" style="fill:#1d1d1b"/></svg>