<svg id="b8a8cb4d-2382-4991-973b-46124de008a9" data-name="Calque 1" xmlns="http://www.w3.org/2000/svg" viewBox="0 0 600 600"><title>reputation</title><polygon points="146.077 302.391 191.385 398.248 292.725 408.938 212.78 479.063 236.71 581.333 146.077 526.173 55.443 581.333 79.373 479.063 -0.572 408.938 95.424 398.248 146.077 302.391" style="fill:#1d1d1b"/><polygon points="453.923 302.391 499.232 398.248 600.572 408.938 520.627 479.063 544.557 581.333 453.923 526.173 363.29 581.333 387.22 479.063 307.275 408.938 403.271 398.248 453.923 302.391" style="fill:#1d1d1b"/><polygon points="300 18.667 345.308 114.524 446.649 125.213 366.704 195.338 390.634 297.609 300 242.449 209.366 297.609 233.296 195.338 153.351 125.213 249.347 114.524 300 18.667" style="fill:#1d1d1b"/></svg>