<svg xmlns="http://www.w3.org/2000/svg" viewBox="0 0 600 600">
    <path fill="#fff"
          d="M146.077 302.391l45.308 95.857 101.34 10.69-79.945 70.125 23.93 102.27-90.633-55.16-90.634 55.16 23.93-102.27-79.945-70.125 95.996-10.69 50.653-95.857zM453.923 302.391l45.309 95.857 101.34 10.69-79.945 70.125 23.93 102.27-90.634-55.16-90.633 55.16 23.93-102.27-79.945-70.125 95.996-10.69 50.652-95.857zM300 18.667l45.308 95.857 101.341 10.689-79.945 70.125 23.93 102.271L300 242.449l-90.634 55.16 23.93-102.271-79.945-70.125 95.996-10.689L300 18.667z"/>
</svg>