<svg xmlns="http://www.w3.org/2000/svg" viewBox="0 0 600 600"><path d="M527.265 26.692v-.025H157.71a71.794 71.794 0 00-71.713 71.712v338.987H1.659v75.803a71.794 71.794 0 0071.712 71.712h328.817v-.016a71.787 71.787 0 0071.049-71.696V174.18H600v-73.758a73.83 73.83 0 00-72.735-73.73zM72.35 562.34a51.018 51.018 0 01-50.96-50.96v-55.051h299.392v53.006a73.616 73.616 0 0022.494 53.005zm327.395-183.243H160.41a10.376 10.376 0 110-20.751h239.336a10.376 10.376 0 010 20.751zm0-72.63H160.41a10.376 10.376 0 110-20.753h239.336a10.376 10.376 0 010 20.752zm0-72.632H160.41a10.376 10.376 0 110-20.752h239.336a10.376 10.376 0 010 20.752zm0-72.63H160.41a10.376 10.376 0 110-20.753h239.336a10.376 10.376 0 010 20.752zm179.927-7.643H473.66v-53.006a53.006 53.006 0 01106.012 0z" fill="#fff"/></svg>