<svg id="f68c9644-b2fd-48fb-b606-172f7794290d" data-name="Calque 1" xmlns="http://www.w3.org/2000/svg" viewBox="0 0 600 600"><title>rules copie</title><path d="M527.26457,26.69246v-.02587H157.70988A71.79381,71.79381,0,0,0,85.997,98.37874V437.36605H1.6591v75.80273A71.79382,71.79382,0,0,0,73.3715,584.8807H85.997v.001H401.52433l.04-.001h.624v-.01563a71.78664,71.78664,0,0,0,71.04834-71.69629V174.181H600.00016V100.42342A73.83058,73.83058,0,0,0,527.26457,26.69246ZM72.35075,562.3387a51.0179,51.0179,0,0,1-50.96069-50.96V456.328H320.78312v53.00586a73.61619,73.61619,0,0,0,22.49341,53.00488ZM399.746,379.096H160.40983a10.37574,10.37574,0,1,1,0-20.75147H399.746a10.37574,10.37574,0,0,1,0,20.75147Zm0-72.63086H160.40983a10.376,10.376,0,1,1,0-20.752H399.746a10.376,10.376,0,0,1,0,20.752Zm0-72.63086H160.40983a10.376,10.376,0,1,1,0-20.75195H399.746a10.376,10.376,0,0,1,0,20.75195Zm0-72.6311H160.40983a10.37586,10.37586,0,1,1,0-20.75171H399.746a10.37586,10.37586,0,0,1,0,20.75171Zm179.92652-7.64209H473.66081V100.555a53.00586,53.00586,0,0,1,106.01172,0Z" style="fill:#1d1d1b"/></svg>