<svg id="svg" xmlns="http://www.w3.org/2000/svg" xmlns:xlink="http://www.w3.org/1999/xlink" width="400"
     height="374.02597402597405" viewBox="0, 0, 400,374.02597402597405">
    <g id="svgg">
        <path id="path0"
              d="M197.403 0.906 C 184.382 6.827,163.553 10.726,105.108 18.183 C 67.515 22.980,57.032 24.509,43.290 27.205 C 20.312 31.712,19.898 32.030,22.464 43.256 C 31.478 82.685,30.468 109.500,17.835 166.234 C 4.926 224.206,5.746 252.707,20.979 275.531 C 37.478 300.252,62.888 315.319,131.602 341.128 C 171.881 356.257,185.797 362.795,197.148 371.928 C 200.297 374.460,199.703 374.460,202.852 371.928 C 214.203 362.795,228.119 356.257,268.398 341.128 C 326.367 319.355,348.460 307.839,367.050 289.707 C 393.945 263.474,397.447 234.865,382.165 166.234 C 369.532 109.500,368.522 82.685,377.536 43.256 C 380.102 32.030,379.688 31.712,356.710 27.205 C 342.968 24.509,332.485 22.980,294.892 18.183 C 237.149 10.816,218.381 7.359,203.824 1.410 C 199.813 -0.230,199.888 -0.224,197.403 0.906 "
              stroke="none" fill="#000000" fill-rule="evenodd"></path>
    </g>
</svg>