<svg id="svg" xmlns="http://www.w3.org/2000/svg" xmlns:xlink="http://www.w3.org/1999/xlink" width="400" height="400"
     viewBox="0, 0, 400,400">
    <g id="svgg">
        <path id="path0"
              d="M170.737 3.629 C 11.924 26.606,-54.398 222.311,57.470 337.860 C 171.880 456.036,373.765 390.692,396.436 228.148 C 414.790 96.555,302.249 -15.397,170.737 3.629 M228.771 25.130 C 370.766 48.136,426.920 223.106,325.013 325.013 C 238.977 411.049,95.425 387.519,41.245 278.500 C -22.736 149.757,86.556 2.089,228.771 25.130 M237.618 106.064 C 211.257 112.578,198.658 139.520,198.598 189.500 C 198.525 250.134,215.316 275.191,255.116 273.837 C 289.463 272.669,306.000 245.259,306.000 189.500 C 306.000 133.051,289.222 105.856,254.055 105.303 C 247.150 105.194,239.753 105.537,237.618 106.064 M260.048 134.253 C 269.200 140.421,271.322 150.596,271.362 188.500 C 271.397 221.076,270.407 229.911,265.784 238.286 C 260.065 248.645,246.548 250.195,240.160 241.225 C 230.311 227.393,229.009 159.061,238.252 141.098 C 242.786 132.287,252.571 129.214,260.048 134.253 M107.000 154.500 L 107.000 176.000 85.500 176.000 L 64.000 176.000 64.000 190.500 L 64.000 205.000 85.500 205.000 L 107.000 205.000 107.000 226.500 L 107.000 248.000 122.000 248.000 L 137.000 248.000 137.000 226.500 L 137.000 205.000 158.500 205.000 L 180.000 205.000 180.000 190.500 L 180.000 176.000 158.500 176.000 L 137.000 176.000 137.000 154.500 L 137.000 133.000 122.000 133.000 L 107.000 133.000 107.000 154.500 "
              stroke="none" fill="#000000" fill-rule="evenodd"></path>
    </g>
</svg>