<svg id="svg" xmlns="http://www.w3.org/2000/svg" xmlns:xlink="http://www.w3.org/1999/xlink" width="400" height="400"
     viewBox="0, 0, 400,400">
    <g id="svgg">
        <path id="path0"
              d="M170.737 3.629 C 11.924 26.606,-54.398 222.311,57.470 337.860 C 171.880 456.036,373.765 390.692,396.436 228.148 C 414.790 96.555,302.249 -15.397,170.737 3.629 M228.771 25.130 C 370.766 48.136,426.920 223.106,325.013 325.013 C 238.977 411.049,95.425 387.519,41.245 278.500 C -22.736 149.757,86.556 2.089,228.771 25.130 M234.265 106.542 C 216.925 111.211,205.650 123.263,200.628 142.493 C 199.777 145.750,199.176 148.476,199.291 148.550 C 199.406 148.624,206.324 149.798,214.664 151.159 L 229.828 153.633 230.456 149.446 C 233.880 126.613,267.000 126.047,267.000 148.821 C 267.000 160.803,258.637 168.926,246.250 168.978 C 243.363 168.990,241.001 169.338,241.003 169.750 C 241.004 170.162,240.266 176.024,239.363 182.777 C 237.505 196.657,237.429 196.311,242.060 194.983 C 261.251 189.479,275.289 201.789,273.781 222.798 C 271.603 253.139,235.001 256.173,229.429 226.475 C 228.650 222.319,229.313 222.384,210.750 224.651 C 202.537 225.654,197.006 226.767,197.015 227.415 C 197.596 270.080,259.217 290.328,291.613 258.500 C 315.652 234.882,311.384 193.032,283.942 183.286 C 278.088 181.207,277.965 180.803,282.356 178.089 C 311.837 159.869,302.708 117.186,267.068 106.612 C 260.246 104.587,241.669 104.548,234.265 106.542 M107.000 154.500 L 107.000 176.000 85.500 176.000 L 64.000 176.000 64.000 190.500 L 64.000 205.000 85.500 205.000 L 107.000 205.000 107.000 226.500 L 107.000 248.000 122.000 248.000 L 137.000 248.000 137.000 226.500 L 137.000 205.000 158.500 205.000 L 180.000 205.000 180.000 190.500 L 180.000 176.000 158.500 176.000 L 137.000 176.000 137.000 154.500 L 137.000 133.000 122.000 133.000 L 107.000 133.000 107.000 154.500 "
              stroke="none" fill="#000000" fill-rule="evenodd"></path>
    </g>
</svg>