<svg id="svg" version="1.1" xmlns="http://www.w3.org/2000/svg" xmlns:xlink="http://www.w3.org/1999/xlink" width="400"
     height="397.36299958796866" viewBox="0, 0, 400,397.36299958796866">
    <g id="svgg">
        <path id="path0"
              d="M196.548 0.333 C 194.886 0.769,193.591 1.314,192.415 2.074 C 191.403 2.728,6.674 187.187,4.414 189.801 C 0.060 194.836,0.060 202.497,4.414 207.532 C 7.964 211.639,191.792 394.958,193.079 395.676 C 198.161 398.509,204.616 397.927,208.866 394.253 C 211.936 391.598,395.974 207.246,396.715 206.083 C 399.957 200.995,399.505 194.335,395.613 189.832 C 393.337 187.200,208.606 2.733,207.585 2.074 C 204.630 0.165,199.984 -0.567,196.548 0.333 M202.190 7.258 C 202.582 7.397,203.243 7.730,203.660 7.999 C 205.476 9.174,390.745 194.836,391.262 196.000 C 391.996 197.650,391.972 199.778,391.202 201.417 C 390.419 203.082,204.580 389.020,202.966 389.752 C 200.904 390.689,199.004 390.683,197.011 389.734 C 195.700 389.110,9.615 203.091,8.940 201.730 C 7.985 199.805,7.982 197.674,8.933 195.677 C 9.600 194.275,195.605 8.268,197.008 7.601 C 198.675 6.807,200.559 6.683,202.190 7.258 M146.857 132.375 C 146.465 132.581,142.531 135.344,138.114 138.515 C 127.922 145.831,105.107 162.179,92.667 171.080 C 58.439 195.570,57.630 196.154,57.221 196.647 C 56.396 197.639,56.318 199.378,57.050 200.459 C 57.257 200.765,59.304 202.358,61.750 204.116 C 66.231 207.337,78.726 216.287,98.500 230.440 C 104.779 234.934,113.667 241.299,118.250 244.584 C 148.878 266.538,147.144 265.333,148.126 265.333 C 148.924 265.333,150.043 264.652,150.455 263.917 L 150.828 263.250 150.831 245.708 L 150.833 228.167 190.281 228.167 L 229.728 228.167 230.458 227.813 C 232.461 226.844,232.623 225.036,230.929 222.546 C 220.673 207.473,220.677 189.854,230.939 174.772 C 232.410 172.611,232.487 171.332,231.225 170.070 C 230.281 169.126,232.226 169.169,190.125 169.168 L 150.833 169.167 150.831 151.625 L 150.828 134.083 150.455 133.417 C 150.035 132.666,148.920 132.000,148.083 132.000 C 147.801 132.000,147.250 132.169,146.857 132.375 M259.833 169.425 C 253.596 170.778,247.320 180.669,245.563 191.917 C 245.074 195.045,245.123 202.906,245.650 205.990 C 247.524 216.952,253.487 226.274,259.628 227.845 C 261.545 228.335,296.184 228.341,297.263 227.851 C 299.507 226.831,299.526 225.162,297.332 221.822 C 287.628 207.056,287.626 190.281,297.326 175.520 C 299.435 172.310,299.512 170.951,297.652 169.720 L 296.941 169.250 278.929 169.220 C 263.970 169.195,260.733 169.230,259.833 169.425 M331.417 169.413 C 322.789 171.307,315.767 186.487,316.660 201.313 C 317.458 214.542,324.214 226.627,331.572 227.984 C 333.369 228.316,340.958 228.216,341.763 227.851 C 343.895 226.882,344.010 225.106,342.124 222.273 C 332.016 207.093,331.985 190.600,342.034 175.214 C 344.011 172.187,343.930 170.467,341.763 169.483 C 340.899 169.090,333.124 169.038,331.417 169.413 "
              stroke="none" fill="#fbfbfb" fill-rule="evenodd"></path>
        <path id="path1"
              d="M198.674 7.006 C 196.576 7.444,203.023 1.101,102.729 101.395 C 21.256 182.868,9.318 194.868,8.933 195.677 C 7.982 197.674,7.985 199.805,8.940 201.730 C 9.615 203.091,195.700 389.110,197.011 389.734 C 199.004 390.683,200.904 390.689,202.966 389.752 C 204.580 389.020,390.419 203.082,391.202 201.417 C 391.972 199.778,391.996 197.650,391.262 196.000 C 390.745 194.836,205.476 9.174,203.660 7.999 C 202.213 7.064,200.260 6.675,198.674 7.006 M149.339 132.375 C 149.829 132.622,150.209 132.977,150.455 133.417 L 150.828 134.083 150.831 151.625 L 150.833 169.167 190.125 169.168 C 232.226 169.169,230.281 169.126,231.225 170.070 C 232.487 171.332,232.410 172.611,230.939 174.772 C 220.677 189.854,220.673 207.473,230.929 222.546 C 232.623 225.036,232.461 226.844,230.458 227.813 L 229.728 228.167 190.281 228.167 L 150.833 228.167 150.831 245.708 L 150.828 263.250 150.455 263.917 C 150.043 264.652,148.924 265.333,148.126 265.333 C 147.144 265.333,148.878 266.538,118.250 244.584 C 113.667 241.299,104.779 234.934,98.500 230.440 C 78.726 216.287,66.231 207.337,61.750 204.116 C 59.304 202.358,57.257 200.765,57.050 200.459 C 56.318 199.378,56.396 197.639,57.221 196.647 C 57.630 196.154,58.439 195.570,92.667 171.080 C 105.107 162.179,127.922 145.831,138.114 138.515 C 146.537 132.468,147.253 132.000,148.083 132.000 C 148.365 132.000,148.930 132.169,149.339 132.375 M297.652 169.720 C 299.512 170.951,299.435 172.310,297.326 175.520 C 287.626 190.281,287.628 207.056,297.332 221.822 C 299.249 224.739,299.418 225.666,298.295 227.094 C 297.410 228.220,298.523 228.159,278.735 228.163 C 257.323 228.167,258.219 228.273,255.157 225.384 C 244.692 215.512,241.939 195.016,249.114 180.388 C 251.384 175.761,254.862 171.577,257.534 170.260 C 259.786 169.149,259.012 169.187,278.929 169.220 L 296.941 169.250 297.652 169.720 M341.763 169.483 C 343.930 170.467,344.011 172.187,342.034 175.214 C 331.985 190.600,332.016 207.093,342.124 222.273 C 344.010 225.106,343.895 226.882,341.763 227.851 C 340.958 228.216,333.369 228.316,331.572 227.984 C 324.214 226.627,317.458 214.542,316.660 201.313 C 315.767 186.487,322.789 171.307,331.417 169.413 C 333.124 169.038,340.899 169.090,341.763 169.483 "
              stroke="none" fill="#4c5454" fill-rule="evenodd"></path>
    </g>
</svg>