<svg id="svg" version="1.1" xmlns="http://www.w3.org/2000/svg" xmlns:xlink="http://www.w3.org/1999/xlink" width="400"
     height="400" viewBox="0, 0, 400,400">
    <g id="svgg">
        <path id="path0"
              d="M190.484 0.109 C 122.384 3.889,62.965 39.471,28.217 97.281 C 4.762 136.302,-4.575 183.088,1.970 228.804 C 14.478 316.182,83.818 385.522,171.196 398.030 C 189.766 400.689,210.234 400.689,228.804 398.030 C 316.182 385.522,385.522 316.182,398.030 228.804 C 400.689 210.234,400.689 189.766,398.030 171.196 C 387.407 96.990,335.444 34.550,264.258 10.453 C 248.041 4.964,232.823 1.889,214.574 0.413 C 211.349 0.153,193.713 -0.070,190.484 0.109 M212.345 11.818 C 224.643 12.761,234.811 14.333,245.201 16.898 C 322.916 36.081,380.347 102.710,387.730 182.255 C 388.325 188.669,388.427 191.254,388.427 200.000 C 388.427 208.746,388.325 211.331,387.730 217.745 C 379.390 307.601,307.601 379.390,217.745 387.730 C 211.331 388.325,208.746 388.427,200.000 388.427 C 191.254 388.427,188.669 388.325,182.255 387.730 C 92.395 379.390,20.610 307.605,12.270 217.745 C 11.675 211.331,11.573 208.746,11.573 200.000 C 11.573 189.567,11.835 185.032,12.957 176.082 C 24.144 86.812,98.314 17.217,187.998 11.837 C 189.696 11.735,191.509 11.624,192.027 11.591 C 193.999 11.463,210.052 11.643,212.345 11.818 M227.090 47.611 C 199.640 51.188,175.413 78.685,167.271 115.505 C 162.792 135.756,164.288 152.009,173.619 184.483 C 180.264 207.609,180.909 215.795,176.729 223.970 C 171.167 234.847,153.701 242.811,141.619 239.979 C 124.921 236.065,112.508 216.426,109.792 189.627 C 109.484 186.588,109.366 176.718,109.620 175.169 C 109.799 174.072,109.593 174.184,107.365 176.399 C 92.186 191.482,83.753 229.187,88.388 261.248 C 90.963 279.057,96.195 292.288,106.134 306.129 C 125.226 332.716,148.927 347.837,178.140 352.069 C 181.437 352.546,181.270 352.571,180.216 351.767 C 172.457 345.850,169.629 334.157,173.067 322.211 C 175.888 312.411,180.809 307.365,199.914 294.682 C 212.969 286.017,217.497 282.484,224.348 275.620 C 233.168 266.783,238.756 258.239,240.665 250.671 L 240.815 250.077 242.546 252.814 C 254.995 272.509,258.161 290.153,252.963 310.871 C 248.740 327.702,240.358 341.062,228.857 349.293 C 228.099 349.835,227.531 350.279,227.594 350.279 C 228.217 350.279,235.621 347.942,239.090 346.651 C 270.716 334.876,295.176 311.848,306.099 283.566 C 317.491 254.068,314.486 215.462,298.754 189.198 C 290.972 176.206,282.332 167.133,261.284 149.850 C 233.702 127.201,219.047 82.637,227.780 47.964 C 227.845 47.705,227.832 47.504,227.751 47.518 C 227.670 47.532,227.372 47.574,227.090 47.611 "
              stroke="none" fill="#fbfbfb" fill-rule="evenodd"></path>
        <path id="path1"
              d="M192.027 11.591 C 191.509 11.624,189.696 11.735,187.998 11.837 C 98.314 17.217,24.144 86.812,12.957 176.082 C 11.835 185.032,11.573 189.567,11.573 200.000 C 11.573 208.746,11.675 211.331,12.270 217.745 C 20.610 307.605,92.395 379.390,182.255 387.730 C 188.669 388.325,191.254 388.427,200.000 388.427 C 208.746 388.427,211.331 388.325,217.745 387.730 C 307.601 379.390,379.390 307.601,387.730 217.745 C 388.325 211.331,388.427 208.746,388.427 200.000 C 388.427 136.091,356.971 77.667,303.600 42.447 C 276.307 24.437,246.516 14.437,212.345 11.818 C 210.052 11.643,193.999 11.463,192.027 11.591 M227.780 47.964 C 219.047 82.637,233.702 127.201,261.284 149.850 C 282.332 167.133,290.972 176.206,298.754 189.198 C 314.486 215.462,317.491 254.068,306.099 283.566 C 295.176 311.848,270.716 334.876,239.090 346.651 C 235.621 347.942,228.217 350.279,227.594 350.279 C 227.531 350.279,228.099 349.835,228.857 349.293 C 240.358 341.062,248.740 327.702,252.963 310.871 C 258.161 290.153,254.995 272.509,242.546 252.814 L 240.815 250.077 240.665 250.671 C 238.756 258.239,233.168 266.783,224.348 275.620 C 217.497 282.484,212.969 286.017,199.914 294.682 C 186.333 303.698,181.587 307.532,177.950 312.427 C 168.630 324.969,169.712 343.757,180.216 351.767 C 181.270 352.571,181.437 352.546,178.140 352.069 C 148.927 347.837,125.226 332.716,106.134 306.129 C 96.195 292.288,90.963 279.057,88.388 261.248 C 83.753 229.187,92.186 191.482,107.365 176.399 C 109.593 174.184,109.799 174.072,109.620 175.169 C 109.366 176.718,109.484 186.588,109.792 189.627 C 112.508 216.426,124.921 236.065,141.619 239.979 C 153.701 242.811,171.167 234.847,176.729 223.970 C 180.909 215.795,180.264 207.609,173.619 184.483 C 164.288 152.009,162.792 135.756,167.271 115.505 C 175.413 78.685,199.640 51.188,227.090 47.611 C 227.372 47.574,227.670 47.532,227.751 47.518 C 227.832 47.504,227.845 47.705,227.780 47.964 "
              stroke="none" fill="#e45424" fill-rule="evenodd"></path>
    </g>
</svg>