<svg id="svg" version="1.1" xmlns="http://www.w3.org/2000/svg" xmlns:xlink="http://www.w3.org/1999/xlink" width="400"
     height="397.36299958796866" viewBox="0, 0, 400,397.36299958796866">
    <g id="svgg">
        <path id="path0"
              d="M196.548 0.333 C 194.886 0.769,193.591 1.314,192.415 2.074 C 191.403 2.728,6.674 187.187,4.414 189.801 C 0.060 194.836,0.060 202.497,4.414 207.532 C 7.964 211.639,191.792 394.958,193.079 395.676 C 198.161 398.509,204.616 397.927,208.866 394.253 C 211.936 391.598,395.974 207.246,396.715 206.083 C 399.957 200.995,399.505 194.335,395.613 189.832 C 393.337 187.200,208.606 2.733,207.585 2.074 C 204.630 0.165,199.984 -0.567,196.548 0.333 M202.190 7.258 C 202.582 7.397,203.243 7.730,203.660 7.999 C 205.476 9.174,390.745 194.836,391.262 196.000 C 391.996 197.650,391.972 199.778,391.202 201.417 C 390.419 203.082,204.580 389.020,202.966 389.752 C 200.904 390.689,199.004 390.683,197.011 389.734 C 195.700 389.110,9.615 203.091,8.940 201.730 C 7.985 199.805,7.982 197.674,8.933 195.677 C 9.600 194.275,195.606 8.268,197.008 7.601 C 198.675 6.807,200.559 6.683,202.190 7.258 M189.917 104.446 C 170.566 105.100,153.366 107.753,145.833 111.246 C 145.166 111.556,148.438 111.529,157.500 111.151 C 195.404 109.570,216.801 121.761,225.825 150.083 C 229.807 162.581,230.328 168.828,230.331 204.125 L 230.333 228.500 215.833 228.500 C 207.858 228.500,201.338 228.556,201.344 228.625 C 201.350 228.694,204.700 231.637,208.787 235.167 C 216.538 241.858,236.895 259.480,242.083 263.989 C 243.733 265.423,247.896 269.028,251.333 272.000 C 254.771 274.971,259.571 279.125,262.000 281.230 C 264.429 283.334,266.540 285.160,266.690 285.288 C 266.934 285.494,267.608 284.960,272.774 280.473 C 275.969 277.698,280.458 273.810,282.750 271.832 C 286.718 268.407,292.389 263.495,305.750 251.911 C 309.050 249.049,316.400 242.682,322.083 237.760 C 327.767 232.839,332.442 228.742,332.472 228.657 C 332.506 228.562,326.764 228.485,317.722 228.459 L 302.917 228.417 302.822 198.417 C 302.714 164.441,302.694 163.889,301.235 155.083 C 295.957 123.224,275.316 107.777,234.083 104.831 C 229.092 104.475,197.271 104.197,189.917 104.446 M158.583 121.285 C 157.392 121.310,153.817 121.444,150.640 121.582 C 147.463 121.720,141.611 121.833,137.636 121.833 L 130.409 121.833 128.663 123.193 C 117.106 132.192,110.825 144.836,108.679 163.417 C 107.709 171.818,107.674 174.236,107.670 231.795 L 107.667 283.841 136.625 283.787 C 162.860 283.738,165.685 283.707,166.667 283.458 C 173.271 281.784,177.876 277.339,179.717 270.863 L 180.081 269.583 180.176 226.333 C 180.281 178.956,180.216 181.962,181.255 176.984 C 184.400 161.931,195.011 152.086,211.853 148.594 C 212.988 148.358,214.085 148.127,214.292 148.080 C 215.386 147.829,210.249 139.864,206.408 135.856 C 196.807 125.836,181.102 120.665,161.917 121.206 C 161.275 121.224,159.775 121.260,158.583 121.285 "
              stroke="none" fill="#fbfbfb" fill-rule="evenodd"></path>
        <path id="path1"
              d="M198.674 7.006 C 196.575 7.444,203.026 1.098,102.729 101.395 C 21.261 182.863,9.318 194.868,8.933 195.677 C 7.982 197.674,7.985 199.805,8.940 201.730 C 9.615 203.091,195.700 389.110,197.011 389.734 C 199.004 390.683,200.904 390.689,202.966 389.752 C 204.580 389.020,390.419 203.082,391.202 201.417 C 391.972 199.778,391.996 197.650,391.262 196.000 C 390.745 194.836,205.476 9.174,203.660 7.999 C 202.213 7.064,200.260 6.675,198.674 7.006 M222.917 104.501 C 274.242 105.403,297.373 121.582,301.907 159.750 C 302.720 166.595,302.721 166.658,302.822 198.417 L 302.917 228.417 317.722 228.459 C 326.764 228.485,332.506 228.562,332.472 228.657 C 332.442 228.742,327.767 232.839,322.083 237.760 C 316.400 242.682,309.050 249.049,305.750 251.911 C 292.389 263.495,286.718 268.407,282.750 271.832 C 280.458 273.810,275.969 277.698,272.774 280.473 C 267.608 284.960,266.934 285.494,266.690 285.288 C 266.540 285.160,264.429 283.334,262.000 281.230 C 259.571 279.125,254.771 274.971,251.333 272.000 C 247.896 269.028,243.733 265.423,242.083 263.989 C 236.895 259.480,216.538 241.858,208.787 235.167 C 204.700 231.637,201.350 228.694,201.344 228.625 C 201.338 228.556,207.858 228.500,215.833 228.500 L 230.333 228.500 230.331 204.125 C 230.328 168.828,229.807 162.581,225.825 150.083 C 216.801 121.761,195.404 109.570,157.500 111.151 C 148.438 111.529,145.166 111.556,145.833 111.246 C 153.366 107.753,170.566 105.100,189.917 104.446 C 193.383 104.328,215.186 104.365,222.917 104.501 M167.250 121.331 C 185.335 122.016,197.454 126.511,206.408 135.856 C 210.249 139.864,215.386 147.829,214.292 148.080 C 214.085 148.127,212.988 148.358,211.853 148.594 C 195.011 152.086,184.400 161.931,181.255 176.984 C 180.216 181.962,180.281 178.956,180.176 226.333 L 180.081 269.583 179.717 270.863 C 177.876 277.339,173.271 281.784,166.667 283.458 C 165.685 283.707,162.860 283.738,136.625 283.787 L 107.667 283.841 107.670 231.795 C 107.674 174.236,107.709 171.818,108.679 163.417 C 110.825 144.836,117.106 132.192,128.663 123.193 L 130.409 121.833 137.636 121.833 C 141.611 121.833,147.463 121.720,150.640 121.582 C 153.817 121.444,157.392 121.310,158.583 121.285 C 159.775 121.260,161.275 121.224,161.917 121.206 C 162.558 121.188,164.958 121.244,167.250 121.331 "
              stroke="none" fill="#3c843c" fill-rule="evenodd"></path>
    </g>
</svg>