<svg id="svg" version="1.1" xmlns="http://www.w3.org/2000/svg" xmlns:xlink="http://www.w3.org/1999/xlink" width="400"
     height="400" viewBox="0, 0, 400,400">
    <g id="svgg">
        <path id="path0"
              d="M190.484 0.109 C 109.862 4.584,41.686 53.989,12.954 128.761 C 1.014 159.832,-2.857 195.088,1.970 228.804 C 14.478 316.182,83.818 385.522,171.196 398.030 C 189.766 400.689,210.234 400.689,228.804 398.030 C 316.181 385.522,385.522 316.181,398.030 228.804 C 400.689 210.234,400.689 189.766,398.030 171.196 C 386.318 89.383,324.613 22.763,243.841 4.725 C 234.246 2.583,225.540 1.300,214.574 0.413 C 211.349 0.153,193.713 -0.070,190.484 0.109 M212.345 11.818 C 219.529 12.369,225.163 13.023,230.947 13.978 C 315.124 27.878,379.849 97.348,387.730 182.255 C 388.325 188.669,388.427 191.254,388.427 200.000 C 388.427 208.746,388.325 211.331,387.730 217.745 C 379.390 307.601,307.601 379.390,217.745 387.730 C 211.331 388.325,208.746 388.427,200.000 388.427 C 191.254 388.427,188.669 388.325,182.255 387.730 C 92.392 379.389,20.611 307.608,12.270 217.745 C 11.675 211.331,11.573 208.746,11.573 200.000 C 11.573 189.567,11.835 185.032,12.957 176.082 C 24.144 86.812,98.314 17.217,187.998 11.837 C 189.696 11.735,191.509 11.624,192.027 11.591 C 193.999 11.463,210.052 11.643,212.345 11.818 M198.709 41.412 C 196.860 41.982,198.125 39.654,179.676 76.426 C 170.415 94.885,162.815 110.013,162.787 110.045 C 162.760 110.076,146.740 104.791,127.189 98.300 C 95.279 87.706,91.536 86.500,90.613 86.513 C 88.336 86.548,86.549 88.335,86.514 90.613 C 86.500 91.537,87.698 95.257,98.299 127.190 C 104.790 146.742,110.075 162.761,110.044 162.788 C 110.013 162.816,94.885 170.416,76.426 179.676 C 39.508 198.199,41.974 196.853,41.402 198.781 C 41.086 199.846,41.086 200.154,41.402 201.219 C 41.974 203.147,39.508 201.801,76.426 220.324 C 94.885 229.584,110.013 237.184,110.044 237.212 C 110.075 237.239,104.790 253.258,98.299 272.810 C 87.698 304.743,86.500 308.463,86.514 309.387 C 86.549 311.665,88.336 313.452,90.613 313.487 C 91.536 313.500,95.280 312.294,127.190 301.700 C 146.741 295.209,162.760 289.924,162.788 289.956 C 162.815 289.987,170.415 305.115,179.676 323.574 C 198.199 360.492,196.853 358.026,198.781 358.598 C 199.846 358.914,200.154 358.914,201.219 358.598 C 203.147 358.026,201.801 360.492,220.324 323.574 C 229.584 305.115,237.184 289.987,237.212 289.956 C 237.240 289.924,253.229 295.193,272.743 301.664 C 292.258 308.135,308.495 313.474,308.826 313.528 C 310.313 313.769,312.335 312.630,313.113 311.113 C 313.953 309.474,314.658 311.839,301.700 272.811 C 295.209 253.260,289.924 237.240,289.955 237.212 C 289.987 237.184,305.049 229.618,323.427 220.398 C 341.805 211.178,357.095 203.411,357.406 203.138 C 359.191 201.571,359.190 198.428,357.406 196.861 C 357.095 196.589,341.804 188.822,323.427 179.602 C 305.049 170.382,289.987 162.816,289.956 162.788 C 289.924 162.760,295.209 146.741,301.700 127.190 C 312.302 95.256,313.500 91.537,313.486 90.613 C 313.451 88.335,311.664 86.548,309.387 86.513 C 308.464 86.500,304.721 87.706,272.811 98.300 C 253.260 104.791,237.240 110.076,237.213 110.045 C 237.185 110.013,229.585 94.885,220.324 76.426 C 201.801 39.508,203.147 41.974,201.219 41.402 C 200.190 41.096,199.727 41.098,198.709 41.412 M213.186 91.793 C 220.314 103.853,226.147 113.741,226.147 113.767 C 226.147 113.843,206.742 120.217,206.696 120.156 C 206.674 120.127,205.169 116.380,203.353 111.830 C 201.537 107.280,200.028 103.558,200.000 103.558 C 199.972 103.558,198.463 107.280,196.647 111.830 C 194.831 116.380,193.326 120.127,193.304 120.156 C 193.282 120.186,188.894 118.771,183.554 117.011 L 173.844 113.812 174.320 112.994 C 179.813 103.561,200.031 69.660,200.112 69.747 C 200.174 69.813,206.057 79.734,213.186 91.793 M132.876 114.203 C 146.125 117.597,157.103 120.415,157.271 120.466 C 157.605 120.567,148.619 138.705,148.234 138.706 C 148.133 138.706,144.436 137.157,140.019 135.264 C 135.601 133.371,131.950 131.859,131.905 131.905 C 131.859 131.950,133.371 135.601,135.264 140.019 C 137.157 144.436,138.706 148.132,138.706 148.232 C 138.706 148.332,134.620 150.477,129.627 152.998 L 120.549 157.582 120.380 156.931 C 120.287 156.572,117.463 145.517,114.103 132.362 C 110.743 119.207,107.952 108.299,107.900 108.121 C 107.819 107.840,107.871 107.813,108.297 107.915 C 108.566 107.979,119.627 110.809,132.876 114.203 M292.156 108.031 C 292.156 108.217,280.189 154.940,279.698 156.670 L 279.441 157.576 270.368 152.997 C 265.377 150.479,261.294 148.336,261.294 148.234 C 261.294 148.133,262.843 144.436,264.736 140.019 C 266.629 135.601,268.141 131.950,268.095 131.905 C 268.050 131.859,264.399 133.371,259.981 135.264 C 255.564 137.157,251.867 138.706,251.766 138.706 C 251.664 138.706,249.519 134.619,246.999 129.624 L 242.416 120.543 242.897 120.422 C 243.161 120.356,254.256 117.506,267.553 114.088 C 293.369 107.452,292.156 107.751,292.156 108.031 M179.252 126.106 C 185.003 127.580,189.729 128.806,189.755 128.832 C 189.843 128.920,180.399 152.326,180.256 152.372 C 179.993 152.458,156.965 142.520,157.004 142.338 C 157.163 141.603,168.272 123.275,168.516 123.345 C 168.670 123.390,173.501 124.632,179.252 126.106 M237.479 132.883 C 240.573 138.112,243.051 142.440,242.984 142.502 C 242.641 142.820,219.756 152.441,219.646 152.314 C 219.476 152.119,210.178 128.899,210.243 128.834 C 210.342 128.735,231.551 123.306,231.700 123.341 C 231.784 123.361,234.385 127.655,237.479 132.883 M147.538 168.681 C 150.247 175.030,152.396 180.283,152.314 180.355 C 152.128 180.517,128.898 189.821,128.835 189.758 C 128.765 189.688,123.437 168.870,123.397 168.505 C 123.357 168.154,142.278 156.779,142.503 157.019 C 142.564 157.084,144.830 162.331,147.538 168.681 M267.124 162.530 C 272.263 165.568,276.525 168.108,276.595 168.174 C 276.698 168.273,271.342 189.581,271.171 189.752 C 271.104 189.819,247.884 180.527,247.686 180.355 C 247.568 180.252,251.244 171.461,257.165 157.683 C 257.360 157.229,257.578 156.891,257.650 156.932 C 257.721 156.973,261.985 159.492,267.124 162.530 M117.028 183.616 C 118.779 188.921,120.187 193.281,120.157 193.304 C 120.127 193.326,116.380 194.831,111.830 196.647 C 107.280 198.463,103.558 199.972,103.558 200.000 C 103.558 200.028,107.280 201.537,111.830 203.353 C 116.380 205.169,120.127 206.674,120.157 206.696 C 120.186 206.719,118.770 211.107,117.009 216.448 L 113.808 226.159 113.184 225.793 C 108.096 222.816,69.634 200.005,69.660 199.979 C 69.819 199.824,113.757 173.880,113.796 173.918 C 113.823 173.946,115.278 178.310,117.028 183.616 M308.423 186.951 C 320.515 194.108,330.347 200.021,330.271 200.090 C 330.126 200.223,286.310 226.147,286.230 226.147 C 286.157 226.147,279.785 206.741,279.844 206.696 C 279.873 206.674,283.620 205.169,288.170 203.353 C 292.720 201.537,296.442 200.028,296.442 200.000 C 296.442 199.972,292.720 198.463,288.170 196.647 C 283.620 194.831,279.873 193.326,279.844 193.304 C 279.735 193.222,286.194 173.838,286.313 173.888 C 286.381 173.916,296.331 179.795,308.423 186.951 M140.763 214.954 C 147.034 217.462,152.232 219.574,152.314 219.645 C 152.442 219.757,142.817 242.649,142.503 242.981 C 142.278 243.220,123.357 231.846,123.397 231.495 C 123.417 231.317,124.632 226.498,126.097 220.786 C 127.562 215.073,128.761 210.347,128.761 210.282 C 128.761 210.137,127.375 209.597,140.763 214.954 M271.239 210.282 C 271.239 210.326,272.472 215.165,273.980 221.034 C 275.488 226.903,276.665 231.760,276.595 231.828 C 276.194 232.215,257.589 243.083,257.497 242.983 C 257.239 242.706,247.549 219.775,247.648 219.676 C 247.928 219.396,271.239 210.113,271.239 210.282 M138.706 251.768 C 138.706 251.868,137.157 255.564,135.264 259.981 C 133.371 264.399,131.859 268.050,131.905 268.095 C 131.950 268.141,135.601 266.629,140.019 264.736 C 144.436 262.843,148.132 261.294,148.232 261.294 C 148.616 261.295,157.605 279.433,157.271 279.535 C 155.922 279.945,107.975 292.173,107.923 292.120 C 107.885 292.083,110.707 280.907,114.193 267.286 C 117.679 253.665,120.531 242.495,120.531 242.465 C 120.531 242.434,124.621 244.474,129.619 246.997 C 134.616 249.521,138.706 251.668,138.706 251.768 M285.903 267.426 C 289.371 280.936,292.167 292.031,292.116 292.081 C 292.049 292.149,244.621 280.098,242.729 279.533 C 242.395 279.433,251.384 261.295,251.768 261.294 C 251.868 261.294,255.564 262.843,259.981 264.736 C 264.399 266.629,268.050 268.141,268.095 268.095 C 268.141 268.050,266.629 264.399,264.736 259.981 C 262.843 255.564,261.294 251.867,261.294 251.766 C 261.295 251.465,279.363 242.421,279.489 242.659 C 279.548 242.771,282.435 253.917,285.903 267.426 M185.100 259.392 C 187.687 265.842,189.781 271.142,189.753 271.170 C 189.586 271.337,168.269 276.694,168.176 276.592 C 167.978 276.374,157.045 257.851,157.005 257.663 C 156.963 257.471,179.784 247.593,180.168 247.637 C 180.302 247.653,182.343 252.518,185.100 259.392 M231.368 252.482 C 237.690 255.179,242.918 257.437,242.984 257.498 C 243.083 257.590,232.218 276.192,231.832 276.591 C 231.735 276.691,210.407 271.330,210.241 271.164 C 210.213 271.136,212.234 266.026,214.731 259.808 C 217.228 253.590,219.350 248.295,219.447 248.041 C 219.679 247.430,218.449 246.971,231.368 252.482 M196.560 287.956 C 198.346 292.433,199.859 296.181,199.923 296.284 C 199.986 296.388,201.527 292.743,203.347 288.185 C 205.167 283.627,206.674 279.873,206.696 279.843 C 206.741 279.785,226.147 286.160,226.147 286.233 C 226.147 286.310,200.235 330.125,200.113 330.253 C 200.029 330.342,175.423 289.076,174.070 286.577 C 173.859 286.186,173.870 286.182,183.414 283.016 C 188.670 281.273,193.048 279.840,193.142 279.831 C 193.236 279.823,194.774 283.479,196.560 287.956 "
              stroke="none" fill="#fcfbfb" fill-rule="evenodd"></path>
        <path id="path1"
              d="M192.027 11.591 C 191.509 11.624,189.696 11.735,187.998 11.837 C 98.314 17.217,24.144 86.812,12.957 176.082 C 11.835 185.032,11.573 189.567,11.573 200.000 C 11.573 208.746,11.675 211.331,12.270 217.745 C 20.611 307.608,92.392 379.389,182.255 387.730 C 188.669 388.325,191.254 388.427,200.000 388.427 C 208.746 388.427,211.331 388.325,217.745 387.730 C 307.601 379.390,379.390 307.601,387.730 217.745 C 388.325 211.331,388.427 208.746,388.427 200.000 C 388.427 136.086,356.976 77.670,303.600 42.447 C 276.307 24.437,246.516 14.437,212.345 11.818 C 210.052 11.643,193.999 11.463,192.027 11.591 M201.219 41.402 C 203.147 41.974,201.801 39.508,220.324 76.426 C 229.585 94.885,237.185 110.013,237.213 110.045 C 237.240 110.076,253.260 104.791,272.811 98.300 C 304.721 87.706,308.464 86.500,309.387 86.513 C 311.664 86.548,313.451 88.335,313.486 90.613 C 313.500 91.537,312.302 95.256,301.700 127.190 C 295.209 146.741,289.924 162.760,289.956 162.788 C 289.987 162.816,305.049 170.382,323.427 179.602 C 341.804 188.822,357.095 196.589,357.406 196.861 C 359.190 198.428,359.191 201.571,357.406 203.138 C 357.095 203.411,341.805 211.178,323.427 220.398 C 305.049 229.618,289.987 237.184,289.955 237.212 C 289.924 237.240,295.209 253.260,301.700 272.811 C 314.658 311.839,313.953 309.474,313.113 311.113 C 312.335 312.630,310.313 313.769,308.826 313.528 C 308.495 313.474,292.258 308.135,272.743 301.664 C 253.229 295.193,237.240 289.924,237.212 289.956 C 237.184 289.987,229.584 305.115,220.324 323.574 C 201.801 360.492,203.147 358.026,201.219 358.598 C 200.154 358.914,199.846 358.914,198.781 358.598 C 196.853 358.026,198.199 360.492,179.676 323.574 C 170.415 305.115,162.815 289.987,162.788 289.956 C 162.760 289.924,146.741 295.209,127.190 301.700 C 95.280 312.294,91.536 313.500,90.613 313.487 C 88.336 313.452,86.549 311.665,86.514 309.387 C 86.500 308.463,87.698 304.743,98.299 272.810 C 104.790 253.258,110.075 237.239,110.044 237.212 C 110.013 237.184,94.885 229.584,76.426 220.324 C 39.508 201.801,41.974 203.147,41.402 201.219 C 41.086 200.154,41.086 199.846,41.402 198.781 C 41.974 196.853,39.508 198.199,76.426 179.676 C 94.885 170.416,110.013 162.816,110.044 162.788 C 110.075 162.761,104.790 146.742,98.299 127.190 C 87.698 95.257,86.500 91.537,86.514 90.613 C 86.549 88.335,88.336 86.548,90.613 86.513 C 91.536 86.500,95.279 87.706,127.189 98.300 C 146.740 104.791,162.760 110.076,162.787 110.045 C 162.815 110.013,170.415 94.885,179.676 76.426 C 198.125 39.654,196.860 41.982,198.709 41.412 C 199.727 41.098,200.190 41.096,201.219 41.402 M187.398 90.902 C 180.467 102.603,174.582 112.544,174.320 112.994 L 173.844 113.812 183.554 117.011 C 188.894 118.771,193.282 120.186,193.304 120.156 C 193.326 120.127,194.831 116.380,196.647 111.830 C 198.463 107.280,199.972 103.558,200.000 103.558 C 200.028 103.558,201.537 107.280,203.353 111.830 C 205.169 116.380,206.674 120.127,206.696 120.156 C 206.742 120.217,226.147 113.843,226.147 113.767 C 226.147 113.690,200.236 69.879,200.112 69.747 C 200.051 69.681,194.329 79.201,187.398 90.902 M107.900 108.121 C 107.952 108.299,110.743 119.207,114.103 132.362 C 117.463 145.517,120.287 156.572,120.380 156.931 L 120.549 157.582 129.627 152.998 C 134.620 150.477,138.706 148.332,138.706 148.232 C 138.706 148.132,137.157 144.436,135.264 140.019 C 133.371 135.601,131.859 131.950,131.905 131.905 C 131.950 131.859,135.601 133.371,140.019 135.264 C 144.436 137.157,148.133 138.706,148.234 138.706 C 148.619 138.705,157.605 120.567,157.271 120.466 C 156.948 120.369,109.139 108.116,108.297 107.915 C 107.871 107.813,107.819 107.840,107.900 108.121 M267.553 114.088 C 254.256 117.506,243.161 120.356,242.897 120.422 L 242.416 120.543 246.999 129.624 C 249.519 134.619,251.664 138.706,251.766 138.706 C 251.867 138.706,255.564 137.157,259.981 135.264 C 264.399 133.371,268.050 131.859,268.095 131.905 C 268.141 131.950,266.629 135.601,264.736 140.019 C 262.843 144.436,261.294 148.133,261.294 148.234 C 261.294 148.336,265.377 150.479,270.368 152.997 L 279.441 157.576 279.698 156.670 C 280.189 154.940,292.156 108.217,292.156 108.031 C 292.156 107.751,293.369 107.452,267.553 114.088 M162.639 132.712 C 159.561 137.908,157.025 142.240,157.004 142.338 C 156.965 142.520,179.993 152.458,180.256 152.372 C 180.399 152.326,189.843 128.920,189.755 128.832 C 189.729 128.806,185.003 127.580,179.252 126.106 C 173.501 124.632,168.670 123.390,168.516 123.345 C 168.300 123.283,166.954 125.428,162.639 132.712 M220.920 126.044 C 215.075 127.551,210.271 128.806,210.243 128.834 C 210.178 128.899,219.476 152.119,219.646 152.314 C 219.756 152.441,242.641 142.820,242.984 142.502 C 243.119 142.377,231.942 123.398,231.700 123.341 C 231.616 123.321,226.765 124.538,220.920 126.044 M132.876 162.541 C 125.310 167.026,123.368 168.248,123.397 168.505 C 123.437 168.870,128.765 189.688,128.835 189.758 C 128.898 189.821,152.128 180.517,152.314 180.355 C 152.441 180.244,142.817 157.353,142.503 157.019 C 142.442 156.954,138.110 159.439,132.876 162.541 M257.165 157.683 C 251.244 171.461,247.568 180.252,247.686 180.355 C 247.884 180.527,271.104 189.819,271.171 189.752 C 271.342 189.581,276.698 168.273,276.595 168.174 C 276.506 168.089,259.178 157.807,257.650 156.932 C 257.578 156.891,257.360 157.229,257.165 157.683 M91.720 186.906 C 79.607 194.077,69.680 199.960,69.660 199.979 C 69.634 200.005,108.096 222.816,113.184 225.793 L 113.808 226.159 117.009 216.448 C 118.770 211.107,120.186 206.719,120.157 206.696 C 120.127 206.674,116.380 205.169,111.830 203.353 C 107.280 201.537,103.558 200.028,103.558 200.000 C 103.558 199.972,107.280 198.463,111.830 196.647 C 116.380 194.831,120.127 193.326,120.157 193.304 C 120.210 193.263,113.894 174.017,113.796 173.918 C 113.768 173.891,103.834 179.735,91.720 186.906 M282.990 183.550 C 281.230 188.892,279.814 193.282,279.844 193.304 C 279.873 193.326,283.620 194.831,288.170 196.647 C 292.720 198.463,296.442 199.972,296.442 200.000 C 296.442 200.028,292.720 201.537,288.170 203.353 C 283.620 205.169,279.873 206.674,279.844 206.696 C 279.785 206.741,286.157 226.147,286.230 226.147 C 286.310 226.147,330.126 200.223,330.271 200.090 C 330.371 199.998,287.155 174.238,286.313 173.888 C 286.246 173.860,284.750 178.208,282.990 183.550 M128.761 210.282 C 128.761 210.347,127.562 215.073,126.097 220.786 C 124.632 226.498,123.417 231.317,123.397 231.495 C 123.357 231.846,142.278 243.220,142.503 242.981 C 142.817 242.649,152.442 219.757,152.314 219.645 C 152.205 219.550,131.202 211.089,129.061 210.278 C 128.896 210.216,128.761 210.218,128.761 210.282 M259.369 214.896 C 252.982 217.466,247.708 219.616,247.648 219.676 C 247.549 219.775,257.239 242.706,257.497 242.983 C 257.589 243.083,276.194 232.215,276.595 231.828 C 276.665 231.760,275.488 226.903,273.980 221.034 C 272.472 215.165,271.239 210.326,271.239 210.282 C 271.239 210.126,270.886 210.263,259.369 214.896 M120.531 242.465 C 120.531 242.495,117.679 253.665,114.193 267.286 C 110.707 280.907,107.885 292.083,107.923 292.120 C 107.975 292.173,155.922 279.945,157.271 279.535 C 157.605 279.433,148.616 261.295,148.232 261.294 C 148.132 261.294,144.436 262.843,140.019 264.736 C 135.601 266.629,131.950 268.141,131.905 268.095 C 131.859 268.050,133.371 264.399,135.264 259.981 C 137.157 255.564,138.706 251.868,138.706 251.768 C 138.706 251.668,134.616 249.521,129.619 246.997 C 124.621 244.474,120.531 242.434,120.531 242.465 M270.337 247.018 C 265.364 249.528,261.294 251.665,261.294 251.766 C 261.294 251.867,262.843 255.564,264.736 259.981 C 266.629 264.399,268.141 268.050,268.095 268.095 C 268.050 268.141,264.399 266.629,259.981 264.736 C 255.564 262.843,251.868 261.294,251.768 261.294 C 251.384 261.295,242.395 279.433,242.729 279.533 C 244.621 280.098,292.049 292.149,292.116 292.081 C 292.206 291.992,279.705 243.066,279.489 242.659 C 279.416 242.521,276.436 243.940,270.337 247.018 M168.453 252.547 C 162.135 255.262,156.983 257.564,157.005 257.663 C 157.045 257.851,167.978 276.374,168.176 276.592 C 168.269 276.694,189.586 271.337,189.753 271.170 C 189.889 271.034,180.370 247.661,180.168 247.637 C 180.043 247.623,174.771 249.832,168.453 252.547 M219.447 248.041 C 219.350 248.295,217.228 253.590,214.731 259.808 C 212.234 266.026,210.213 271.136,210.241 271.164 C 210.407 271.330,231.735 276.691,231.832 276.591 C 232.218 276.192,243.083 257.590,242.984 257.498 C 242.835 257.360,219.921 247.578,219.748 247.578 C 219.679 247.578,219.544 247.786,219.447 248.041 M183.414 283.016 C 173.870 286.182,173.859 286.186,174.070 286.577 C 175.423 289.076,200.029 330.342,200.113 330.253 C 200.235 330.125,226.147 286.310,226.147 286.233 C 226.147 286.160,206.741 279.785,206.696 279.843 C 206.674 279.873,205.167 283.627,203.347 288.185 C 201.527 292.743,199.986 296.388,199.923 296.284 C 199.859 296.181,198.346 292.433,196.560 287.956 C 194.774 283.479,193.236 279.823,193.142 279.831 C 193.048 279.840,188.670 281.273,183.414 283.016 "
              stroke="none" fill="#f4ac1c" fill-rule="evenodd"></path>
    </g>
</svg>