<svg id="svg" xmlns="http://www.w3.org/2000/svg" xmlns:xlink="http://www.w3.org/1999/xlink" width="400"
     height="397.36299958796866" viewBox="0, 0, 400,397.36299958796866" version="1.1">
    <g id="svgg">
        <path id="path0"
              d="M196.504 0.260 C 195.132 0.558,193.036 1.567,191.750 2.550 C 189.748 4.079,4.105 189.963,3.262 191.282 C 0.389 195.779,0.389 201.554,3.262 206.052 C 4.110 207.379,189.775 393.280,191.750 394.779 C 196.462 398.356,203.538 398.356,208.250 394.779 C 210.225 393.280,395.890 207.379,396.738 206.052 C 399.611 201.554,399.611 195.779,396.738 191.282 C 395.895 189.963,210.252 4.079,208.250 2.550 C 205.293 0.291,200.592 -0.626,196.504 0.260 M202.190 7.258 C 202.582 7.397,203.243 7.730,203.660 7.999 C 205.486 9.180,390.746 194.837,391.258 196.000 C 391.985 197.650,391.961 199.780,391.198 201.417 C 390.422 203.078,204.586 389.017,202.966 389.752 C 200.904 390.689,199.004 390.683,197.011 389.734 C 195.700 389.110,9.615 203.091,8.940 201.730 C 7.985 199.805,7.982 197.674,8.933 195.677 C 9.600 194.275,195.605 8.268,197.008 7.601 C 198.675 6.807,200.559 6.683,202.190 7.258 M196.000 90.851 C 134.215 92.850,86.495 147.447,92.588 209.167 C 98.445 268.499,151.317 311.954,210.500 306.078 C 279.895 299.187,324.594 229.658,302.107 163.583 C 287.957 122.006,247.901 92.075,204.848 90.909 C 203.144 90.863,201.300 90.804,200.750 90.778 C 200.200 90.751,198.063 90.784,196.000 90.851 M205.934 117.669 C 243.345 120.613,273.639 148.050,279.998 184.750 C 288.736 235.182,249.507 280.800,198.271 279.785 C 148.587 278.801,111.619 233.915,120.002 184.750 C 126.967 143.897,164.720 114.426,205.934 117.669 M195.793 140.668 C 168.724 142.674,146.395 163.365,142.509 190.041 C 136.524 231.126,173.896 265.068,214.119 255.078 C 243.867 247.690,262.866 217.996,257.144 187.833 C 251.660 158.929,225.083 138.497,195.793 140.668 M206.461 166.904 C 230.727 172.047,240.590 200.675,224.659 219.722 C 213.826 232.673,194.108 234.818,180.453 224.531 C 167.267 214.599,163.698 195.806,172.327 181.750 C 179.392 170.243,193.423 164.140,206.461 166.904 "
              stroke="none" fill="#fbfbfb" fill-rule="evenodd"></path>
        <path id="path1"
              d="M198.674 7.006 C 196.576 7.444,203.023 1.101,102.729 101.395 C 21.256 182.868,9.318 194.868,8.933 195.677 C 7.982 197.674,7.985 199.805,8.940 201.730 C 9.615 203.091,195.700 389.110,197.011 389.734 C 199.004 390.683,200.904 390.689,202.966 389.752 C 204.586 389.017,390.422 203.078,391.198 201.417 C 391.961 199.780,391.985 197.650,391.258 196.000 C 390.746 194.837,205.486 9.180,203.660 7.999 C 202.213 7.064,200.260 6.675,198.674 7.006 M204.848 90.909 C 233.300 91.680,262.542 105.831,281.679 128.091 C 325.272 178.798,313.064 256.220,256.000 290.942 C 207.633 320.371,144.284 307.131,111.738 260.792 C 73.729 206.673,92.737 131.662,151.974 102.013 C 166.717 94.634,186.437 90.092,200.750 90.778 C 201.300 90.804,203.144 90.863,204.848 90.909 M193.750 117.687 C 146.111 121.332,111.939 165.304,120.002 212.583 C 126.962 253.400,164.329 282.661,205.688 279.681 C 253.738 276.220,288.215 232.175,279.998 184.750 C 272.864 143.581,235.459 114.496,193.750 117.687 M206.667 140.911 C 250.473 146.106,272.971 196.468,247.462 232.230 C 220.728 269.709,163.294 262.973,146.037 220.333 C 129.615 179.754,163.201 135.758,206.667 140.911 M195.833 166.505 C 175.570 169.303,162.890 189.513,169.238 208.893 C 175.420 227.763,197.166 236.555,215.000 227.395 C 235.767 216.728,238.458 187.494,219.993 173.134 C 213.341 167.961,203.950 165.384,195.833 166.505 "
              stroke="none" fill="#ac1c24" fill-rule="evenodd"></path>
    </g>
</svg>