<svg id="svg" version="1.1" xmlns="http://www.w3.org/2000/svg" xmlns:xlink="http://www.w3.org/1999/xlink" width="400"
     height="397.36299958796866" viewBox="0, 0, 400,397.36299958796866">
    <g id="svgg">
        <path id="path0"
              d="M196.548 0.333 C 194.886 0.769,193.591 1.314,192.415 2.074 C 191.403 2.728,6.674 187.187,4.414 189.801 C 0.060 194.836,0.060 202.497,4.414 207.532 C 7.964 211.639,191.792 394.958,193.079 395.676 C 198.161 398.509,204.616 397.927,208.866 394.253 C 211.936 391.598,395.974 207.246,396.715 206.083 C 399.957 200.995,399.505 194.335,395.613 189.832 C 393.337 187.200,208.606 2.733,207.585 2.074 C 204.630 0.165,199.984 -0.567,196.548 0.333 M202.190 7.258 C 202.582 7.397,203.243 7.730,203.660 7.999 C 205.486 9.180,390.746 194.837,391.258 196.000 C 391.985 197.650,391.961 199.780,391.198 201.417 C 390.422 203.078,204.586 389.017,202.966 389.752 C 200.904 390.689,199.004 390.683,197.011 389.734 C 195.556 389.042,9.551 203.035,8.917 201.639 C 8.002 199.623,8.008 197.621,8.935 195.672 C 9.600 194.275,195.610 8.266,197.008 7.601 C 198.675 6.807,200.559 6.683,202.190 7.258 M132.544 120.958 C 132.179 122.402,130.965 127.195,129.846 131.610 L 127.813 139.637 135.272 150.027 C 157.344 180.768,155.642 178.415,155.734 178.319 C 155.835 178.215,161.029 157.635,161.052 157.250 C 161.069 156.949,158.414 153.187,145.697 135.500 C 143.752 132.796,140.194 127.831,137.789 124.466 C 135.384 121.102,133.370 118.345,133.312 118.341 C 133.255 118.337,132.909 119.515,132.544 120.958 M251.556 120.581 C 246.125 121.203,240.754 122.564,234.000 125.031 C 230.232 126.408,226.089 127.343,221.500 127.851 C 220.537 127.958,216.241 128.091,211.952 128.148 C 203.537 128.258,203.842 128.221,203.836 129.130 C 203.822 131.242,205.573 143.585,208.667 163.167 C 213.971 196.742,214.342 200.033,213.204 203.333 C 211.542 208.149,207.720 214.611,196.842 231.000 C 195.351 233.246,193.951 235.440,193.730 235.875 L 193.328 236.667 190.596 236.667 L 187.865 236.667 185.879 233.875 C 183.801 230.953,174.127 217.424,147.415 180.083 C 138.628 167.800,128.386 153.475,124.655 148.250 C 116.466 136.783,115.902 136.025,115.196 135.553 C 112.901 134.020,109.724 136.064,110.056 138.861 C 110.176 139.876,110.077 139.719,114.391 145.750 C 116.227 148.317,124.893 160.429,133.647 172.667 C 142.402 184.904,152.162 198.554,155.337 203.000 C 158.512 207.446,165.289 216.924,170.396 224.062 C 175.503 231.200,179.660 237.060,179.633 237.083 C 179.606 237.107,178.683 237.214,177.583 237.322 C 169.486 238.115,161.218 239.928,155.385 242.192 L 153.686 242.851 147.996 241.676 C 141.134 240.258,141.808 240.274,140.639 241.502 C 136.765 245.573,134.108 253.182,133.720 261.316 L 133.620 263.417 135.190 264.917 C 147.576 276.750,164.641 285.188,182.349 288.236 C 188.002 289.208,198.329 289.863,201.207 289.432 L 201.953 289.320 202.052 288.285 C 202.173 287.012,202.945 283.988,203.217 283.720 C 203.959 282.989,220.569 282.605,229.688 283.107 C 233.439 283.314,234.152 283.872,237.878 289.515 C 239.624 292.159,239.260 291.984,242.025 291.507 C 254.917 289.282,276.569 281.185,280.456 277.135 C 283.090 274.390,279.433 243.237,272.301 207.667 L 271.115 201.750 271.825 199.750 C 279.317 178.636,283.202 163.433,284.669 149.500 C 285.698 139.725,284.978 129.712,282.945 125.500 L 282.583 124.750 280.250 124.041 C 275.440 122.580,270.070 121.392,265.333 120.740 C 262.627 120.367,254.266 120.271,251.556 120.581 M87.270 151.375 C 87.338 151.490,88.753 153.383,90.416 155.583 C 92.078 157.783,98.448 166.245,104.573 174.388 C 110.697 182.531,115.792 189.221,115.896 189.256 C 116.115 189.330,138.040 190.353,138.088 190.292 C 138.106 190.269,134.305 185.188,129.641 179.000 C 124.977 172.813,118.631 164.381,115.539 160.264 C 112.447 156.147,109.798 152.629,109.653 152.447 C 109.403 152.133,108.866 152.091,99.403 151.649 C 87.686 151.101,87.100 151.088,87.270 151.375 "
              stroke="none" fill="#fbfbfb" fill-rule="evenodd"></path>
        <path id="path1"
              d="M198.674 7.006 C 196.576 7.444,203.023 1.101,102.729 101.395 C 21.469 182.655,9.317 194.870,8.935 195.672 C 8.008 197.621,8.002 199.623,8.917 201.639 C 9.551 203.035,195.556 389.042,197.011 389.734 C 199.004 390.683,200.904 390.689,202.966 389.752 C 204.586 389.017,390.422 203.078,391.198 201.417 C 391.961 199.780,391.985 197.650,391.258 196.000 C 390.746 194.837,205.486 9.180,203.660 7.999 C 202.213 7.064,200.260 6.675,198.674 7.006 M137.789 124.466 C 140.194 127.831,143.752 132.796,145.697 135.500 C 158.414 153.187,161.069 156.949,161.052 157.250 C 161.029 157.635,155.835 178.215,155.734 178.319 C 155.642 178.415,157.344 180.768,135.272 150.027 L 127.813 139.637 129.846 131.610 C 130.965 127.195,132.179 122.402,132.544 120.958 C 132.909 119.515,133.255 118.337,133.312 118.341 C 133.370 118.345,135.384 121.102,137.789 124.466 M265.333 120.740 C 270.070 121.392,275.440 122.580,280.250 124.041 L 282.583 124.750 282.945 125.500 C 284.978 129.712,285.698 139.725,284.669 149.500 C 283.202 163.433,279.317 178.636,271.825 199.750 L 271.115 201.750 272.301 207.667 C 279.433 243.237,283.090 274.390,280.456 277.135 C 276.569 281.185,254.917 289.282,242.025 291.507 C 239.260 291.984,239.624 292.159,237.878 289.515 C 234.152 283.872,233.439 283.314,229.688 283.107 C 220.569 282.605,203.959 282.989,203.217 283.720 C 202.945 283.988,202.173 287.012,202.052 288.285 L 201.953 289.320 201.207 289.432 C 198.329 289.863,188.002 289.208,182.349 288.236 C 164.641 285.188,147.576 276.750,135.190 264.917 L 133.620 263.417 133.720 261.316 C 134.108 253.182,136.765 245.573,140.639 241.502 C 141.808 240.274,141.134 240.258,147.996 241.676 L 153.686 242.851 155.385 242.192 C 161.218 239.928,169.486 238.115,177.583 237.322 C 178.683 237.214,179.606 237.107,179.633 237.083 C 179.660 237.060,175.503 231.200,170.396 224.062 C 165.289 216.924,158.512 207.446,155.337 203.000 C 152.162 198.554,142.402 184.904,133.647 172.667 C 124.893 160.429,116.227 148.317,114.391 145.750 C 110.077 139.719,110.176 139.876,110.056 138.861 C 109.724 136.064,112.901 134.020,115.196 135.553 C 115.902 136.025,116.466 136.783,124.655 148.250 C 128.386 153.475,138.628 167.800,147.415 180.083 C 174.127 217.424,183.801 230.953,185.879 233.875 L 187.865 236.667 190.596 236.667 L 193.328 236.667 193.730 235.875 C 193.951 235.440,195.351 233.246,196.842 231.000 C 207.720 214.611,211.542 208.149,213.204 203.333 C 214.342 200.033,213.971 196.742,208.667 163.167 C 205.573 143.585,203.822 131.242,203.836 129.130 C 203.842 128.221,203.537 128.258,211.952 128.148 C 216.241 128.091,220.537 127.958,221.500 127.851 C 226.089 127.343,230.232 126.408,234.000 125.031 C 245.534 120.818,255.743 119.419,265.333 120.740 M99.403 151.649 C 108.866 152.091,109.403 152.133,109.653 152.447 C 109.798 152.629,112.447 156.147,115.539 160.264 C 118.631 164.381,124.977 172.813,129.641 179.000 C 134.305 185.188,138.106 190.269,138.088 190.292 C 138.040 190.353,116.115 189.330,115.896 189.256 C 115.792 189.221,110.697 182.531,104.573 174.388 C 98.448 166.245,92.078 157.783,90.416 155.583 C 88.753 153.383,87.338 151.490,87.270 151.375 C 87.100 151.088,87.686 151.101,99.403 151.649 "
              stroke="none" fill="#9c342c" fill-rule="evenodd"></path>
    </g>
</svg>