<svg id="svg" version="1.1" xmlns="http://www.w3.org/2000/svg" xmlns:xlink="http://www.w3.org/1999/xlink" width="400"
     height="397.36299958796866" viewBox="0, 0, 400,397.36299958796866">
    <g id="svgg">
        <path id="path0"
              d="M196.548 0.333 C 194.886 0.769,193.591 1.314,192.415 2.074 C 191.403 2.728,6.674 187.187,4.414 189.801 C 0.060 194.836,0.060 202.497,4.414 207.532 C 7.964 211.639,191.792 394.958,193.079 395.676 C 198.161 398.509,204.617 397.927,208.866 394.253 C 211.950 391.585,395.975 207.245,396.713 206.083 C 399.960 200.972,399.512 194.342,395.613 189.832 C 393.337 187.200,208.606 2.733,207.585 2.074 C 204.630 0.165,199.984 -0.567,196.548 0.333 M202.190 7.258 C 202.582 7.397,203.243 7.730,203.660 7.999 C 205.476 9.174,390.745 194.836,391.262 196.000 C 391.996 197.650,391.972 199.778,391.202 201.417 C 390.419 203.082,204.580 389.020,202.966 389.752 C 200.914 390.684,199.086 390.684,197.034 389.752 C 195.578 389.092,9.575 203.088,8.914 201.633 C 7.978 199.570,7.984 197.671,8.933 195.677 C 9.600 194.275,195.606 8.268,197.008 7.601 C 198.675 6.807,200.559 6.683,202.190 7.258 M197.990 93.176 C 188.971 93.644,177.964 95.993,167.305 99.725 C 146.821 106.897,135.331 118.861,133.186 135.253 C 132.390 141.335,130.634 146.144,121.499 167.250 C 112.526 187.983,110.809 193.037,108.932 204.250 C 106.264 220.186,107.703 238.148,112.432 247.961 C 113.941 251.091,117.146 252.404,134.458 256.988 C 149.068 260.857,151.834 261.606,157.917 263.338 C 174.839 268.157,181.696 269.863,189.000 271.072 C 206.145 273.911,221.900 271.649,239.827 263.775 L 241.903 262.863 242.660 263.246 C 249.371 266.637,260.174 270.100,267.867 271.327 C 274.289 272.352,283.077 272.429,285.954 271.486 C 289.089 270.459,291.586 260.907,292.346 247.039 C 292.916 236.637,292.393 225.708,290.585 210.250 C 289.057 197.178,288.500 190.678,288.500 185.906 L 288.500 184.348 287.881 184.232 C 286.360 183.947,278.025 184.344,273.417 184.922 C 261.712 186.388,249.530 190.937,241.500 196.840 C 240.629 197.480,239.824 198.048,239.711 198.102 C 239.593 198.158,238.500 197.249,237.128 195.953 C 229.901 189.125,225.798 186.634,219.779 185.421 C 206.861 182.817,187.326 187.033,176.605 194.738 C 175.883 195.257,175.266 195.655,175.234 195.623 C 175.202 195.591,175.094 194.818,174.995 193.907 C 174.626 190.513,173.702 186.590,171.734 180.060 C 169.090 171.288,168.631 169.706,168.093 167.516 C 165.989 158.946,166.654 151.413,170.498 140.275 C 172.829 133.519,173.366 133.370,182.948 136.812 C 191.358 139.833,194.293 140.514,198.883 140.509 C 202.182 140.505,203.985 140.273,210.667 138.994 C 216.234 137.928,217.328 137.797,221.534 137.687 L 225.485 137.583 226.147 136.936 C 231.296 131.906,229.988 107.458,224.200 100.567 C 220.248 95.861,210.396 92.659,201.000 93.028 C 200.679 93.040,199.325 93.107,197.990 93.176 "
              stroke="none" fill="#fbfbfb" fill-rule="evenodd"></path>
        <path id="path1"
              d="M198.674 7.006 C 196.575 7.444,203.026 1.098,102.729 101.395 C 21.261 182.863,9.318 194.868,8.933 195.677 C 7.984 197.671,7.978 199.570,8.914 201.633 C 9.575 203.088,195.578 389.092,197.034 389.752 C 199.086 390.684,200.914 390.684,202.966 389.752 C 204.580 389.020,390.419 203.082,391.202 201.417 C 391.972 199.778,391.996 197.650,391.262 196.000 C 390.745 194.836,205.476 9.174,203.660 7.999 C 202.213 7.064,200.260 6.675,198.674 7.006 M204.417 93.167 C 215.633 93.807,222.974 97.245,225.897 103.225 C 230.362 112.358,230.513 132.671,226.147 136.936 L 225.485 137.583 221.534 137.687 C 217.328 137.797,216.234 137.928,210.667 138.994 C 203.985 140.273,202.182 140.505,198.883 140.509 C 194.293 140.514,191.358 139.833,182.948 136.812 C 173.366 133.370,172.829 133.519,170.498 140.275 C 166.654 151.413,165.989 158.946,168.093 167.516 C 168.631 169.706,169.090 171.288,171.734 180.060 C 173.702 186.590,174.626 190.513,174.995 193.907 C 175.094 194.818,175.202 195.591,175.234 195.623 C 175.266 195.655,175.883 195.257,176.605 194.738 C 187.326 187.033,206.861 182.817,219.779 185.421 C 225.798 186.634,229.901 189.125,237.128 195.953 C 238.500 197.249,239.593 198.158,239.711 198.102 C 239.824 198.048,240.629 197.480,241.500 196.840 C 249.530 190.937,261.712 186.388,273.417 184.922 C 278.025 184.344,286.360 183.947,287.881 184.232 L 288.500 184.348 288.500 185.906 C 288.500 190.678,289.057 197.178,290.585 210.250 C 290.993 213.733,291.440 217.708,291.580 219.083 C 294.116 244.096,291.366 269.713,285.954 271.486 C 277.775 274.166,256.111 270.043,242.660 263.246 L 241.903 262.863 239.827 263.775 C 221.900 271.649,206.145 273.911,189.000 271.072 C 181.696 269.863,174.839 268.157,157.917 263.338 C 151.834 261.606,149.068 260.857,134.458 256.988 C 117.146 252.404,113.941 251.091,112.432 247.961 C 107.703 238.148,106.264 220.186,108.932 204.250 C 110.809 193.037,112.526 187.983,121.499 167.250 C 130.634 146.144,132.390 141.335,133.186 135.253 C 135.331 118.861,146.821 106.897,167.305 99.725 C 179.183 95.566,189.733 93.469,201.000 93.028 C 201.321 93.015,202.858 93.078,204.417 93.167 "
              stroke="none" fill="#4c94d4" fill-rule="evenodd"></path>
    </g>
</svg>