<svg id="svg" version="1.1" xmlns="http://www.w3.org/2000/svg" xmlns:xlink="http://www.w3.org/1999/xlink" width="400"
     height="397.36299958796866" viewBox="0, 0, 400,397.36299958796866">
    <g id="svgg">
        <path id="path0"
              d="M196.548 0.333 C 194.886 0.769,193.591 1.314,192.415 2.074 C 191.403 2.728,6.674 187.187,4.414 189.801 C 0.060 194.836,0.060 202.497,4.414 207.532 C 7.964 211.639,191.792 394.958,193.079 395.676 C 197.911 398.370,204.398 397.940,208.417 394.659 C 209.204 394.016,255.914 347.357,353.042 250.194 C 397.747 205.473,396.815 206.433,397.812 204.083 C 399.802 199.390,398.917 193.655,395.613 189.832 C 393.337 187.200,208.606 2.733,207.585 2.074 C 204.630 0.165,199.984 -0.567,196.548 0.333 M202.190 7.258 C 202.582 7.397,203.243 7.730,203.660 7.999 C 205.486 9.180,390.746 194.837,391.258 196.000 C 391.985 197.650,391.961 199.781,391.197 201.417 C 390.669 202.547,389.337 203.899,348.942 244.301 L 307.233 286.019 305.747 284.134 C 303.631 281.452,300.076 276.812,298.955 275.271 C 297.793 273.673,297.807 273.898,298.492 268.083 C 300.826 248.282,300.681 243.976,297.231 230.500 C 292.820 213.271,292.908 213.808,293.841 209.886 C 297.489 194.552,302.500 170.757,302.500 168.766 C 302.500 165.668,295.185 162.747,289.917 163.743 C 281.964 165.246,277.666 171.220,273.067 187.167 C 270.089 197.495,267.110 201.905,261.752 203.922 C 257.837 205.396,255.006 204.166,250.579 199.068 C 249.481 197.805,248.198 196.327,247.727 195.784 C 245.877 193.649,242.854 187.136,232.163 162.250 C 227.313 150.960,225.416 146.699,224.036 144.000 C 223.356 142.671,222.055 139.971,221.144 138.000 C 216.083 127.053,211.897 123.579,205.661 125.146 C 196.033 127.565,196.565 139.299,207.381 163.097 C 209.860 168.553,217.102 186.766,218.989 192.293 C 220.248 195.980,219.770 197.242,216.417 199.084 C 213.290 200.802,211.946 200.020,206.246 193.167 C 200.478 186.232,184.599 168.074,178.260 161.167 C 170.748 152.980,164.468 147.149,161.744 145.830 C 157.797 143.920,150.232 148.003,148.355 153.057 C 146.273 158.661,149.564 163.726,165.917 180.087 C 169.675 183.847,173.725 188.044,174.917 189.413 C 178.286 193.284,178.553 193.571,184.249 199.500 C 196.626 212.383,199.379 216.338,197.926 219.150 C 196.519 221.869,192.826 220.586,180.500 213.098 C 171.533 207.650,171.268 207.484,162.000 201.494 C 143.866 189.775,142.934 189.244,140.750 189.398 C 133.248 189.924,128.621 197.394,131.923 203.651 C 134.234 208.032,139.719 212.534,150.333 218.763 C 169.587 230.061,182.458 239.946,183.764 244.439 C 185.004 248.704,177.595 247.796,162.250 241.803 C 140.633 233.360,131.567 232.090,129.373 237.198 C 126.145 244.712,128.853 250.200,138.427 255.547 C 141.624 257.332,144.439 258.522,153.124 261.761 C 165.930 266.536,173.132 269.819,178.250 273.217 C 181.118 275.121,182.190 276.053,185.452 279.475 C 200.793 295.572,207.776 300.906,219.417 305.418 C 232.384 310.444,239.656 312.358,245.938 312.398 L 248.793 312.417 249.771 313.078 C 252.549 314.956,257.781 321.031,262.746 328.142 L 263.718 329.534 233.817 359.427 C 207.068 386.169,203.816 389.365,202.966 389.752 C 200.915 390.684,199.087 390.684,197.034 389.752 C 195.594 389.099,9.576 203.090,8.923 201.651 C 7.991 199.599,7.993 197.650,8.929 195.684 C 9.600 194.276,195.600 8.271,197.008 7.601 C 198.675 6.807,200.559 6.683,202.190 7.258 M215.423 84.217 C 214.993 84.873,214.992 85.279,215.378 97.269 C 215.766 109.313,215.782 109.500,216.433 109.500 C 216.728 109.500,217.051 108.852,217.472 107.417 C 217.660 106.775,219.131 101.815,220.740 96.395 C 223.622 86.690,223.921 85.419,223.424 85.006 C 223.256 84.867,216.640 83.861,215.712 83.834 C 215.691 83.834,215.561 84.006,215.423 84.217 M160.622 97.567 C 156.525 100.009,156.667 99.902,156.667 100.562 C 156.668 101.318,156.800 101.495,162.343 108.167 C 167.930 114.891,170.234 117.678,172.800 120.817 C 174.706 123.148,174.900 123.333,175.437 123.333 C 176.400 123.333,176.703 124.221,170.545 109.000 C 165.163 95.694,165.527 96.526,164.824 95.935 C 164.157 95.373,164.576 95.211,160.622 97.567 M263.292 102.792 C 262.274 103.859,262.337 103.495,258.478 130.500 C 254.394 159.079,254.486 158.267,255.280 158.572 C 256.146 158.904,256.298 158.606,259.739 149.833 C 261.268 145.938,264.873 136.787,267.750 129.500 C 275.575 109.685,275.802 109.094,276.003 107.985 C 276.456 105.486,276.743 105.679,269.878 103.852 C 263.345 102.113,263.860 102.196,263.292 102.792 M100.280 144.849 C 97.416 148.733,97.576 148.436,97.985 149.106 C 98.487 149.925,98.930 150.202,107.585 155.094 C 112.076 157.632,118.686 161.381,122.275 163.426 C 130.010 167.832,130.012 167.833,130.660 167.833 C 132.051 167.833,131.380 167.100,121.667 158.014 C 118.688 155.226,115.688 152.411,115.000 151.756 C 105.406 142.624,104.118 141.515,103.083 141.504 C 102.840 141.501,102.076 142.413,100.280 144.849 M85.885 212.456 C 85.623 212.634,84.117 217.797,84.236 218.108 C 84.426 218.601,85.795 218.891,97.953 221.012 C 110.183 223.145,111.159 223.282,111.289 222.886 C 111.403 222.538,110.721 222.228,100.140 217.814 C 86.056 211.940,86.436 212.082,85.885 212.456 M140.917 272.353 C 138.350 272.803,133.813 273.588,130.833 274.098 C 119.035 276.118,118.862 276.156,118.500 276.833 C 118.241 277.317,120.757 284.646,121.246 284.832 C 121.939 285.095,122.706 284.745,134.671 278.702 C 146.685 272.633,147.412 272.214,146.751 271.730 C 146.321 271.415,146.208 271.427,140.917 272.353 "
              stroke="none" fill="#fbfbfb" fill-rule="evenodd"></path>
        <path id="path1"
              d="M198.674 7.006 C 196.575 7.444,203.026 1.098,102.729 101.395 C 20.944 183.180,9.319 194.866,8.929 195.684 C 7.993 197.650,7.991 199.599,8.923 201.651 C 9.576 203.090,195.594 389.099,197.034 389.752 C 199.087 390.684,200.915 390.684,202.966 389.752 C 203.816 389.365,207.068 386.169,233.817 359.427 L 263.718 329.534 262.746 328.142 C 257.781 321.031,252.549 314.956,249.771 313.078 L 248.793 312.417 245.938 312.398 C 239.656 312.358,232.384 310.444,219.417 305.418 C 207.776 300.906,200.793 295.572,185.452 279.475 C 178.676 272.365,172.521 268.993,153.124 261.761 C 144.439 258.522,141.624 257.332,138.427 255.547 C 128.853 250.200,126.145 244.712,129.373 237.198 C 131.567 232.090,140.633 233.360,162.250 241.803 C 177.595 247.796,185.004 248.704,183.764 244.439 C 182.458 239.946,169.587 230.061,150.333 218.763 C 139.719 212.534,134.234 208.032,131.923 203.651 C 128.621 197.394,133.248 189.924,140.750 189.398 C 142.934 189.244,143.866 189.775,162.000 201.494 C 171.268 207.484,171.533 207.650,180.500 213.098 C 192.826 220.586,196.519 221.869,197.926 219.150 C 199.379 216.338,196.626 212.383,184.249 199.500 C 178.553 193.571,178.286 193.284,174.917 189.413 C 173.725 188.044,169.675 183.847,165.917 180.087 C 149.564 163.726,146.273 158.661,148.355 153.057 C 150.232 148.003,157.797 143.920,161.744 145.830 C 164.468 147.149,170.748 152.980,178.260 161.167 C 184.599 168.074,200.478 186.232,206.246 193.167 C 211.946 200.020,213.290 200.802,216.417 199.084 C 219.770 197.242,220.248 195.980,218.989 192.293 C 217.102 186.766,209.860 168.553,207.381 163.097 C 196.565 139.299,196.033 127.565,205.661 125.146 C 211.897 123.579,216.083 127.053,221.144 138.000 C 222.055 139.971,223.356 142.671,224.036 144.000 C 225.416 146.699,227.313 150.960,232.163 162.250 C 242.854 187.136,245.877 193.649,247.727 195.784 C 248.198 196.327,249.481 197.805,250.579 199.068 C 255.006 204.166,257.837 205.396,261.752 203.922 C 267.110 201.905,270.089 197.495,273.067 187.167 C 277.666 171.220,281.964 165.246,289.917 163.743 C 295.185 162.747,302.500 165.668,302.500 168.766 C 302.500 170.757,297.489 194.552,293.841 209.886 C 292.908 213.808,292.820 213.271,297.231 230.500 C 300.681 243.976,300.826 248.282,298.492 268.083 C 297.807 273.898,297.793 273.673,298.955 275.271 C 300.076 276.812,303.631 281.452,305.747 284.134 L 307.233 286.019 348.942 244.301 C 389.337 203.899,390.669 202.547,391.197 201.417 C 391.961 199.781,391.985 197.650,391.258 196.000 C 390.746 194.837,205.486 9.180,203.660 7.999 C 202.213 7.064,200.260 6.675,198.674 7.006 M219.466 84.320 C 221.510 84.587,223.291 84.896,223.424 85.006 C 223.921 85.419,223.622 86.690,220.740 96.395 C 219.131 101.815,217.660 106.775,217.472 107.417 C 216.886 109.415,216.513 109.868,215.981 109.227 C 215.745 108.942,214.901 86.168,215.087 85.092 C 215.157 84.682,215.581 83.831,215.712 83.834 C 215.733 83.835,217.422 84.054,219.466 84.320 M164.824 95.935 C 165.527 96.526,165.163 95.694,170.545 109.000 C 176.703 124.221,176.400 123.333,175.437 123.333 C 174.900 123.333,174.706 123.148,172.800 120.817 C 170.234 117.678,167.930 114.891,162.343 108.167 C 156.800 101.495,156.668 101.318,156.667 100.562 C 156.667 99.902,156.525 100.009,160.622 97.567 C 164.576 95.211,164.157 95.373,164.824 95.935 M269.878 103.852 C 276.743 105.679,276.456 105.486,276.003 107.985 C 275.802 109.094,275.575 109.685,267.750 129.500 C 264.873 136.787,261.268 145.938,259.739 149.833 C 256.298 158.606,256.146 158.904,255.280 158.572 C 254.486 158.267,254.394 159.079,258.478 130.500 C 262.337 103.495,262.274 103.859,263.292 102.792 C 263.860 102.196,263.345 102.113,269.878 103.852 M104.109 141.822 C 104.711 142.095,108.070 145.159,115.000 151.756 C 115.688 152.411,118.688 155.226,121.667 158.014 C 131.380 167.100,132.051 167.833,130.660 167.833 C 130.012 167.833,130.010 167.832,122.275 163.426 C 118.686 161.381,112.076 157.632,107.585 155.094 C 98.930 150.202,98.487 149.925,97.985 149.106 C 97.576 148.436,97.416 148.733,100.280 144.849 C 102.955 141.221,102.893 141.270,104.109 141.822 M88.529 212.990 C 92.688 214.660,110.602 222.195,110.942 222.418 C 111.437 222.742,111.378 223.065,110.811 223.133 C 110.225 223.203,85.632 218.893,84.919 218.595 C 84.067 218.239,84.067 218.132,84.915 215.229 C 85.882 211.920,85.875 211.925,88.529 212.990 M146.751 271.730 C 147.412 272.214,146.685 272.633,134.671 278.702 C 122.706 284.745,121.939 285.095,121.246 284.832 C 120.757 284.646,118.241 277.317,118.500 276.833 C 118.862 276.156,119.035 276.118,130.833 274.098 C 133.813 273.588,138.350 272.803,140.917 272.353 C 146.208 271.427,146.321 271.415,146.751 271.730 "
              stroke="none" fill="#6c7c7c" fill-rule="evenodd"></path>
    </g>
</svg>