<svg id="svg" version="1.1" xmlns="http://www.w3.org/2000/svg" xmlns:xlink="http://www.w3.org/1999/xlink" width="400"
     height="397.36299958796866" viewBox="0, 0, 400,397.36299958796866">
    <g id="svgg">
        <path id="path0"
              d="M196.548 0.333 C 194.886 0.769,193.591 1.314,192.415 2.074 C 191.403 2.728,6.674 187.187,4.414 189.801 C 0.060 194.836,0.060 202.497,4.414 207.532 C 7.964 211.639,191.792 394.958,193.079 395.676 C 198.161 398.509,204.616 397.927,208.866 394.253 C 211.936 391.598,395.974 207.246,396.715 206.083 C 399.957 200.995,399.505 194.335,395.613 189.832 C 393.337 187.200,208.606 2.733,207.585 2.074 C 204.630 0.165,199.984 -0.567,196.548 0.333 M202.190 7.258 C 202.582 7.397,203.243 7.730,203.660 7.999 C 205.476 9.174,390.745 194.836,391.262 196.000 C 391.996 197.650,391.972 199.778,391.202 201.417 C 390.419 203.082,204.580 389.020,202.966 389.752 C 200.914 390.684,199.086 390.684,197.034 389.752 C 195.722 389.157,9.644 203.149,8.940 201.730 C 7.921 199.677,7.986 197.278,9.111 195.377 C 10.069 193.757,195.742 8.203,197.008 7.601 C 198.675 6.807,200.559 6.683,202.190 7.258 M214.250 82.106 C 211.055 83.062,206.704 84.978,199.116 88.771 C 179.167 98.743,157.637 110.853,156.680 112.641 C 156.557 112.871,156.764 115.392,157.422 121.688 C 157.924 126.489,158.598 132.967,158.921 136.083 C 159.244 139.200,159.591 142.537,159.692 143.500 C 160.264 148.949,158.755 154.621,155.326 159.915 C 154.756 160.794,154.319 161.535,154.354 161.562 C 154.388 161.589,155.242 162.285,156.250 163.109 C 157.258 163.933,158.169 164.658,158.274 164.719 C 158.379 164.781,161.791 162.783,165.857 160.280 C 169.923 157.776,175.912 154.091,179.167 152.091 C 186.495 147.587,187.145 147.140,188.696 145.539 C 191.991 142.138,192.040 141.507,190.306 124.723 L 189.097 113.030 190.071 111.759 C 195.539 104.620,203.889 105.035,207.054 112.603 C 208.778 116.726,209.383 120.208,210.912 134.833 C 211.511 140.563,212.266 147.762,212.590 150.833 C 213.397 158.491,213.434 159.185,213.105 160.500 C 211.557 166.675,203.375 174.822,183.250 190.230 C 172.623 198.366,168.037 202.477,166.819 204.958 L 166.471 205.665 167.410 214.708 C 167.927 219.681,168.608 226.225,168.924 229.250 C 169.239 232.275,169.688 236.588,169.922 238.833 C 170.777 247.067,172.430 249.510,180.992 255.195 C 186.581 258.907,186.582 258.907,191.667 255.548 C 195.093 253.284,210.690 242.125,213.113 240.204 L 213.476 239.917 213.164 237.023 C 212.992 235.431,212.829 234.110,212.801 234.086 C 212.773 234.062,211.937 233.958,210.943 233.855 C 205.482 233.291,201.213 227.436,199.929 218.750 C 199.504 215.881,198.825 208.941,198.957 208.829 C 199.117 208.692,204.850 204.084,209.417 200.421 C 224.490 188.331,239.303 172.646,243.661 164.161 C 245.459 160.662,245.918 158.284,245.519 154.549 C 245.414 153.559,244.615 145.850,243.744 137.417 C 240.480 105.800,240.821 108.529,239.824 106.027 C 237.079 99.136,225.878 86.261,219.803 83.013 C 217.623 81.848,215.999 81.582,214.250 82.106 M196.077 271.573 C 191.734 273.060,174.915 281.591,174.271 282.633 C 174.165 282.804,175.912 299.463,176.254 301.544 C 177.052 306.403,178.819 310.009,181.908 313.085 C 185.427 316.589,186.335 316.431,198.564 310.199 C 206.694 306.056,209.281 304.446,209.210 303.572 C 208.841 299.014,207.074 283.272,206.817 282.250 C 206.110 279.438,204.373 276.671,201.590 273.929 C 199.019 271.394,197.942 270.934,196.077 271.573 "
              stroke="none" fill="#fbfbfb" fill-rule="evenodd"></path>
        <path id="path1"
              d="M198.674 7.006 C 196.576 7.444,203.006 1.120,102.890 101.213 C 30.184 173.903,9.568 194.604,9.111 195.377 C 7.986 197.278,7.921 199.677,8.940 201.730 C 9.644 203.149,195.722 389.157,197.034 389.752 C 199.086 390.684,200.914 390.684,202.966 389.752 C 204.580 389.020,390.419 203.082,391.202 201.417 C 391.972 199.778,391.996 197.650,391.262 196.000 C 390.745 194.836,205.476 9.174,203.660 7.999 C 202.213 7.064,200.260 6.675,198.674 7.006 M217.678 82.097 C 224.409 84.059,238.549 100.224,240.578 108.277 C 240.829 109.274,241.018 111.015,243.744 137.417 C 244.615 145.850,245.414 153.559,245.519 154.549 C 245.918 158.284,245.459 160.662,243.661 164.161 C 239.303 172.646,224.490 188.331,209.417 200.421 C 204.850 204.084,199.117 208.692,198.957 208.829 C 198.825 208.941,199.504 215.881,199.929 218.750 C 201.213 227.436,205.482 233.291,210.943 233.855 C 211.937 233.958,212.773 234.062,212.801 234.086 C 212.829 234.110,212.992 235.431,213.164 237.023 L 213.476 239.917 213.113 240.204 C 210.690 242.125,195.093 253.284,191.667 255.548 C 186.582 258.907,186.581 258.907,180.992 255.195 C 172.430 249.510,170.777 247.067,169.922 238.833 C 169.688 236.588,169.239 232.275,168.924 229.250 C 168.608 226.225,167.927 219.681,167.410 214.708 L 166.471 205.665 166.819 204.958 C 168.037 202.477,172.623 198.366,183.250 190.230 C 203.375 174.822,211.557 166.675,213.105 160.500 C 213.434 159.185,213.397 158.491,212.590 150.833 C 212.266 147.762,211.511 140.563,210.912 134.833 C 209.383 120.208,208.778 116.726,207.054 112.603 C 203.889 105.035,195.539 104.620,190.071 111.759 L 189.097 113.030 190.306 124.723 C 192.392 144.914,192.909 143.645,179.167 152.091 C 175.912 154.091,169.923 157.776,165.857 160.280 C 161.791 162.783,158.379 164.781,158.274 164.719 C 158.169 164.658,157.258 163.933,156.250 163.109 C 155.242 162.285,154.388 161.589,154.354 161.562 C 154.319 161.535,154.756 160.794,155.326 159.915 C 158.755 154.621,160.264 148.949,159.692 143.500 C 159.591 142.537,159.244 139.200,158.921 136.083 C 158.598 132.967,157.924 126.489,157.422 121.688 C 156.764 115.392,156.557 112.871,156.680 112.641 C 158.066 110.051,201.657 86.588,212.000 82.865 C 215.093 81.752,216.049 81.622,217.678 82.097 M199.153 271.890 C 202.198 273.666,205.926 278.706,206.817 282.250 C 207.074 283.272,208.841 299.014,209.210 303.572 C 209.339 305.157,189.196 315.500,185.983 315.500 C 183.011 315.500,178.527 310.089,176.928 304.574 C 176.280 302.339,173.955 283.143,174.271 282.633 C 174.915 281.591,191.734 273.060,196.077 271.573 C 197.449 271.103,197.880 271.147,199.153 271.890 "
              stroke="none" fill="#745c44" fill-rule="evenodd"></path>
    </g>
</svg>