<svg id="svg" version="1.1" xmlns="http://www.w3.org/2000/svg" xmlns:xlink="http://www.w3.org/1999/xlink" width="400"
     height="397.36299958796866" viewBox="0, 0, 400,397.36299958796866">
    <g id="svgg">
        <path id="path0"
              d="M196.548 0.333 C 194.886 0.769,193.591 1.314,192.415 2.074 C 191.403 2.728,6.674 187.187,4.414 189.801 C 0.060 194.836,0.060 202.497,4.414 207.532 C 7.964 211.639,191.792 394.958,193.079 395.676 C 198.161 398.509,204.616 397.927,208.866 394.253 C 211.936 391.598,395.974 207.246,396.715 206.083 C 399.957 200.995,399.505 194.335,395.613 189.832 C 393.337 187.200,208.606 2.733,207.585 2.074 C 204.630 0.165,199.984 -0.567,196.548 0.333 M202.190 7.258 C 202.582 7.397,203.243 7.730,203.660 7.999 C 205.476 9.174,390.745 194.836,391.262 196.000 C 391.996 197.650,391.972 199.778,391.202 201.417 C 390.419 203.082,204.580 389.020,202.966 389.752 C 200.904 390.689,199.004 390.683,197.011 389.734 C 195.700 389.110,9.615 203.091,8.940 201.730 C 7.985 199.805,7.982 197.674,8.933 195.677 C 9.600 194.275,195.606 8.268,197.008 7.601 C 198.675 6.807,200.559 6.683,202.190 7.258 M192.500 73.415 C 189.090 74.218,184.468 76.089,182.429 77.492 C 178.927 79.901,179.852 85.409,183.958 86.602 C 185.441 87.034,186.488 86.843,188.685 85.741 C 191.005 84.577,192.617 83.981,194.750 83.496 C 198.479 82.648,199.921 81.160,199.913 78.167 C 199.902 74.312,196.891 72.382,192.500 73.415 M212.711 76.801 C 208.408 78.523,208.186 83.638,212.299 86.284 C 214.561 87.739,215.601 88.590,217.667 90.676 C 220.688 93.727,223.249 94.090,225.734 91.819 C 229.066 88.774,227.385 84.579,220.870 79.681 C 216.872 76.676,214.826 75.954,212.711 76.801 M171.066 92.060 C 168.610 92.864,167.488 94.801,166.419 100.083 C 164.866 107.745,165.963 111.329,170.062 111.997 C 173.561 112.566,175.842 110.247,176.050 105.908 C 176.157 103.681,176.604 101.229,177.245 99.346 C 178.790 94.810,175.285 90.677,171.066 92.060 M227.450 101.907 C 225.105 102.744,224.204 104.240,223.984 107.660 C 223.811 110.360,223.482 112.203,222.795 114.327 C 220.977 119.948,226.102 124.312,230.541 120.923 C 233.110 118.962,235.294 108.100,233.813 104.657 C 232.830 102.370,229.810 101.066,227.450 101.907 M176.034 120.806 C 173.064 121.866,171.750 125.074,173.108 127.951 C 174.267 130.408,181.371 136.302,184.144 137.108 C 187.358 138.043,190.586 135.515,190.561 132.083 C 190.544 129.884,189.655 128.662,186.743 126.833 C 185.753 126.212,184.553 125.202,183.016 123.697 C 179.836 120.583,178.365 119.974,176.034 120.806 M211.381 127.983 C 208.933 129.188,207.539 129.699,204.954 130.338 C 201.321 131.236,199.868 132.874,200.029 135.888 C 200.323 141.397,206.044 142.071,215.083 137.662 C 218.559 135.966,219.518 134.838,219.640 132.302 C 219.853 127.859,215.868 125.775,211.381 127.983 M192.738 154.169 C 190.037 154.554,189.068 155.789,187.824 160.429 C 186.634 164.870,186.817 166.238,188.840 168.058 C 191.729 170.656,196.120 169.217,197.245 165.305 L 197.516 164.359 198.784 164.305 C 199.482 164.275,200.614 164.287,201.302 164.333 L 202.551 164.417 202.825 165.421 C 204.099 170.087,210.262 170.752,212.438 166.458 C 213.174 165.006,213.147 164.178,212.248 160.667 C 211.162 156.419,210.369 155.141,208.366 154.404 C 207.523 154.094,194.628 153.901,192.738 154.169 M185.289 181.339 C 183.779 181.716,182.332 182.861,181.781 184.114 C 181.059 185.754,178.444 196.238,178.442 197.500 C 178.435 201.884,183.548 204.140,186.962 201.258 C 187.849 200.509,188.261 199.579,189.068 196.500 C 189.488 194.896,190.207 192.158,190.665 190.417 C 191.836 185.964,191.762 184.717,190.227 183.009 C 188.974 181.616,186.937 180.927,185.289 181.339 M212.524 181.338 C 210.360 181.787,208.653 183.779,208.529 186.000 C 208.471 187.046,210.937 197.245,211.773 199.417 C 213.791 204.658,222.213 202.673,221.617 197.096 C 221.462 195.647,218.503 184.648,218.034 183.779 C 217.056 181.966,214.646 180.898,212.524 181.338 M175.887 214.773 C 173.659 215.563,173.175 216.524,171.243 223.998 C 169.472 230.852,169.441 231.109,170.171 232.807 C 171.833 236.670,177.818 236.711,179.467 232.871 C 180.156 231.268,182.833 220.616,182.833 219.481 C 182.833 216.026,179.235 213.587,175.887 214.773 M220.082 214.974 C 218.380 215.779,217.340 217.296,217.205 219.170 C 217.124 220.309,219.706 230.940,220.534 232.871 C 222.641 237.789,230.283 236.052,230.231 230.667 C 230.218 229.292,227.499 218.472,226.845 217.189 C 225.655 214.857,222.508 213.826,220.082 214.974 M167.237 247.999 C 164.953 248.906,164.567 249.653,162.633 256.925 C 160.861 263.585,160.741 264.549,161.488 266.070 C 163.361 269.885,168.963 269.990,170.742 266.244 C 171.488 264.674,174.191 253.647,174.117 252.476 C 173.899 249.034,170.388 246.749,167.237 247.999 M229.382 247.908 C 227.362 248.539,225.833 250.647,225.833 252.800 C 225.833 253.712,228.846 265.378,229.323 266.313 C 231.795 271.159,239.483 268.922,238.949 263.512 C 238.822 262.224,235.920 251.293,235.461 250.374 C 234.424 248.298,231.687 247.188,229.382 247.908 M159.391 281.000 C 156.815 281.536,155.931 282.726,154.746 287.257 C 153.623 291.545,153.829 293.270,155.653 294.872 C 156.966 296.025,162.807 298.101,164.304 297.946 C 169.447 297.416,170.824 290.622,166.272 288.239 L 165.374 287.769 165.459 286.412 C 165.671 283.013,162.652 280.321,159.391 281.000 M238.366 281.088 C 235.406 281.902,234.032 284.471,234.717 287.917 C 234.847 288.571,234.838 288.588,234.216 288.870 C 229.275 291.109,230.970 298.583,236.419 298.583 C 239.132 298.583,244.484 295.453,245.522 293.260 C 246.616 290.947,244.962 283.721,242.980 282.151 C 241.609 281.065,239.891 280.669,238.366 281.088 M180.500 292.323 C 175.978 293.703,175.370 299.878,179.557 301.907 C 180.708 302.465,188.372 303.683,190.917 303.713 C 195.743 303.769,197.943 298.027,194.338 294.785 C 193.278 293.833,192.531 293.591,189.583 293.246 C 188.300 293.096,186.142 292.791,184.789 292.570 C 182.271 292.158,181.236 292.098,180.500 292.323 M216.500 293.417 C 215.629 293.541,213.754 293.726,212.333 293.827 C 206.083 294.271,204.120 295.688,204.369 299.574 C 204.627 303.588,206.925 304.682,213.833 304.076 C 221.902 303.368,223.749 302.296,223.743 298.328 C 223.738 294.672,220.949 292.780,216.500 293.417 "
              stroke="none" fill="#fbfbfb" fill-rule="evenodd"></path>
        <path id="path1"
              d="M198.674 7.006 C 196.575 7.444,203.026 1.098,102.729 101.395 C 21.261 182.863,9.318 194.868,8.933 195.677 C 7.982 197.674,7.985 199.805,8.940 201.730 C 9.615 203.091,195.700 389.110,197.011 389.734 C 199.004 390.683,200.904 390.689,202.966 389.752 C 204.580 389.020,390.419 203.082,391.202 201.417 C 391.972 199.778,391.996 197.650,391.262 196.000 C 390.745 194.836,205.476 9.174,203.660 7.999 C 202.213 7.064,200.260 6.675,198.674 7.006 M196.911 73.480 C 200.193 74.932,201.020 79.368,198.469 81.844 C 197.632 82.656,196.781 83.034,194.750 83.496 C 192.617 83.981,191.005 84.577,188.685 85.741 C 186.488 86.843,185.441 87.034,183.958 86.602 C 179.852 85.409,178.927 79.901,182.429 77.492 C 186.673 74.572,194.486 72.407,196.911 73.480 M216.125 76.735 C 218.997 77.749,225.876 83.596,226.946 85.935 C 228.509 89.347,226.028 93.167,222.250 93.167 C 220.408 93.167,219.813 92.843,217.667 90.676 C 215.601 88.590,214.561 87.739,212.299 86.284 C 209.410 84.425,208.593 81.832,210.039 79.118 C 211.159 77.017,213.891 75.947,216.125 76.735 M174.678 92.284 C 177.289 93.439,178.305 96.234,177.245 99.346 C 176.604 101.229,176.157 103.681,176.050 105.908 C 175.842 110.247,173.561 112.566,170.062 111.997 C 165.455 111.247,164.457 105.602,167.322 96.500 C 168.557 92.575,171.510 90.883,174.678 92.284 M230.893 101.934 C 234.215 103.066,235.026 106.647,233.573 113.768 C 232.327 119.870,230.706 122.000,227.309 122.000 C 223.529 122.000,221.454 118.473,222.795 114.327 C 223.482 112.203,223.811 110.360,223.984 107.660 C 224.139 105.247,224.240 104.854,224.986 103.770 C 226.221 101.975,228.726 101.196,230.893 101.934 M179.917 121.048 C 180.419 121.307,181.651 122.360,183.016 123.697 C 184.553 125.202,185.753 126.212,186.743 126.833 C 189.655 128.662,190.544 129.884,190.561 132.083 C 190.586 135.515,187.358 138.043,184.144 137.108 C 181.371 136.302,174.267 130.408,173.108 127.951 C 171.017 123.521,175.637 118.837,179.917 121.048 M216.750 127.480 C 220.012 129.044,220.704 133.255,218.121 135.823 C 216.100 137.833,207.881 140.799,204.775 140.640 C 199.825 140.387,198.170 133.791,202.401 131.176 C 202.708 130.987,203.857 130.609,204.954 130.338 C 207.539 129.699,208.933 129.188,211.381 127.983 C 213.862 126.762,215.026 126.653,216.750 127.480 M208.366 154.404 C 210.369 155.141,211.162 156.419,212.248 160.667 C 213.147 164.178,213.174 165.006,212.438 166.458 C 210.262 170.752,204.099 170.087,202.825 165.421 L 202.551 164.417 201.302 164.333 C 200.614 164.287,199.482 164.275,198.784 164.305 L 197.516 164.359 197.245 165.305 C 196.120 169.217,191.729 170.656,188.840 168.058 C 186.817 166.238,186.634 164.870,187.824 160.429 C 189.068 155.789,190.037 154.554,192.738 154.169 C 194.628 153.901,207.523 154.094,208.366 154.404 M188.617 181.762 C 191.533 183.179,192.023 185.251,190.665 190.417 C 190.207 192.158,189.488 194.896,189.068 196.500 C 188.261 199.579,187.849 200.509,186.962 201.258 C 183.548 204.140,178.435 201.884,178.442 197.500 C 178.444 196.238,181.059 185.754,181.781 184.114 C 182.862 181.657,186.104 180.542,188.617 181.762 M215.638 181.674 C 217.824 182.640,218.107 183.208,219.997 190.417 C 221.729 197.024,221.820 197.555,221.436 198.873 C 220.115 203.419,213.458 203.793,211.773 199.417 C 210.937 197.245,208.471 187.046,208.529 186.000 C 208.724 182.506,212.425 180.254,215.638 181.674 M179.833 214.928 C 181.699 215.794,182.833 217.514,182.833 219.481 C 182.833 220.616,180.156 231.268,179.467 232.871 C 177.461 237.544,170.246 236.234,169.716 231.101 C 169.606 230.035,172.589 218.212,173.260 217.058 C 174.577 214.790,177.496 213.844,179.833 214.928 M224.053 214.765 C 224.989 215.084,226.392 216.302,226.845 217.189 C 227.499 218.472,230.218 229.292,230.231 230.667 C 230.283 236.052,222.641 237.789,220.534 232.871 C 219.706 230.940,217.124 220.309,217.205 219.170 C 217.446 215.817,220.802 213.658,224.053 214.765 M171.192 248.123 C 172.856 248.861,173.996 250.557,174.117 252.476 C 174.191 253.647,171.488 264.674,170.742 266.244 C 168.496 270.972,161.088 269.250,161.084 264.000 C 161.083 262.466,163.872 251.670,164.628 250.281 C 165.862 248.013,168.780 247.054,171.192 248.123 M232.727 248.006 C 233.857 248.428,234.971 249.394,235.461 250.374 C 235.920 251.293,238.822 262.224,238.949 263.512 C 239.483 268.922,231.795 271.159,229.323 266.313 C 228.846 265.378,225.833 253.712,225.833 252.800 C 225.833 249.259,229.416 246.767,232.727 248.006 M162.203 281.266 C 164.243 281.933,165.604 284.084,165.459 286.412 L 165.374 287.769 166.272 288.239 C 170.824 290.622,169.447 297.416,164.304 297.946 C 162.807 298.101,156.966 296.025,155.653 294.872 C 153.829 293.270,153.623 291.545,154.746 287.257 C 155.608 283.960,155.886 283.291,156.756 282.422 C 158.208 280.970,160.080 280.573,162.203 281.266 M241.638 281.346 C 243.602 282.199,244.208 283.180,245.246 287.184 C 246.817 293.244,246.091 294.563,239.419 297.781 C 237.291 298.807,235.741 298.906,234.136 298.118 C 230.338 296.253,230.387 290.605,234.216 288.870 C 234.838 288.588,234.847 288.571,234.717 287.917 C 233.763 283.115,237.514 279.555,241.638 281.346 M184.789 292.570 C 186.142 292.791,188.300 293.096,189.583 293.246 C 192.531 293.591,193.278 293.833,194.338 294.785 C 197.943 298.027,195.743 303.769,190.917 303.713 C 188.372 303.683,180.708 302.465,179.557 301.907 C 175.871 300.121,175.787 294.669,179.417 292.794 C 180.861 292.048,181.451 292.023,184.789 292.570 M220.757 293.687 C 224.688 295.535,224.805 300.966,220.955 302.936 C 219.058 303.906,209.424 304.674,207.618 303.999 C 203.603 302.497,203.166 296.931,206.891 294.758 C 207.722 294.273,208.906 294.071,212.333 293.827 C 213.754 293.726,215.629 293.541,216.500 293.417 C 218.389 293.146,219.796 293.236,220.757 293.687 "
              stroke="none" fill="#141414" fill-rule="evenodd"></path>
    </g>
</svg>