<svg id="svg" version="1.1" xmlns="http://www.w3.org/2000/svg" xmlns:xlink="http://www.w3.org/1999/xlink" width="400"
     height="397.36299958796866" viewBox="0, 0, 400,397.36299958796866">
    <g id="svgg">
        <path id="path0"
              d="M196.548 0.333 C 194.886 0.769,193.591 1.314,192.415 2.074 C 191.403 2.728,6.674 187.187,4.414 189.801 C 0.060 194.836,0.060 202.497,4.414 207.532 C 7.964 211.639,191.792 394.958,193.079 395.676 C 198.161 398.509,204.616 397.927,208.866 394.253 C 211.936 391.598,395.974 207.246,396.715 206.083 C 399.957 200.995,399.505 194.335,395.613 189.832 C 393.337 187.200,208.606 2.733,207.585 2.074 C 204.630 0.165,199.984 -0.567,196.548 0.333 M202.190 7.258 C 202.582 7.397,203.243 7.730,203.660 7.999 C 205.486 9.180,390.746 194.837,391.258 196.000 C 391.985 197.650,391.961 199.780,391.198 201.417 C 390.422 203.078,204.586 389.017,202.966 389.752 C 200.904 390.689,199.004 390.683,197.011 389.734 C 195.567 389.047,9.552 203.037,8.923 201.651 C 7.991 199.599,7.993 197.650,8.929 195.684 C 9.600 194.276,195.600 8.271,197.008 7.601 C 198.675 6.807,200.559 6.683,202.190 7.258 M195.083 117.445 C 134.791 119.467,101.686 137.018,90.611 172.833 C 80.636 205.094,85.609 231.989,104.349 247.123 C 112.512 253.716,126.631 257.725,147.319 259.326 C 148.549 259.421,149.583 259.527,149.617 259.562 C 149.652 259.596,149.492 260.740,149.262 262.104 C 147.586 272.027,147.571 280.263,149.222 283.400 C 155.026 294.426,246.086 295.319,258.410 284.471 C 261.159 282.051,261.444 274.277,259.232 262.030 C 258.995 260.717,258.834 259.611,258.873 259.571 C 258.913 259.531,259.951 259.421,261.181 259.326 C 279.694 257.895,294.519 254.070,301.833 248.839 C 322.611 233.978,328.406 205.125,317.384 171.417 C 306.108 136.931,273.132 119.608,214.750 117.499 C 210.777 117.356,198.739 117.323,195.083 117.445 M129.200 167.162 C 129.744 167.366,130.519 167.849,131.010 168.291 C 131.767 168.971,147.556 186.533,148.145 187.350 C 148.504 187.847,148.408 187.940,153.191 182.458 C 166.763 166.903,165.826 167.892,167.671 167.165 C 172.255 165.358,177.083 168.648,177.083 173.578 C 177.083 176.836,177.015 176.924,169.083 183.835 C 166.425 186.151,162.435 189.629,160.216 191.565 C 157.997 193.500,156.197 195.169,156.216 195.275 C 156.235 195.380,158.725 197.662,161.750 200.346 C 177.750 214.545,176.750 213.440,176.750 216.920 C 176.750 221.338,172.963 224.476,168.811 223.499 C 166.720 223.006,166.717 223.004,160.108 215.601 C 150.012 204.292,148.750 202.885,148.641 202.818 C 148.581 202.780,145.738 205.975,142.324 209.917 C 130.653 223.391,131.350 222.658,129.574 223.322 C 124.138 225.356,118.530 220.485,120.075 215.069 C 120.672 212.976,120.453 213.187,136.542 199.195 C 138.994 197.063,140.995 195.265,140.990 195.201 C 140.984 195.136,138.715 193.084,135.948 190.640 C 120.796 177.258,121.766 178.164,121.057 176.729 C 118.308 171.167,123.525 165.039,129.200 167.162 M232.167 167.150 C 233.434 167.625,233.940 168.083,237.220 171.727 C 242.044 177.087,250.732 186.845,251.056 187.268 C 251.505 187.854,251.335 188.008,255.441 183.301 C 269.720 166.937,268.943 167.755,270.840 167.078 C 276.578 165.030,282.153 171.069,279.539 176.500 C 278.864 177.903,278.804 177.960,268.167 187.251 C 263.262 191.535,259.250 195.136,259.250 195.255 C 259.250 195.373,262.700 198.538,266.917 202.288 C 279.477 213.459,279.040 213.022,279.604 214.963 C 280.878 219.347,277.723 223.568,273.167 223.575 C 270.180 223.579,270.298 223.676,262.266 214.675 C 252.499 203.731,251.679 202.827,251.545 202.852 C 251.474 202.865,247.866 206.973,243.527 211.980 C 234.270 222.662,234.536 222.377,233.242 223.015 C 228.385 225.412,222.917 222.138,222.917 216.833 C 222.917 213.430,221.803 214.596,240.875 198.028 C 242.594 196.535,243.995 195.262,243.990 195.198 C 243.984 195.135,241.386 192.796,238.216 190.000 C 223.708 177.205,224.336 177.818,223.656 175.804 C 221.833 170.412,226.958 165.200,232.167 167.150 M203.721 217.004 C 208.619 217.713,209.962 220.762,213.150 238.417 C 215.587 251.909,215.041 253.232,208.333 250.090 C 201.446 246.864,197.450 246.516,191.001 248.583 C 187.239 249.789,186.214 249.459,185.658 246.867 C 184.809 242.908,189.545 229.110,194.135 222.167 C 196.533 218.539,198.080 217.306,200.583 217.026 C 202.427 216.820,202.444 216.820,203.721 217.004 "
              stroke="none" fill="#fbfbfb" fill-rule="evenodd"></path>
        <path id="path1"
              d="M198.674 7.006 C 196.575 7.444,203.026 1.098,102.729 101.395 C 20.944 183.180,9.319 194.866,8.929 195.684 C 7.993 197.650,7.991 199.599,8.923 201.651 C 9.552 203.037,195.567 389.047,197.011 389.734 C 199.004 390.683,200.904 390.689,202.966 389.752 C 204.586 389.017,390.422 203.078,391.198 201.417 C 391.961 199.780,391.985 197.650,391.258 196.000 C 390.746 194.837,205.486 9.180,203.660 7.999 C 202.213 7.064,200.260 6.675,198.674 7.006 M214.750 117.499 C 273.132 119.608,306.108 136.931,317.384 171.417 C 328.406 205.125,322.611 233.978,301.833 248.839 C 294.519 254.070,279.694 257.895,261.181 259.326 C 259.951 259.421,258.913 259.531,258.873 259.571 C 258.834 259.611,258.995 260.717,259.232 262.030 C 261.444 274.277,261.159 282.051,258.410 284.471 C 247.097 294.429,163.765 294.794,150.495 284.944 C 147.637 282.822,147.183 274.416,149.262 262.104 C 149.492 260.740,149.652 259.596,149.617 259.562 C 149.583 259.527,148.549 259.421,147.319 259.326 C 126.631 257.725,112.512 253.716,104.349 247.123 C 85.609 231.989,80.636 205.094,90.611 172.833 C 101.686 137.018,134.791 119.467,195.083 117.445 C 198.739 117.323,210.777 117.356,214.750 117.499 M125.436 166.842 C 121.277 167.885,119.107 172.785,121.057 176.729 C 121.766 178.164,120.796 177.258,135.948 190.640 C 138.715 193.084,140.984 195.136,140.990 195.201 C 140.995 195.265,138.994 197.063,136.542 199.195 C 120.453 213.187,120.672 212.976,120.075 215.069 C 118.530 220.485,124.138 225.356,129.574 223.322 C 131.350 222.658,130.653 223.391,142.324 209.917 C 145.738 205.975,148.581 202.780,148.641 202.818 C 148.750 202.885,150.012 204.292,160.108 215.601 C 166.717 223.004,166.720 223.006,168.811 223.499 C 172.963 224.476,176.750 221.338,176.750 216.920 C 176.750 213.440,177.750 214.545,161.750 200.346 C 158.725 197.662,156.235 195.380,156.216 195.275 C 156.197 195.169,157.997 193.500,160.216 191.565 C 162.435 189.629,166.425 186.151,169.083 183.835 C 177.015 176.924,177.083 176.836,177.083 173.578 C 177.083 167.915,170.962 164.763,166.149 167.948 C 165.772 168.197,163.725 170.392,161.600 172.826 C 159.474 175.259,155.690 179.594,153.191 182.458 C 148.408 187.940,148.504 187.847,148.145 187.350 C 147.556 186.533,131.767 168.971,131.010 168.291 C 129.605 167.028,127.193 166.401,125.436 166.842 M228.436 166.842 C 224.665 167.788,222.389 172.055,223.656 175.804 C 224.336 177.818,223.708 177.205,238.216 190.000 C 241.386 192.796,243.984 195.135,243.990 195.198 C 243.995 195.262,242.594 196.535,240.875 198.028 C 221.803 214.596,222.917 213.430,222.917 216.833 C 222.917 222.138,228.385 225.412,233.242 223.015 C 234.536 222.377,234.270 222.662,243.527 211.980 C 247.866 206.973,251.474 202.865,251.545 202.852 C 251.679 202.827,252.499 203.731,262.266 214.675 C 270.298 223.676,270.180 223.579,273.167 223.575 C 277.723 223.568,280.878 219.347,279.604 214.963 C 279.040 213.022,279.477 213.459,266.917 202.288 C 262.700 198.538,259.250 195.373,259.250 195.255 C 259.250 195.136,263.262 191.535,268.167 187.251 C 278.804 177.960,278.864 177.903,279.539 176.500 C 282.153 171.069,276.578 165.030,270.840 167.078 C 268.943 167.755,269.720 166.937,255.441 183.301 C 251.335 188.008,251.505 187.854,251.056 187.268 C 250.732 186.845,242.044 177.087,237.220 171.727 C 232.941 166.973,231.378 166.103,228.436 166.842 M200.583 217.026 C 198.080 217.306,196.533 218.539,194.135 222.167 C 189.545 229.110,184.809 242.908,185.658 246.867 C 186.214 249.459,187.239 249.789,191.001 248.583 C 197.450 246.516,201.446 246.864,208.333 250.090 C 215.041 253.232,215.587 251.909,213.150 238.417 C 209.962 220.762,208.619 217.713,203.721 217.004 C 202.444 216.820,202.427 216.820,200.583 217.026 "
              stroke="none" fill="#7c836c" fill-rule="evenodd"></path>
    </g>
</svg>