<svg id="svg" version="1.1" xmlns="http://www.w3.org/2000/svg" xmlns:xlink="http://www.w3.org/1999/xlink" width="400"
     height="400" viewBox="0, 0, 400,400">
    <g id="svgg">
        <path id="path0"
              d="M190.484 0.109 C 122.385 3.889,62.964 39.472,28.217 97.281 C 4.761 136.303,-4.575 183.086,1.970 228.804 C 14.478 316.183,83.817 385.522,171.196 398.030 C 189.766 400.689,210.234 400.689,228.804 398.030 C 316.182 385.522,385.522 316.182,398.030 228.804 C 400.689 210.234,400.689 189.766,398.030 171.196 C 386.318 89.383,324.613 22.763,243.841 4.725 C 234.246 2.583,225.540 1.300,214.574 0.413 C 211.349 0.153,193.713 -0.070,190.484 0.109 M212.345 11.818 C 219.529 12.369,225.163 13.023,230.947 13.978 C 315.124 27.878,379.849 97.348,387.730 182.255 C 388.325 188.669,388.427 191.254,388.427 200.000 C 388.427 208.746,388.325 211.331,387.730 217.745 C 379.390 307.601,307.601 379.390,217.745 387.730 C 211.331 388.325,208.746 388.427,200.000 388.427 C 191.254 388.427,188.669 388.325,182.255 387.730 C 92.395 379.390,20.610 307.605,12.270 217.745 C 11.675 211.331,11.573 208.746,11.573 200.000 C 11.573 189.567,11.835 185.032,12.957 176.082 C 24.144 86.812,98.314 17.217,187.998 11.837 C 189.696 11.735,191.509 11.624,192.027 11.591 C 193.999 11.463,210.052 11.643,212.345 11.818 M298.665 85.692 C 298.338 85.862,297.039 86.599,295.778 87.330 C 277.733 97.789,257.822 104.440,231.302 108.868 C 225.452 109.844,220.621 110.553,207.887 112.302 C 188.286 114.995,180.782 116.265,171.325 118.493 C 147.091 124.202,128.967 133.826,113.449 149.223 C 78.306 184.094,73.714 223.540,101.002 256.156 C 107.058 263.396,116.325 271.239,118.823 271.239 C 121.298 271.239,122.444 269.864,122.945 266.291 C 126.887 238.194,147.320 212.452,180.698 193.531 C 203.950 180.350,214.429 173.997,228.547 164.522 C 244.543 153.786,255.578 145.223,270.925 131.635 C 274.261 128.681,273.962 128.834,273.781 130.176 C 272.468 139.897,263.523 151.404,245.349 166.750 C 239.147 171.987,232.583 177.173,218.345 188.083 C 181.060 216.654,166.441 229.803,154.966 245.092 C 144.414 259.151,138.604 277.931,137.487 301.586 C 136.835 315.386,139.014 335.864,141.546 339.728 C 143.058 342.035,154.649 339.984,159.972 336.468 C 164.386 333.552,165.059 330.962,163.133 324.303 C 159.837 312.911,157.936 303.530,157.228 295.156 C 157.003 292.489,156.996 285.695,157.219 285.557 C 157.311 285.500,160.571 286.645,164.463 288.101 C 189.624 297.513,204.701 299.546,222.375 295.908 C 248.251 290.583,276.538 269.535,290.440 245.264 C 306.189 217.766,312.926 175.799,309.293 127.818 C 308.240 113.906,305.245 93.035,303.547 87.773 C 302.911 85.805,300.458 84.759,298.665 85.692 "
              stroke="none" fill="#fbfbfb" fill-rule="evenodd"></path>
        <path id="path1"
              d="M192.027 11.591 C 191.509 11.624,189.696 11.735,187.998 11.837 C 98.314 17.217,24.144 86.812,12.957 176.082 C 11.835 185.032,11.573 189.567,11.573 200.000 C 11.573 208.746,11.675 211.331,12.270 217.745 C 20.610 307.605,92.395 379.390,182.255 387.730 C 188.669 388.325,191.254 388.427,200.000 388.427 C 208.746 388.427,211.331 388.325,217.745 387.730 C 307.601 379.390,379.390 307.601,387.730 217.745 C 388.325 211.331,388.427 208.746,388.427 200.000 C 388.427 136.086,356.976 77.670,303.600 42.447 C 276.307 24.437,246.516 14.437,212.345 11.818 C 210.052 11.643,193.999 11.463,192.027 11.591 M301.532 85.565 C 303.365 86.255,303.863 87.822,305.777 98.928 C 315.436 154.967,309.451 212.072,290.440 245.264 C 276.538 269.535,248.251 290.583,222.375 295.908 C 204.701 299.546,189.624 297.513,164.463 288.101 C 160.571 286.645,157.311 285.500,157.219 285.557 C 156.996 285.695,157.003 292.489,157.228 295.156 C 157.936 303.530,159.837 312.911,163.133 324.303 C 165.059 330.962,164.386 333.552,159.972 336.468 C 154.649 339.984,143.058 342.035,141.546 339.728 C 139.014 335.864,136.835 315.386,137.487 301.586 C 138.604 277.931,144.414 259.151,154.966 245.092 C 166.441 229.803,181.060 216.654,218.345 188.083 C 232.583 177.173,239.147 171.987,245.349 166.750 C 263.523 151.404,272.468 139.897,273.781 130.176 C 273.962 128.834,274.261 128.681,270.925 131.635 C 255.578 145.223,244.543 153.786,228.547 164.522 C 214.429 173.997,203.950 180.350,180.698 193.531 C 147.320 212.452,126.887 238.194,122.945 266.291 C 122.444 269.864,121.298 271.239,118.823 271.239 C 116.325 271.239,107.058 263.396,101.002 256.156 C 73.714 223.540,78.306 184.094,113.449 149.223 C 128.967 133.826,147.091 124.202,171.325 118.493 C 180.782 116.265,188.286 114.995,207.887 112.302 C 220.621 110.553,225.452 109.844,231.302 108.868 C 257.822 104.440,277.733 97.789,295.778 87.330 C 297.039 86.599,298.338 85.862,298.665 85.692 C 299.331 85.346,300.779 85.282,301.532 85.565 "
              stroke="none" fill="#8ca43c" fill-rule="evenodd"></path>
    </g>
</svg>