<svg id="svg" xmlns="http://www.w3.org/2000/svg" xmlns:xlink="http://www.w3.org/1999/xlink" width="400" height="400"
     viewBox="0, 0, 400,400">
    <g id="svgg">
        <path id="path0"
              d="M170.737 3.629 C 11.924 26.606,-54.398 222.311,57.470 337.860 C 171.880 456.036,373.765 390.692,396.436 228.148 C 414.790 96.555,302.249 -15.397,170.737 3.629 M228.771 25.130 C 370.766 48.136,426.920 223.106,325.013 325.013 C 238.977 411.049,95.425 387.519,41.245 278.500 C -22.736 149.757,86.556 2.089,228.771 25.130 M250.020 111.754 C 243.993 123.439,226.940 138.103,212.342 144.154 L 207.000 146.368 207.000 161.588 L 207.000 176.808 212.250 174.818 C 221.051 171.483,232.119 165.316,239.750 159.495 L 247.000 153.964 247.000 212.482 L 247.000 271.000 263.500 271.000 L 280.000 271.000 280.000 188.000 L 280.000 105.000 266.750 105.004 L 253.500 105.007 250.020 111.754 M107.000 154.500 L 107.000 176.000 85.500 176.000 L 64.000 176.000 64.000 190.500 L 64.000 205.000 85.500 205.000 L 107.000 205.000 107.000 226.500 L 107.000 248.000 122.000 248.000 L 137.000 248.000 137.000 226.500 L 137.000 205.000 158.500 205.000 L 180.000 205.000 180.000 190.500 L 180.000 176.000 158.500 176.000 L 137.000 176.000 137.000 154.500 L 137.000 133.000 122.000 133.000 L 107.000 133.000 107.000 154.500 "
              stroke="none" fill="#000000" fill-rule="evenodd"></path>
    </g>
</svg>