<svg id="svg" xmlns="http://www.w3.org/2000/svg" xmlns:xlink="http://www.w3.org/1999/xlink" width="400"
     height="468.68292682926824" viewBox="0, 0, 400,468.68292682926824">
    <g id="svgg">
        <path id="path0"
              d="M208.780 1.220 C 201.113 2.821,184.720 8.772,169.645 15.427 L 162.732 18.479 162.706 23.386 C 162.691 26.085,162.456 38.741,162.183 51.512 C 161.910 64.283,161.746 74.805,161.818 74.893 C 161.955 75.062,214.815 66.329,231.363 63.403 C 240.552 61.779,240.916 61.680,242.164 60.470 C 245.464 57.273,248.507 48.337,251.105 34.218 C 252.628 25.942,253.109 27.233,245.658 19.581 C 229.615 3.107,220.788 -1.288,208.780 1.220 M97.951 5.670 C 92.572 7.158,81.961 13.631,71.396 21.868 C 56.920 33.155,33.166 54.341,33.175 55.958 C 33.182 57.152,44.014 131.168,44.210 131.365 C 44.301 131.456,47.695 128.321,51.751 124.399 C 73.011 103.843,87.856 91.338,95.415 87.619 C 100.922 84.909,112.002 82.252,125.902 80.308 L 132.291 79.415 132.289 77.854 C 132.288 76.995,131.588 62.683,130.733 46.049 C 129.878 29.415,129.177 15.415,129.175 14.939 C 129.168 13.371,121.601 9.175,114.401 6.745 C 109.392 5.056,101.932 4.568,97.951 5.670 M285.612 42.337 C 283.977 42.648,281.792 43.217,280.757 43.601 L 278.875 44.300 276.440 51.711 C 256.607 112.064,241.548 172.752,244.845 179.044 C 249.886 188.667,293.228 198.766,299.969 191.888 C 302.171 189.641,322.971 119.790,330.730 88.585 C 335.676 68.692,336.738 60.866,334.945 57.515 C 329.737 47.779,301.948 39.229,285.612 42.337 M220.878 85.056 C 217.000 85.761,211.238 87.194,194.146 91.704 C 180.517 95.301,174.411 96.349,149.659 99.344 C 111.248 103.992,107.460 105.218,93.391 117.567 C 57.773 148.830,-1.361 215.354,0.190 222.417 C 0.978 226.002,16.699 250.822,46.428 295.415 L 62.689 319.805 63.381 325.854 C 66.691 354.776,73.240 375.774,80.928 382.111 C 84.264 384.861,86.764 385.003,94.087 382.859 C 143.246 368.470,175.102 335.535,187.871 285.902 C 194.087 261.736,181.472 230.985,151.315 196.792 L 147.453 192.413 151.358 187.775 L 155.263 183.137 160.851 182.861 C 184.843 181.680,213.927 172.296,223.164 162.757 C 239.607 145.777,251.257 98.230,241.392 88.365 C 237.519 84.492,230.349 83.336,220.878 85.056 M359.805 97.042 C 357.405 97.282,351.346 98.747,350.733 99.235 C 349.357 100.332,330.876 155.181,325.131 175.220 C 319.511 194.822,318.541 201.225,320.861 203.392 C 333.435 215.138,361.992 216.404,372.719 205.691 C 380.147 198.273,399.105 147.843,399.882 133.434 C 400.530 121.406,392.511 103.469,384.976 100.094 C 379.429 97.609,367.997 96.223,359.805 97.042 M201.449 196.733 C 198.064 197.709,197.984 200.324,201.089 208.390 C 221.308 260.908,213.441 318.347,180.355 359.790 C 161.672 383.192,131.421 399.950,102.043 403.173 C 97.927 403.624,97.563 403.730,97.584 404.466 C 97.596 404.907,100.629 419.493,104.322 436.878 L 111.037 468.488 168.208 468.587 L 225.379 468.686 230.386 439.733 C 235.920 407.726,235.577 409.282,237.356 408.197 C 241.229 405.835,243.079 408.074,247.027 419.902 C 251.171 432.318,254.162 448.211,255.032 462.439 C 255.157 464.478,255.346 466.717,255.452 467.415 L 255.645 468.683 294.304 468.683 L 332.963 468.683 332.748 467.805 C 332.395 466.365,329.849 449.521,328.811 441.756 C 322.668 395.808,321.611 365.385,325.704 352.285 C 330.407 337.228,349.410 309.944,375.369 280.976 C 376.234 280.010,376.951 279.044,376.962 278.829 C 376.975 278.564,359.135 234.454,358.470 233.108 C 358.422 233.011,203.093 196.288,202.901 196.328 C 202.808 196.347,202.154 196.530,201.449 196.733 "
              stroke="none" fill="#000000" fill-rule="evenodd"></path>
    </g>
</svg>