<svg id="svg" version="1.1" xmlns="http://www.w3.org/2000/svg" xmlns:xlink="http://www.w3.org/1999/xlink" width="400"
     height="400" viewBox="0, 0, 400,400">
    <g id="svgg">
        <path id="path0"
              d="M190.484 0.109 C 122.385 3.889,62.964 39.472,28.217 97.281 C 4.762 136.302,-4.575 183.088,1.970 228.804 C 14.478 316.182,83.818 385.522,171.196 398.030 C 189.766 400.689,210.234 400.689,228.804 398.030 C 316.182 385.522,385.522 316.182,398.030 228.804 C 400.689 210.234,400.689 189.766,398.030 171.196 C 386.318 89.383,324.613 22.763,243.841 4.725 C 234.246 2.583,225.540 1.300,214.574 0.413 C 211.349 0.153,193.713 -0.070,190.484 0.109 M212.345 11.818 C 219.529 12.369,225.163 13.023,230.947 13.978 C 315.124 27.878,379.849 97.348,387.730 182.255 C 388.325 188.669,388.427 191.254,388.427 200.000 C 388.427 208.746,388.325 211.331,387.730 217.745 C 379.390 307.601,307.601 379.390,217.745 387.730 C 211.331 388.325,208.746 388.427,200.000 388.427 C 191.254 388.427,188.669 388.325,182.255 387.730 C 92.395 379.390,20.610 307.605,12.270 217.745 C 11.675 211.331,11.573 208.746,11.573 200.000 C 11.573 189.567,11.835 185.032,12.957 176.082 C 24.144 86.812,98.314 17.217,187.998 11.837 C 189.696 11.735,191.509 11.624,192.027 11.591 C 193.999 11.463,210.052 11.643,212.345 11.818 M160.994 87.460 C 101.312 90.816,54.628 140.210,54.628 200.000 C 54.628 274.534,125.150 328.151,197.461 308.592 L 200.065 307.888 202.261 308.506 C 278.478 329.943,352.705 267.606,344.872 188.740 C 337.973 119.289,269.485 72.587,202.261 91.494 L 200.065 92.112 197.461 91.408 C 185.099 88.064,173.185 86.774,160.994 87.460 M172.482 96.021 C 237.936 99.470,284.080 161.623,268.307 225.093 C 255.750 275.625,207.261 309.368,155.675 303.471 C 96.178 296.671,54.689 241.518,64.642 182.460 C 73.351 130.787,120.163 93.264,172.482 96.021 M237.891 96.016 C 305.107 99.566,351.323 164.420,332.700 229.061 C 319.531 274.774,275.777 306.242,228.486 304.013 C 223.099 303.759,214.486 302.803,214.488 302.459 C 214.489 302.403,216.051 301.571,217.960 300.611 C 221.734 298.712,224.971 296.863,228.386 294.655 L 230.574 293.240 233.633 293.130 C 290.502 291.092,333.131 239.052,323.263 183.712 C 315.689 141.239,277.430 108.439,233.633 106.870 L 230.574 106.760 228.386 105.345 C 224.971 103.137,221.734 101.288,217.960 99.389 C 216.051 98.429,214.489 97.597,214.488 97.541 C 214.488 97.486,215.626 97.273,217.017 97.069 C 224.394 95.986,231.007 95.653,237.891 96.016 "
              stroke="none" fill="#fbfbfb" fill-rule="evenodd"></path>
        <path id="path1"
              d="M192.027 11.591 C 191.509 11.624,189.696 11.735,187.998 11.837 C 98.314 17.217,24.144 86.812,12.957 176.082 C 11.835 185.032,11.573 189.567,11.573 200.000 C 11.573 208.746,11.675 211.331,12.270 217.745 C 20.610 307.605,92.395 379.390,182.255 387.730 C 188.669 388.325,191.254 388.427,200.000 388.427 C 208.746 388.427,211.331 388.325,217.745 387.730 C 307.601 379.390,379.390 307.601,387.730 217.745 C 388.325 211.331,388.427 208.746,388.427 200.000 C 388.427 136.086,356.976 77.670,303.600 42.447 C 276.307 24.437,246.516 14.437,212.345 11.818 C 210.052 11.643,193.999 11.463,192.027 11.591 M172.996 87.445 C 181.759 87.929,188.839 89.076,197.461 91.408 L 200.065 92.112 202.261 91.494 C 277.323 70.382,350.992 130.711,345.125 208.487 C 339.786 279.265,270.575 327.720,202.261 308.506 L 200.065 307.888 197.461 308.592 C 119.452 329.692,45.409 265.645,55.469 185.769 C 62.801 127.555,114.600 84.219,172.996 87.445 M161.680 96.026 C 102.131 99.205,57.052 152.403,63.796 211.540 C 70.319 268.740,121.954 309.959,178.944 303.459 C 226.092 298.081,263.797 261.387,270.367 214.488 C 279.438 149.728,226.970 92.541,161.680 96.026 M227.004 96.036 C 222.871 96.258,214.487 97.266,214.488 97.541 C 214.489 97.597,216.051 98.429,217.960 99.389 C 221.734 101.288,224.971 103.137,228.386 105.345 L 230.574 106.760 233.633 106.870 C 290.498 108.908,333.130 160.952,323.263 216.288 C 315.688 258.767,277.437 291.560,233.633 293.130 L 230.574 293.240 228.386 294.655 C 224.971 296.863,221.734 298.712,217.960 300.611 C 216.051 301.571,214.489 302.403,214.488 302.459 C 214.486 302.803,223.099 303.759,228.486 304.013 C 280.225 306.452,326.711 268.839,335.358 217.540 C 346.468 151.635,293.689 92.451,227.004 96.036 "
              stroke="none" fill="#1c2c34" fill-rule="evenodd"></path>
    </g>
</svg>