<svg id="svg" version="1.1" xmlns="http://www.w3.org/2000/svg" xmlns:xlink="http://www.w3.org/1999/xlink" width="400"
     height="397.36299958796866" viewBox="0, 0, 400,397.36299958796866">
    <g id="svgg">
        <path id="path0"
              d="M196.548 0.333 C 194.886 0.769,193.591 1.314,192.415 2.074 C 191.403 2.728,6.674 187.187,4.414 189.801 C 0.060 194.836,0.060 202.497,4.414 207.532 C 7.964 211.639,191.792 394.958,193.079 395.676 C 198.161 398.509,204.616 397.927,208.866 394.253 C 211.936 391.598,395.974 207.246,396.715 206.083 C 399.957 200.995,399.505 194.335,395.613 189.832 C 393.337 187.200,208.606 2.733,207.585 2.074 C 204.630 0.165,199.984 -0.567,196.548 0.333 M202.190 7.258 C 202.582 7.397,203.243 7.730,203.660 7.999 C 205.486 9.180,390.746 194.837,391.258 196.000 C 391.985 197.650,391.961 199.780,391.198 201.417 C 390.422 203.078,204.586 389.017,202.966 389.752 C 200.904 390.689,199.004 390.683,197.011 389.734 C 195.567 389.047,9.552 203.037,8.923 201.651 C 7.991 199.599,7.993 197.650,8.929 195.684 C 9.599 194.276,195.599 8.271,197.008 7.601 C 198.675 6.807,200.559 6.683,202.190 7.258 M197.106 83.022 C 189.869 83.952,183.934 88.870,181.676 95.808 L 181.207 97.250 178.275 97.866 C 116.727 110.802,81.354 176.776,104.688 235.113 C 106.050 238.518,106.009 237.982,105.003 239.247 C 93.478 253.730,107.456 273.792,125.365 268.469 L 125.979 268.287 128.448 270.625 C 152.097 293.023,182.870 302.905,214.417 298.231 C 236.040 295.027,256.105 284.835,271.691 269.138 L 274.465 266.344 276.107 266.785 C 285.121 269.206,295.114 263.728,298.155 254.700 C 300.114 248.887,298.937 242.033,295.187 237.415 C 294.763 236.893,294.275 236.292,294.103 236.080 C 293.790 235.696,293.795 235.677,294.797 232.972 C 316.371 174.763,281.041 110.584,220.428 97.875 L 217.446 97.250 216.897 95.612 C 214.088 87.228,205.735 81.914,197.106 83.022 M182.878 109.896 C 189.672 123.249,208.928 123.281,215.761 109.950 C 216.193 109.107,216.566 108.394,216.589 108.365 C 216.801 108.105,226.072 110.600,229.667 111.885 C 276.341 128.566,301.235 179.604,285.487 226.331 C 284.088 230.482,284.118 230.422,283.473 230.383 C 281.076 230.236,278.430 230.312,277.115 230.565 C 264.259 233.042,257.906 247.780,264.948 258.788 L 265.552 259.732 262.733 262.491 C 228.611 295.881,174.236 297.052,138.767 265.161 C 137.566 264.081,136.185 262.790,135.699 262.292 L 134.815 261.387 135.731 259.652 C 142.991 245.900,131.284 229.802,116.061 232.603 L 115.539 232.699 114.698 230.558 C 95.995 182.925,120.789 128.938,169.234 111.808 C 172.660 110.597,180.611 108.426,181.917 108.345 C 182.008 108.339,182.441 109.037,182.878 109.896 M194.667 139.607 C 148.004 143.890,124.954 197.588,154.150 233.997 C 182.564 269.431,239.481 259.392,254.297 216.333 C 267.124 179.056,239.586 140.014,200.167 139.589 C 197.554 139.561,195.079 139.569,194.667 139.607 M192.927 153.003 C 192.222 154.204,188.851 160.039,185.435 165.969 C 165.448 200.665,156.394 216.251,156.235 216.238 C 155.823 216.204,153.902 210.318,153.246 207.081 C 147.760 179.987,166.314 154.148,193.667 150.788 C 193.896 150.760,194.112 150.755,194.146 150.778 C 194.180 150.801,193.632 151.802,192.927 153.003 M207.103 151.088 C 233.527 155.627,250.743 180.792,245.418 207.095 C 244.740 210.441,242.850 216.185,242.417 216.214 C 242.248 216.225,240.630 213.464,229.834 194.750 C 219.566 176.951,214.609 168.364,209.535 159.583 C 206.833 154.908,204.591 151.027,204.552 150.958 C 204.438 150.759,205.503 150.813,207.103 151.088 M235.328 227.840 C 223.037 243.358,199.669 248.879,180.667 240.753 C 174.475 238.105,166.151 231.891,163.194 227.708 L 162.811 227.167 199.336 227.167 L 235.861 227.167 235.328 227.840 "
              stroke="none" fill="#fbfbfb" fill-rule="evenodd"></path>
        <path id="path1"
              d="M198.674 7.006 C 196.576 7.444,203.023 1.101,102.729 101.395 C 20.938 183.185,9.319 194.866,8.929 195.684 C 7.993 197.650,7.991 199.599,8.923 201.651 C 9.552 203.037,195.567 389.047,197.011 389.734 C 199.004 390.683,200.904 390.689,202.966 389.752 C 204.586 389.017,390.422 203.078,391.198 201.417 C 391.961 199.780,391.985 197.650,391.258 196.000 C 390.746 194.837,205.486 9.180,203.660 7.999 C 202.213 7.064,200.260 6.675,198.674 7.006 M201.338 83.009 C 208.706 83.924,214.574 88.677,216.897 95.612 L 217.446 97.250 220.428 97.875 C 281.041 110.584,316.371 174.763,294.797 232.972 C 293.795 235.677,293.790 235.696,294.103 236.080 C 294.275 236.292,294.763 236.893,295.187 237.415 C 298.937 242.033,300.114 248.887,298.155 254.700 C 295.114 263.728,285.121 269.206,276.107 266.785 L 274.465 266.344 271.691 269.138 C 239.854 301.202,191.144 308.550,151.283 287.303 C 143.099 282.941,135.899 277.682,128.448 270.625 L 125.979 268.287 125.365 268.469 C 107.456 273.792,93.478 253.730,105.003 239.247 C 106.009 237.982,106.050 238.518,104.688 235.113 C 95.866 213.056,95.142 188.122,102.668 165.500 C 114.109 131.109,142.977 105.285,178.275 97.866 L 181.207 97.250 181.676 95.808 C 184.418 87.384,192.773 81.945,201.338 83.009 M179.250 108.929 C 125.111 121.346,94.479 179.063,114.698 230.558 L 115.539 232.699 116.061 232.603 C 131.284 229.802,142.991 245.900,135.731 259.652 L 134.815 261.387 135.699 262.292 C 136.185 262.790,137.566 264.081,138.767 265.161 C 174.236 297.052,228.611 295.881,262.733 262.491 L 265.552 259.732 264.948 258.788 C 257.906 247.780,264.259 233.042,277.115 230.565 C 278.430 230.312,281.076 230.236,283.473 230.383 C 284.118 230.422,284.088 230.482,285.487 226.331 C 301.235 179.604,276.341 128.566,229.667 111.885 C 226.072 110.600,216.801 108.105,216.589 108.365 C 216.566 108.394,216.193 109.107,215.761 109.950 C 208.928 123.281,189.672 123.249,182.878 109.896 C 182.441 109.037,182.008 108.339,181.917 108.345 C 181.825 108.351,180.625 108.613,179.250 108.929 M206.824 139.910 C 252.212 146.331,273.154 199.423,244.125 234.476 C 216.571 267.747,163.453 260.353,146.121 220.833 C 130.127 184.367,154.686 143.276,194.667 139.607 C 196.503 139.438,204.984 139.650,206.824 139.910 M193.667 150.788 C 166.314 154.148,147.760 179.987,153.246 207.081 C 153.902 210.318,155.823 216.204,156.235 216.238 C 156.394 216.251,165.448 200.665,185.435 165.969 C 188.851 160.039,192.222 154.204,192.927 153.003 C 193.632 151.802,194.180 150.801,194.146 150.778 C 194.112 150.755,193.896 150.760,193.667 150.788 M204.552 150.958 C 204.591 151.027,206.833 154.908,209.535 159.583 C 214.609 168.364,219.566 176.951,229.834 194.750 C 240.630 213.464,242.248 216.225,242.417 216.214 C 242.850 216.185,244.740 210.441,245.418 207.095 C 250.743 180.792,233.527 155.627,207.103 151.088 C 205.503 150.813,204.438 150.759,204.552 150.958 M163.194 227.708 C 166.151 231.891,174.475 238.105,180.667 240.753 C 199.669 248.879,223.037 243.358,235.328 227.840 L 235.861 227.167 199.336 227.167 L 162.811 227.167 163.194 227.708 "
              stroke="none" fill="#d4a42c" fill-rule="evenodd"></path>
    </g>
</svg>