<svg id="svg" xmlns="http://www.w3.org/2000/svg" xmlns:xlink="http://www.w3.org/1999/xlink" width="400" height="400"
     viewBox="0, 0, 400,400">
    <g id="svgg">
        <path id="path0"
              d="M170.737 3.629 C 11.924 26.606,-54.398 222.311,57.470 337.860 C 171.880 456.036,373.765 390.692,396.436 228.148 C 414.790 96.555,302.249 -15.397,170.737 3.629 M228.771 25.130 C 370.766 48.136,426.920 223.106,325.013 325.013 C 238.977 411.049,95.425 387.519,41.245 278.500 C -22.736 149.757,86.556 2.089,228.771 25.130 M210.000 106.530 C 195.548 110.482,184.675 118.810,179.070 130.220 C 176.018 136.434,172.485 150.216,173.361 152.497 C 173.710 153.407,197.389 156.282,204.737 156.306 C 205.157 156.307,205.836 153.974,206.247 151.121 C 210.179 123.797,247.500 124.991,247.500 152.441 C 247.500 166.517,245.620 169.248,214.600 200.239 C 181.009 233.799,172.821 246.015,169.680 267.250 L 169.126 271.000 225.063 271.000 L 281.000 271.000 281.000 256.500 L 281.000 242.000 249.432 242.000 L 217.864 242.000 220.092 238.750 C 221.317 236.963,227.760 230.337,234.410 224.026 C 262.748 197.131,268.786 190.092,275.108 176.584 C 288.405 148.169,277.572 117.519,250.866 107.991 C 242.516 105.012,218.668 104.159,210.000 106.530 M99.000 211.500 L 99.000 228.000 130.500 228.000 L 162.000 228.000 162.000 211.500 L 162.000 195.000 130.500 195.000 L 99.000 195.000 99.000 211.500 "
              stroke="none" fill="#000000" fill-rule="evenodd"></path>
    </g>
</svg>