<svg id="svg" xmlns="http://www.w3.org/2000/svg" xmlns:xlink="http://www.w3.org/1999/xlink" width="400" height="400"
     viewBox="0, 0, 400,400">
    <g id="svgg">
        <path id="path0"
              d="M170.737 3.629 C 11.924 26.606,-54.398 222.311,57.470 337.860 C 171.880 456.036,373.765 390.692,396.436 228.148 C 414.790 96.555,302.249 -15.397,170.737 3.629 M228.771 25.130 C 370.766 48.136,426.920 223.106,325.013 325.013 C 238.977 411.049,95.425 387.519,41.245 278.500 C -22.736 149.757,86.556 2.089,228.771 25.130 M235.000 106.530 C 220.548 110.482,209.675 118.810,204.070 130.220 C 201.018 136.434,197.485 150.216,198.361 152.497 C 198.710 153.407,222.389 156.282,229.737 156.306 C 230.157 156.307,230.836 153.974,231.247 151.121 C 235.179 123.797,272.500 124.991,272.500 152.441 C 272.500 166.517,270.620 169.248,239.600 200.239 C 206.009 233.799,197.821 246.015,194.680 267.250 L 194.126 271.000 250.063 271.000 L 306.000 271.000 306.000 256.500 L 306.000 242.000 274.432 242.000 L 242.864 242.000 245.092 238.750 C 246.317 236.963,252.760 230.337,259.410 224.026 C 287.748 197.131,293.786 190.092,300.108 176.584 C 313.405 148.169,302.572 117.519,275.866 107.991 C 267.516 105.012,243.668 104.159,235.000 106.530 M107.000 154.500 L 107.000 176.000 85.500 176.000 L 64.000 176.000 64.000 190.500 L 64.000 205.000 85.500 205.000 L 107.000 205.000 107.000 226.500 L 107.000 248.000 122.000 248.000 L 137.000 248.000 137.000 226.500 L 137.000 205.000 158.500 205.000 L 180.000 205.000 180.000 190.500 L 180.000 176.000 158.500 176.000 L 137.000 176.000 137.000 154.500 L 137.000 133.000 122.000 133.000 L 107.000 133.000 107.000 154.500 "
              stroke="none" fill="#000000" fill-rule="evenodd"></path>
    </g>
</svg>