<svg id="svg" version="1.1" xmlns="http://www.w3.org/2000/svg" xmlns:xlink="http://www.w3.org/1999/xlink" width="400"
     height="397.36299958796866" viewBox="0, 0, 400,397.36299958796866">
    <g id="svgg">
        <path id="path0"
              d="M196.548 0.333 C 194.886 0.769,193.591 1.314,192.415 2.074 C 191.403 2.728,6.674 187.187,4.414 189.801 C 0.060 194.836,0.060 202.497,4.414 207.532 C 7.964 211.639,191.792 394.958,193.079 395.676 C 198.161 398.509,204.617 397.927,208.866 394.253 C 211.950 391.585,395.975 207.245,396.713 206.083 C 399.960 200.972,399.512 194.342,395.613 189.832 C 393.337 187.200,208.606 2.733,207.585 2.074 C 204.630 0.165,199.984 -0.567,196.548 0.333 M202.190 7.258 C 202.582 7.397,203.243 7.730,203.660 7.999 C 205.486 9.180,390.746 194.837,391.258 196.000 C 391.985 197.650,391.961 199.780,391.198 201.417 C 390.422 203.078,204.586 389.017,202.966 389.752 C 200.904 390.689,199.004 390.683,197.011 389.734 C 195.556 389.042,9.551 203.035,8.917 201.639 C 8.002 199.623,8.008 197.621,8.935 195.672 C 9.600 194.275,195.610 8.266,197.008 7.601 C 198.675 6.807,200.559 6.683,202.190 7.258 M187.429 76.235 C 176.516 83.178,170.326 94.319,170.338 107.000 C 170.343 112.724,171.463 116.729,175.535 125.583 C 180.329 136.009,180.521 139.822,176.474 144.238 C 171.413 149.762,164.409 148.017,159.126 139.917 C 157.425 137.310,156.314 136.006,154.417 134.397 C 148.534 129.404,140.578 128.125,134.691 131.226 L 133.965 131.608 135.524 132.950 C 149.643 145.099,152.228 163.250,142.333 180.750 C 141.659 181.942,140.621 183.779,140.025 184.833 C 126.011 209.649,126.918 232.922,142.284 242.777 C 143.424 243.509,143.337 243.557,144.073 241.792 C 147.487 233.614,152.789 225.135,165.405 207.681 C 170.157 201.106,170.786 200.202,172.956 196.833 C 180.237 185.529,186.301 173.453,191.197 160.511 C 192.558 156.915,193.060 155.883,194.004 154.750 C 198.210 149.701,205.675 149.494,210.193 154.302 C 211.546 155.742,211.882 156.384,213.399 160.432 C 219.691 177.218,227.235 191.099,238.663 206.915 C 246.911 218.332,251.545 225.121,254.665 230.363 L 256.413 233.301 256.839 233.081 C 263.313 229.733,265.758 220.047,263.296 207.500 C 262.069 201.246,262.977 195.030,266.845 183.216 C 272.567 165.737,270.172 152.185,259.848 143.635 C 258.031 142.131,258.204 142.066,257.759 144.417 C 255.913 154.168,247.091 159.530,239.305 155.632 C 233.445 152.699,232.583 145.790,236.328 131.750 C 239.562 119.623,238.073 111.275,231.413 104.195 C 229.716 102.391,224.140 98.038,224.169 98.541 C 224.171 98.564,224.280 98.883,224.412 99.250 C 226.306 104.507,218.192 111.400,209.667 111.775 C 206.893 111.897,205.689 111.637,203.083 110.355 C 190.625 104.225,185.209 91.689,188.827 77.359 C 189.105 76.256,189.333 75.311,189.333 75.260 C 189.333 75.062,189.028 75.218,187.429 76.235 M201.487 160.331 C 201.169 160.517,201.009 160.883,199.484 164.917 C 193.382 181.064,184.922 196.623,174.246 211.333 C 156.566 235.694,151.711 244.464,149.332 256.333 C 142.940 288.233,164.239 318.208,195.934 321.916 C 229.374 325.827,258.157 298.761,256.343 265.111 C 255.505 249.554,251.121 240.114,233.188 215.250 C 226.011 205.299,223.757 201.966,220.170 196.000 C 214.533 186.622,207.764 172.418,204.166 162.417 C 203.406 160.305,202.602 159.678,201.487 160.331 "
              stroke="none" fill="#fbfbfb" fill-rule="evenodd"></path>
        <path id="path1"
              d="M198.674 7.006 C 196.576 7.444,203.023 1.101,102.729 101.395 C 21.469 182.655,9.317 194.870,8.935 195.672 C 8.008 197.621,8.002 199.623,8.917 201.639 C 9.551 203.035,195.556 389.042,197.011 389.734 C 199.004 390.683,200.904 390.689,202.966 389.752 C 204.586 389.017,390.422 203.078,391.198 201.417 C 391.961 199.780,391.985 197.650,391.258 196.000 C 390.746 194.837,205.486 9.180,203.660 7.999 C 202.213 7.064,200.260 6.675,198.674 7.006 M189.333 75.260 C 189.333 75.311,189.105 76.256,188.827 77.359 C 185.209 91.689,190.625 104.225,203.083 110.355 C 205.689 111.637,206.893 111.897,209.667 111.775 C 218.192 111.400,226.306 104.507,224.412 99.250 C 224.280 98.883,224.171 98.564,224.169 98.541 C 224.140 98.038,229.716 102.391,231.413 104.195 C 238.073 111.275,239.562 119.623,236.328 131.750 C 232.583 145.790,233.445 152.699,239.305 155.632 C 247.091 159.530,255.913 154.168,257.759 144.417 C 258.204 142.066,258.031 142.131,259.848 143.635 C 270.172 152.185,272.567 165.737,266.845 183.216 C 262.977 195.030,262.069 201.246,263.296 207.500 C 265.758 220.047,263.313 229.733,256.839 233.081 L 256.413 233.301 254.665 230.363 C 251.545 225.121,246.911 218.332,238.663 206.915 C 227.235 191.099,219.691 177.218,213.399 160.432 C 211.882 156.384,211.546 155.742,210.193 154.302 C 205.675 149.494,198.210 149.701,194.004 154.750 C 193.060 155.883,192.558 156.915,191.197 160.511 C 186.301 173.453,180.237 185.529,172.956 196.833 C 170.786 200.202,170.157 201.106,165.405 207.681 C 152.789 225.135,147.487 233.614,144.073 241.792 C 143.337 243.557,143.424 243.509,142.284 242.777 C 126.918 232.922,126.011 209.649,140.025 184.833 C 140.621 183.779,141.659 181.942,142.333 180.750 C 152.228 163.250,149.643 145.099,135.524 132.950 L 133.965 131.608 134.691 131.226 C 140.578 128.125,148.534 129.404,154.417 134.397 C 156.314 136.006,157.425 137.310,159.126 139.917 C 164.409 148.017,171.413 149.762,176.474 144.238 C 180.521 139.822,180.329 136.009,175.535 125.583 C 171.463 116.729,170.343 112.724,170.338 107.000 C 170.326 94.319,176.516 83.178,187.429 76.235 C 189.028 75.218,189.333 75.062,189.333 75.260 M203.284 160.542 C 203.472 160.748,203.869 161.592,204.166 162.417 C 207.764 172.418,214.533 186.622,220.170 196.000 C 223.757 201.966,226.011 205.299,233.188 215.250 C 251.121 240.114,255.505 249.554,256.343 265.111 C 258.157 298.761,229.374 325.827,195.934 321.916 C 164.239 318.208,142.940 288.233,149.332 256.333 C 151.711 244.464,156.566 235.694,174.246 211.333 C 184.922 196.623,193.382 181.064,199.484 164.917 C 201.348 159.985,201.230 160.181,202.346 160.172 C 202.756 160.168,203.049 160.284,203.284 160.542 "
              stroke="none" fill="#e46424" fill-rule="evenodd"></path>
    </g>
</svg>