<svg id="svg" version="1.1" xmlns="http://www.w3.org/2000/svg" xmlns:xlink="http://www.w3.org/1999/xlink" width="400"
     height="400" viewBox="0, 0, 400,400">
    <g id="svgg">
        <path id="path0"
              d="M190.484 0.109 C 109.862 4.584,41.687 53.989,12.954 128.761 C 1.014 159.832,-2.857 195.088,1.970 228.804 C 14.478 316.182,83.818 385.522,171.196 398.030 C 189.766 400.689,210.234 400.689,228.804 398.030 C 316.182 385.522,385.522 316.182,398.030 228.804 C 400.689 210.234,400.689 189.766,398.030 171.196 C 386.318 89.383,324.613 22.763,243.841 4.725 C 234.246 2.583,225.540 1.300,214.574 0.413 C 211.349 0.153,193.713 -0.070,190.484 0.109 M212.345 11.818 C 224.643 12.761,234.811 14.333,245.201 16.898 C 322.915 36.081,380.347 102.711,387.730 182.255 C 388.325 188.669,388.427 191.254,388.427 200.000 C 388.427 208.746,388.325 211.331,387.730 217.745 C 379.390 307.601,307.601 379.390,217.745 387.730 C 211.331 388.325,208.746 388.427,200.000 388.427 C 191.254 388.427,188.669 388.325,182.255 387.730 C 92.392 379.389,20.611 307.608,12.270 217.745 C 11.675 211.331,11.573 208.746,11.573 200.000 C 11.573 189.567,11.835 185.032,12.957 176.082 C 24.144 86.812,98.314 17.217,187.998 11.837 C 189.696 11.735,191.509 11.624,192.027 11.591 C 193.999 11.463,210.052 11.643,212.345 11.818 M198.428 44.038 C 195.110 45.185,195.019 45.559,194.762 59.151 C 194.653 64.951,194.514 70.476,194.453 71.430 L 194.342 73.165 181.140 67.353 C 173.879 64.157,167.475 61.382,166.910 61.186 C 162.340 59.603,158.473 64.943,161.330 68.887 C 162.084 69.928,162.190 69.979,178.932 77.335 L 194.291 84.083 194.189 86.405 C 194.133 87.682,194.005 93.202,193.905 98.671 C 193.805 104.141,193.708 108.827,193.690 109.085 C 193.656 109.551,193.517 109.489,173.996 100.390 C 163.183 95.349,153.978 91.135,153.541 91.025 C 149.114 89.910,145.739 95.279,148.551 98.962 C 149.334 99.988,148.474 99.565,172.739 110.853 C 184.055 116.117,193.341 120.444,193.374 120.467 C 193.491 120.550,192.529 161.591,192.407 161.712 C 192.340 161.779,187.407 164.650,181.446 168.091 L 170.608 174.349 152.899 164.657 C 143.160 159.327,135.034 154.865,134.842 154.742 C 134.493 154.520,134.497 154.464,136.595 130.624 C 138.892 104.513,138.833 105.739,137.849 104.186 C 135.784 100.930,130.878 101.207,129.181 104.675 C 128.740 105.577,128.688 106.073,126.818 127.390 C 125.175 146.120,124.870 149.173,124.648 149.115 C 124.446 149.062,102.744 137.237,102.572 137.086 C 102.549 137.066,103.376 129.349,104.411 119.937 C 106.419 101.670,106.389 102.150,105.626 100.671 C 104.121 97.757,99.979 97.157,97.684 99.521 C 96.400 100.843,96.492 100.313,94.693 116.733 C 93.787 124.999,93.032 131.781,93.015 131.805 C 92.998 131.829,88.323 129.292,82.626 126.167 C 76.929 123.043,71.805 120.265,71.239 119.995 C 67.185 118.057,62.952 121.888,64.384 126.200 C 64.909 127.781,65.489 128.193,76.794 135.017 C 82.572 138.505,87.324 141.399,87.355 141.448 C 87.385 141.497,81.898 145.583,75.161 150.528 C 62.048 160.151,62.152 160.064,61.717 161.876 C 60.953 165.062,63.232 167.934,66.524 167.934 C 68.491 167.934,67.468 168.601,83.084 157.140 L 96.752 147.109 97.556 147.579 C 101.806 150.068,118.455 160.251,118.426 160.344 C 118.405 160.411,110.441 166.029,100.729 172.829 C 81.709 186.145,82.307 185.703,81.649 186.970 C 79.587 190.942,83.921 195.610,87.983 193.790 C 88.423 193.593,97.566 187.278,108.301 179.758 C 119.035 172.238,127.895 166.087,127.990 166.091 C 128.084 166.094,136.012 170.858,145.608 176.677 L 163.054 187.257 163.010 199.947 L 162.966 212.638 145.406 223.328 C 135.748 229.207,127.777 233.975,127.693 233.923 C 127.609 233.871,118.739 227.663,107.981 220.127 C 86.884 205.347,87.547 205.768,85.633 205.965 C 81.829 206.358,79.844 210.809,82.094 213.899 C 82.449 214.386,87.535 218.041,100.444 227.083 C 110.266 233.963,118.303 239.645,118.303 239.709 C 118.303 239.895,96.984 252.809,96.700 252.795 C 96.558 252.788,90.315 248.284,82.827 242.786 C 68.559 232.310,68.267 232.117,66.713 232.102 C 62.291 232.060,59.918 237.243,62.899 240.433 C 63.148 240.699,68.774 244.896,75.401 249.758 C 82.028 254.621,87.429 258.615,87.403 258.635 C 87.377 258.654,82.610 261.555,76.811 265.081 C 71.012 268.606,65.982 271.748,65.633 272.062 C 62.677 274.727,64.145 279.701,68.133 280.538 C 69.884 280.905,70.011 280.847,81.832 274.342 C 93.244 268.062,93.099 268.136,93.099 268.633 C 93.099 270.626,96.382 298.410,96.707 299.164 C 98.316 302.905,103.800 303.032,105.693 299.372 C 106.385 298.033,106.402 298.286,104.408 280.143 C 103.369 270.694,102.540 262.946,102.567 262.927 C 102.928 262.667,124.666 250.805,124.763 250.815 C 124.838 250.823,125.761 260.668,126.815 272.693 C 128.582 292.856,128.761 294.619,129.119 295.358 C 131.149 299.552,137.265 298.985,138.435 294.494 C 138.656 293.645,135.459 253.948,134.530 246.012 L 134.457 245.388 152.420 235.509 L 170.382 225.630 181.248 231.902 C 187.224 235.352,192.190 238.249,192.284 238.341 C 192.484 238.536,193.442 279.313,193.251 279.510 C 193.182 279.580,183.616 284.072,171.992 289.492 C 148.120 300.623,149.318 300.033,148.538 301.055 C 146.146 304.187,148.155 308.751,152.068 309.076 C 153.482 309.193,153.027 309.390,173.985 299.617 C 184.666 294.637,193.456 290.613,193.518 290.675 C 193.609 290.766,194.264 315.810,194.179 315.939 C 194.166 315.959,187.242 319.013,178.793 322.727 C 162.158 330.039,162.082 330.075,161.326 331.119 C 158.473 335.058,162.345 340.394,166.910 338.815 C 167.475 338.619,173.879 335.842,181.140 332.643 C 188.401 329.444,194.362 326.845,194.385 326.866 C 194.409 326.887,194.542 331.990,194.680 338.206 C 195.009 352.987,194.971 352.298,195.527 353.436 C 197.593 357.657,203.983 356.861,204.869 352.272 C 204.963 351.788,205.128 346.494,205.238 340.506 C 205.347 334.518,205.486 328.991,205.547 328.225 L 205.658 326.831 218.860 332.645 C 226.121 335.843,232.525 338.619,233.090 338.815 C 237.655 340.394,241.527 335.058,238.674 331.119 C 237.918 330.075,237.842 330.039,221.207 322.727 C 212.758 319.013,205.824 315.954,205.798 315.928 C 205.751 315.881,206.223 292.820,206.302 291.257 L 206.344 290.444 226.001 299.609 C 236.813 304.649,246.018 308.864,246.456 308.974 C 250.886 310.090,254.262 304.722,251.449 301.038 C 250.666 300.012,251.526 300.435,227.261 289.147 C 215.945 283.883,206.654 279.551,206.613 279.520 C 206.524 279.453,207.251 242.555,207.389 240.120 L 207.486 238.405 215.653 233.691 C 220.145 231.097,225.075 228.254,226.610 227.372 L 229.401 225.768 247.456 235.651 L 265.511 245.533 265.455 246.084 C 264.602 254.597,261.338 293.759,261.444 294.216 C 262.451 298.568,268.151 299.671,270.524 295.973 C 271.292 294.776,271.229 295.334,273.234 272.182 C 274.247 260.489,275.092 250.897,275.112 250.866 C 275.151 250.810,297.116 262.794,297.340 262.994 C 297.409 263.056,296.619 270.805,295.584 280.215 C 293.598 298.282,293.615 298.033,294.307 299.372 C 295.794 302.247,299.666 302.970,302.057 300.820 C 303.600 299.433,303.479 300.087,305.312 283.341 C 306.211 275.129,306.971 268.382,307.001 268.347 C 307.030 268.313,312.016 271.001,318.079 274.322 C 329.988 280.844,330.121 280.904,331.867 280.538 C 335.855 279.701,337.322 274.727,334.367 272.062 C 334.018 271.748,329.027 268.645,323.275 265.166 C 317.523 261.687,312.755 258.788,312.680 258.723 C 312.605 258.658,317.890 254.686,324.425 249.897 C 330.959 245.108,336.563 240.949,336.878 240.655 C 340.171 237.579,337.853 232.059,333.287 232.102 C 331.734 232.117,331.451 232.304,317.062 242.862 C 309.510 248.403,303.281 252.936,303.219 252.935 C 303.067 252.933,282.020 240.210,281.725 239.943 C 281.540 239.774,284.961 237.306,299.455 227.154 C 312.431 218.064,317.550 214.386,317.906 213.899 C 320.157 210.810,318.171 206.358,314.367 205.965 C 312.453 205.768,313.120 205.345,291.966 220.165 C 281.179 227.721,272.263 233.939,272.152 233.982 C 272.042 234.025,264.076 229.290,254.450 223.459 L 236.949 212.859 236.949 200.057 L 236.948 187.256 254.393 176.676 C 263.988 170.857,271.916 166.093,272.010 166.090 C 272.105 166.087,280.963 172.237,291.695 179.756 C 302.428 187.276,311.571 193.590,312.013 193.788 C 316.078 195.609,320.415 190.945,318.351 186.970 C 317.694 185.704,318.300 186.153,299.271 172.830 C 289.559 166.030,281.595 160.411,281.574 160.344 C 281.545 160.251,298.185 150.073,302.444 147.579 L 303.248 147.109 316.947 157.165 C 324.482 162.696,331.061 167.412,331.566 167.644 C 335.140 169.286,339.220 165.783,338.283 161.876 C 337.847 160.062,337.953 160.150,324.837 150.527 C 318.100 145.584,312.614 141.499,312.645 141.448 C 312.676 141.398,317.429 138.503,323.208 135.016 C 334.514 128.192,335.090 127.783,335.616 126.200 C 337.048 121.888,332.812 118.054,328.761 119.996 C 328.195 120.267,323.072 123.046,317.375 126.170 C 311.679 129.294,307.004 131.830,306.986 131.806 C 306.968 131.782,306.213 124.999,305.307 116.733 C 303.505 100.283,303.590 100.772,302.302 99.484 C 299.980 97.162,295.868 97.778,294.374 100.671 C 293.611 102.150,293.581 101.670,295.589 119.937 C 296.624 129.349,297.451 137.067,297.428 137.088 C 297.275 137.230,275.560 149.061,275.353 149.115 C 275.130 149.173,274.826 146.132,273.182 127.390 C 271.312 106.073,271.260 105.577,270.819 104.675 C 269.122 101.207,264.216 100.930,262.151 104.186 C 261.166 105.739,261.108 104.512,263.404 130.615 C 264.824 146.757,265.448 154.546,265.329 154.641 C 265.232 154.718,257.108 159.186,247.277 164.568 L 229.402 174.355 218.559 168.094 C 212.595 164.651,207.665 161.780,207.603 161.714 C 207.495 161.599,206.532 120.525,206.636 120.457 C 206.664 120.439,215.945 116.117,227.261 110.853 C 251.526 99.565,250.666 99.988,251.449 98.962 C 254.261 95.279,250.886 89.910,246.459 91.025 C 246.021 91.135,236.971 95.283,226.346 100.241 C 215.722 105.200,206.871 109.293,206.676 109.336 C 206.324 109.414,206.322 109.383,206.116 98.471 C 206.002 92.452,205.864 86.752,205.808 85.805 L 205.708 84.083 221.067 77.335 C 237.810 69.979,237.916 69.928,238.670 68.887 C 241.527 64.943,237.660 59.604,233.090 61.185 C 232.525 61.381,226.121 64.157,218.860 67.355 L 205.658 73.168 205.549 71.346 C 205.489 70.344,205.349 64.818,205.239 59.066 C 205.128 53.313,204.962 48.212,204.869 47.728 C 204.312 44.839,201.227 43.071,198.428 44.038 M213.711 176.862 L 227.004 184.536 227.004 200.005 C 227.004 212.173,226.958 215.512,226.790 215.650 C 226.527 215.865,200.109 231.119,200.000 231.119 C 199.891 231.119,173.473 215.865,173.210 215.650 C 173.042 215.512,172.996 212.173,172.996 200.005 L 172.996 184.535 186.412 176.788 C 194.302 172.232,199.950 169.072,200.123 169.115 C 200.286 169.156,206.400 172.642,213.711 176.862 "
              stroke="none" fill="#fbfbfc" fill-rule="evenodd"></path>
        <path id="path1"
              d="M192.027 11.591 C 191.509 11.624,189.696 11.735,187.998 11.837 C 98.314 17.217,24.144 86.812,12.957 176.082 C 11.835 185.032,11.573 189.567,11.573 200.000 C 11.573 208.746,11.675 211.331,12.270 217.745 C 20.611 307.608,92.392 379.389,182.255 387.730 C 188.669 388.325,191.254 388.427,200.000 388.427 C 208.746 388.427,211.331 388.325,217.745 387.730 C 307.601 379.390,379.390 307.601,387.730 217.745 C 388.325 211.331,388.427 208.746,388.427 200.000 C 388.427 136.092,356.970 77.667,303.600 42.447 C 276.307 24.437,246.516 14.437,212.345 11.818 C 210.052 11.643,193.999 11.463,192.027 11.591 M201.398 43.976 C 204.843 44.999,204.979 45.533,205.239 59.066 C 205.349 64.818,205.489 70.344,205.549 71.346 L 205.658 73.168 218.860 67.355 C 226.121 64.157,232.525 61.381,233.090 61.185 C 237.660 59.604,241.527 64.943,238.670 68.887 C 237.916 69.928,237.810 69.979,221.067 77.335 L 205.708 84.083 205.808 85.805 C 205.864 86.752,206.002 92.452,206.116 98.471 C 206.322 109.383,206.324 109.414,206.676 109.336 C 206.871 109.293,215.722 105.200,226.346 100.241 C 236.971 95.283,246.021 91.135,246.459 91.025 C 250.886 89.910,254.261 95.279,251.449 98.962 C 250.666 99.988,251.526 99.565,227.261 110.853 C 215.945 116.117,206.664 120.439,206.636 120.457 C 206.532 120.525,207.495 161.599,207.603 161.714 C 207.665 161.780,212.595 164.651,218.559 168.094 L 229.402 174.355 247.277 164.568 C 257.108 159.186,265.232 154.718,265.329 154.641 C 265.448 154.546,264.824 146.757,263.404 130.615 C 261.108 104.512,261.166 105.739,262.151 104.186 C 264.216 100.930,269.122 101.207,270.819 104.675 C 271.260 105.577,271.312 106.073,273.182 127.390 C 274.826 146.132,275.130 149.173,275.353 149.115 C 275.560 149.061,297.275 137.230,297.428 137.088 C 297.451 137.067,296.624 129.349,295.589 119.937 C 293.581 101.670,293.611 102.150,294.374 100.671 C 295.868 97.778,299.980 97.162,302.302 99.484 C 303.590 100.772,303.505 100.283,305.307 116.733 C 306.213 124.999,306.968 131.782,306.986 131.806 C 307.004 131.830,311.679 129.294,317.375 126.170 C 323.072 123.046,328.195 120.267,328.761 119.996 C 332.812 118.054,337.048 121.888,335.616 126.200 C 335.090 127.783,334.514 128.192,323.208 135.016 C 317.429 138.503,312.676 141.398,312.645 141.448 C 312.614 141.499,318.100 145.584,324.837 150.527 C 337.953 160.150,337.847 160.062,338.283 161.876 C 339.220 165.783,335.140 169.286,331.566 167.644 C 331.061 167.412,324.482 162.696,316.947 157.165 L 303.248 147.109 302.444 147.579 C 298.185 150.073,281.545 160.251,281.574 160.344 C 281.595 160.411,289.559 166.030,299.271 172.830 C 318.300 186.153,317.694 185.704,318.351 186.970 C 320.415 190.945,316.078 195.609,312.013 193.788 C 311.571 193.590,302.428 187.276,291.695 179.756 C 280.963 172.237,272.105 166.087,272.010 166.090 C 271.916 166.093,263.988 170.857,254.393 176.676 L 236.948 187.256 236.949 200.057 L 236.949 212.859 254.450 223.459 C 264.076 229.290,272.042 234.025,272.152 233.982 C 272.263 233.939,281.179 227.721,291.966 220.165 C 313.120 205.345,312.453 205.768,314.367 205.965 C 318.171 206.358,320.157 210.810,317.906 213.899 C 317.550 214.386,312.431 218.064,299.455 227.154 C 284.961 237.306,281.540 239.774,281.725 239.943 C 282.020 240.210,303.067 252.933,303.219 252.935 C 303.281 252.936,309.510 248.403,317.062 242.862 C 331.451 232.304,331.734 232.117,333.287 232.102 C 337.853 232.059,340.171 237.579,336.878 240.655 C 336.563 240.949,330.959 245.108,324.425 249.897 C 317.890 254.686,312.605 258.658,312.680 258.723 C 312.755 258.788,317.523 261.687,323.275 265.166 C 329.027 268.645,334.018 271.748,334.367 272.062 C 337.322 274.727,335.855 279.701,331.867 280.538 C 330.121 280.904,329.988 280.844,318.079 274.322 C 312.016 271.001,307.030 268.313,307.001 268.347 C 306.971 268.382,306.211 275.129,305.312 283.341 C 303.479 300.087,303.600 299.433,302.057 300.820 C 299.666 302.970,295.794 302.247,294.307 299.372 C 293.615 298.033,293.598 298.282,295.584 280.215 C 296.619 270.805,297.409 263.056,297.340 262.994 C 297.116 262.794,275.151 250.810,275.112 250.866 C 275.092 250.897,274.247 260.489,273.234 272.182 C 271.229 295.334,271.292 294.776,270.524 295.973 C 268.151 299.671,262.451 298.568,261.444 294.216 C 261.338 293.759,264.602 254.597,265.455 246.084 L 265.511 245.533 247.456 235.651 L 229.401 225.768 226.610 227.372 C 225.075 228.254,220.145 231.097,215.653 233.691 L 207.486 238.405 207.389 240.120 C 207.251 242.555,206.524 279.453,206.613 279.520 C 206.654 279.551,215.945 283.883,227.261 289.147 C 251.526 300.435,250.666 300.012,251.449 301.038 C 254.262 304.722,250.886 310.090,246.456 308.974 C 246.018 308.864,236.813 304.649,226.001 299.609 L 206.344 290.444 206.302 291.257 C 206.223 292.820,205.751 315.881,205.798 315.928 C 205.824 315.954,212.758 319.013,221.207 322.727 C 237.842 330.039,237.918 330.075,238.674 331.119 C 241.527 335.058,237.655 340.394,233.090 338.815 C 232.525 338.619,226.121 335.843,218.860 332.645 L 205.658 326.831 205.547 328.225 C 205.486 328.991,205.347 334.518,205.238 340.506 C 205.128 346.494,204.963 351.788,204.869 352.272 C 203.983 356.861,197.593 357.657,195.527 353.436 C 194.971 352.298,195.009 352.987,194.680 338.206 C 194.542 331.990,194.409 326.887,194.385 326.866 C 194.362 326.845,188.401 329.444,181.140 332.643 C 173.879 335.842,167.475 338.619,166.910 338.815 C 162.345 340.394,158.473 335.058,161.326 331.119 C 162.082 330.075,162.158 330.039,178.793 322.727 C 187.242 319.013,194.166 315.959,194.179 315.939 C 194.264 315.810,193.609 290.766,193.518 290.675 C 193.456 290.613,184.666 294.637,173.985 299.617 C 153.027 309.390,153.482 309.193,152.068 309.076 C 148.155 308.751,146.146 304.187,148.538 301.055 C 149.318 300.033,148.120 300.623,171.992 289.492 C 183.616 284.072,193.182 279.580,193.251 279.510 C 193.442 279.313,192.484 238.536,192.284 238.341 C 192.190 238.249,187.224 235.352,181.248 231.902 L 170.382 225.630 152.420 235.509 L 134.457 245.388 134.530 246.012 C 135.459 253.948,138.656 293.645,138.435 294.494 C 137.265 298.985,131.149 299.552,129.119 295.358 C 128.761 294.619,128.582 292.856,126.815 272.693 C 125.761 260.668,124.838 250.823,124.763 250.815 C 124.666 250.805,102.928 262.667,102.567 262.927 C 102.540 262.946,103.369 270.694,104.408 280.143 C 106.402 298.286,106.385 298.033,105.693 299.372 C 103.800 303.032,98.316 302.905,96.707 299.164 C 96.382 298.410,93.099 270.626,93.099 268.633 C 93.099 268.136,93.244 268.062,81.832 274.342 C 70.011 280.847,69.884 280.905,68.133 280.538 C 64.145 279.701,62.677 274.727,65.633 272.062 C 65.982 271.748,71.012 268.606,76.811 265.081 C 82.610 261.555,87.377 258.654,87.403 258.635 C 87.429 258.615,82.028 254.621,75.401 249.758 C 68.774 244.896,63.148 240.699,62.899 240.433 C 59.918 237.243,62.291 232.060,66.713 232.102 C 68.267 232.117,68.559 232.310,82.827 242.786 C 90.315 248.284,96.558 252.788,96.700 252.795 C 96.984 252.809,118.303 239.895,118.303 239.709 C 118.303 239.645,110.266 233.963,100.444 227.083 C 87.535 218.041,82.449 214.386,82.094 213.899 C 79.844 210.809,81.829 206.358,85.633 205.965 C 87.547 205.768,86.884 205.347,107.981 220.127 C 118.739 227.663,127.609 233.871,127.693 233.923 C 127.777 233.975,135.748 229.207,145.406 223.328 L 162.966 212.638 163.010 199.947 L 163.054 187.257 145.608 176.677 C 136.012 170.858,128.084 166.094,127.990 166.091 C 127.895 166.087,119.035 172.238,108.301 179.758 C 97.566 187.278,88.423 193.593,87.983 193.790 C 83.921 195.610,79.587 190.942,81.649 186.970 C 82.307 185.703,81.709 186.145,100.729 172.829 C 110.441 166.029,118.405 160.411,118.426 160.344 C 118.455 160.251,101.806 150.068,97.556 147.579 L 96.752 147.109 83.084 157.140 C 67.468 168.601,68.491 167.934,66.524 167.934 C 63.232 167.934,60.953 165.062,61.717 161.876 C 62.152 160.064,62.048 160.151,75.161 150.528 C 81.898 145.583,87.385 141.497,87.355 141.448 C 87.324 141.399,82.572 138.505,76.794 135.017 C 65.489 128.193,64.909 127.781,64.384 126.200 C 62.952 121.888,67.185 118.057,71.239 119.995 C 71.805 120.265,76.929 123.043,82.626 126.167 C 88.323 129.292,92.998 131.829,93.015 131.805 C 93.032 131.781,93.787 124.999,94.693 116.733 C 96.492 100.313,96.400 100.843,97.684 99.521 C 99.979 97.157,104.121 97.757,105.626 100.671 C 106.389 102.150,106.419 101.670,104.411 119.937 C 103.376 129.349,102.549 137.066,102.572 137.086 C 102.744 137.237,124.446 149.062,124.648 149.115 C 124.870 149.173,125.175 146.120,126.818 127.390 C 128.688 106.073,128.740 105.577,129.181 104.675 C 130.878 101.207,135.784 100.930,137.849 104.186 C 138.833 105.739,138.892 104.513,136.595 130.624 C 134.497 154.464,134.493 154.520,134.842 154.742 C 135.034 154.865,143.160 159.327,152.899 164.657 L 170.608 174.349 181.446 168.091 C 187.407 164.650,192.340 161.779,192.407 161.712 C 192.529 161.591,193.491 120.550,193.374 120.467 C 193.341 120.444,184.055 116.117,172.739 110.853 C 148.474 99.565,149.334 99.988,148.551 98.962 C 145.739 95.279,149.114 89.910,153.541 91.025 C 153.978 91.135,163.183 95.349,173.996 100.390 C 193.517 109.489,193.656 109.551,193.690 109.085 C 193.708 108.827,193.805 104.141,193.905 98.671 C 194.005 93.202,194.133 87.682,194.189 86.405 L 194.291 84.083 178.932 77.335 C 162.190 69.979,162.084 69.928,161.330 68.887 C 158.473 64.943,162.340 59.603,166.910 61.186 C 167.475 61.382,173.879 64.157,181.140 67.353 L 194.342 73.165 194.453 71.430 C 194.514 70.476,194.653 64.951,194.762 59.151 C 194.872 53.352,195.038 48.212,195.131 47.728 C 195.675 44.910,198.615 43.150,201.398 43.976 M186.412 176.788 L 172.996 184.535 172.996 200.005 C 172.996 212.173,173.042 215.512,173.210 215.650 C 173.473 215.865,199.891 231.119,200.000 231.119 C 200.109 231.119,226.527 215.865,226.790 215.650 C 226.958 215.512,227.004 212.173,227.004 200.005 L 227.004 184.536 213.711 176.862 C 206.400 172.642,200.286 169.156,200.123 169.115 C 199.950 169.072,194.302 172.232,186.412 176.788 "
              stroke="none" fill="#24c4ec" fill-rule="evenodd"></path>
    </g>
</svg>