<svg id="svg" version="1.1" xmlns="http://www.w3.org/2000/svg" xmlns:xlink="http://www.w3.org/1999/xlink" width="400"
     height="397.36299958796866" viewBox="0, 0, 400,397.36299958796866">
    <g id="svgg">
        <path id="path0"
              d="M196.548 0.333 C 194.886 0.769,193.591 1.314,192.415 2.074 C 191.403 2.728,6.674 187.187,4.414 189.801 C 0.060 194.836,0.060 202.497,4.414 207.532 C 7.964 211.639,191.792 394.958,193.079 395.676 C 198.161 398.509,204.616 397.927,208.866 394.253 C 211.936 391.598,395.974 207.246,396.715 206.083 C 399.957 200.995,399.505 194.335,395.613 189.832 C 393.337 187.200,208.606 2.733,207.585 2.074 C 204.630 0.165,199.984 -0.567,196.548 0.333 M202.190 7.258 C 202.582 7.397,203.243 7.730,203.660 7.999 C 205.488 9.181,390.746 194.837,391.257 196.000 C 391.988 197.662,391.966 199.790,391.202 201.417 C 390.419 203.082,204.580 389.020,202.966 389.752 C 200.904 390.689,199.004 390.683,197.011 389.734 C 195.556 389.042,9.551 203.035,8.917 201.639 C 8.002 199.623,8.008 197.621,8.935 195.672 C 9.600 194.275,195.610 8.266,197.008 7.601 C 198.675 6.807,200.559 6.683,202.190 7.258 M190.853 80.865 C 190.772 81.077,189.880 83.200,188.870 85.583 C 187.860 87.967,186.456 91.304,185.749 93.000 C 184.502 95.992,182.256 101.311,176.037 116.000 C 174.388 119.896,171.859 125.896,170.417 129.333 C 168.975 132.771,166.985 137.496,165.995 139.833 L 164.193 144.083 162.305 144.137 C 161.266 144.167,147.308 144.025,131.286 143.823 C 115.264 143.621,102.113 143.499,102.060 143.551 C 101.963 143.649,106.497 149.378,126.803 174.814 L 138.030 188.879 137.640 189.255 C 137.426 189.462,130.050 195.541,121.250 202.765 C 112.450 209.989,101.688 218.830,97.333 222.413 C 92.979 225.996,87.819 230.236,85.867 231.836 C 83.914 233.436,82.377 234.763,82.450 234.785 C 82.523 234.808,91.321 236.216,102.000 237.915 C 112.679 239.613,123.067 241.267,125.083 241.589 C 127.100 241.912,134.398 243.066,141.302 244.154 C 148.206 245.242,153.877 246.159,153.905 246.191 C 153.932 246.223,154.118 251.838,154.317 258.667 C 154.517 265.496,154.861 277.308,155.083 284.917 C 155.304 292.525,155.535 300.385,155.596 302.382 C 155.659 304.450,155.772 305.993,155.858 305.964 C 156.024 305.909,158.132 304.179,166.571 297.175 C 169.603 294.659,175.308 289.930,179.250 286.667 C 183.192 283.404,189.105 278.507,192.391 275.784 C 195.802 272.956,198.444 270.882,198.550 270.948 C 198.698 271.039,222.829 292.732,230.814 299.951 C 231.857 300.895,232.776 301.667,232.856 301.667 C 232.935 301.667,232.998 300.223,232.996 298.458 C 232.989 292.228,233.385 249.416,233.451 249.338 C 233.488 249.295,235.445 249.536,237.800 249.873 C 240.156 250.210,252.768 252.023,265.828 253.901 C 278.888 255.779,289.597 257.292,289.626 257.263 C 289.700 257.189,289.029 255.684,283.087 242.583 C 280.218 236.258,276.992 229.133,275.919 226.750 C 274.846 224.367,272.437 219.041,270.567 214.916 C 268.697 210.790,267.167 207.337,267.167 207.242 C 267.167 207.147,278.569 201.378,292.505 194.422 C 306.441 187.467,317.785 181.724,317.713 181.660 C 317.580 181.540,306.449 176.721,285.083 167.534 C 278.483 164.696,270.929 161.446,268.296 160.312 C 265.662 159.178,263.506 158.183,263.504 158.101 C 263.500 157.939,268.749 147.439,278.788 127.531 C 282.316 120.536,285.165 114.776,285.121 114.732 C 285.077 114.688,282.162 115.447,278.645 116.420 C 272.608 118.090,258.831 121.884,238.667 127.431 C 233.762 128.780,229.603 129.891,229.423 129.900 C 229.085 129.917,228.057 128.597,206.338 100.250 C 189.443 78.200,191.085 80.256,190.853 80.865 M204.511 130.083 C 207.913 134.942,213.183 142.470,216.222 146.812 C 219.261 151.155,221.839 154.743,221.951 154.786 C 222.063 154.829,228.233 152.429,235.661 149.452 C 243.089 146.475,249.167 144.107,249.167 144.191 C 249.167 144.343,248.440 146.040,241.983 160.967 C 240.067 165.395,238.500 169.093,238.500 169.185 C 238.500 169.277,239.231 169.690,240.125 170.102 C 254.537 176.746,269.803 183.915,269.743 184.011 C 269.701 184.079,268.298 185.056,266.625 186.182 C 264.952 187.308,261.033 189.963,257.917 192.082 C 254.800 194.201,250.094 197.389,247.458 199.165 C 244.823 200.942,242.667 202.464,242.667 202.548 C 242.667 202.695,248.270 214.259,254.173 226.292 C 255.758 229.523,257.023 232.199,256.984 232.238 C 256.945 232.277,249.739 232.371,240.970 232.446 C 232.202 232.522,224.984 232.627,224.931 232.680 C 224.846 232.765,219.230 259.136,218.287 263.875 C 217.860 266.021,218.114 265.992,215.996 264.139 C 215.036 263.298,212.600 261.181,210.583 259.434 C 208.567 257.687,204.261 253.939,201.016 251.105 C 195.534 246.317,195.091 245.967,194.766 246.168 C 194.574 246.287,191.754 248.577,188.500 251.258 C 178.897 259.168,173.592 263.481,173.537 263.426 C 173.481 263.370,172.852 257.431,171.005 239.500 C 169.659 226.435,169.873 227.741,169.055 227.596 C 167.503 227.322,136.473 221.445,135.023 221.150 L 134.129 220.968 136.612 218.443 C 137.978 217.053,143.930 211.016,149.839 205.026 C 155.748 199.037,160.607 194.032,160.637 193.905 C 160.693 193.661,157.575 187.475,147.767 168.367 C 144.596 162.189,144.657 162.332,145.208 162.335 C 145.667 162.337,175.575 160.148,175.603 160.110 C 175.668 160.021,183.839 145.865,188.751 137.333 C 191.943 131.787,195.344 125.880,196.309 124.205 C 197.273 122.530,198.121 121.180,198.193 121.205 C 198.265 121.230,201.108 125.225,204.511 130.083 M199.707 156.367 C 199.526 156.669,196.772 161.430,193.588 166.947 L 187.799 176.976 187.191 177.064 C 186.857 177.112,183.133 177.391,178.917 177.685 C 174.700 177.979,171.187 178.275,171.110 178.341 C 171.033 178.408,171.604 179.690,172.380 181.190 C 173.746 183.833,176.795 189.791,178.743 193.626 L 179.696 195.501 172.432 202.862 C 168.436 206.911,165.194 210.249,165.226 210.281 C 165.279 210.334,168.244 210.904,180.223 213.161 C 182.591 213.608,184.551 213.998,184.579 214.028 C 184.607 214.058,185.052 218.246,185.568 223.333 C 186.084 228.421,186.562 232.785,186.628 233.032 C 186.747 233.469,186.890 233.365,192.553 228.730 C 195.744 226.117,198.411 224.003,198.478 224.032 C 198.545 224.060,201.320 226.446,204.645 229.333 C 207.970 232.221,210.748 234.604,210.818 234.630 C 210.942 234.675,211.316 232.985,213.597 222.068 L 214.714 216.718 218.467 216.609 C 220.532 216.549,224.493 216.500,227.271 216.500 L 232.321 216.500 231.433 214.625 C 230.944 213.594,229.185 209.966,227.522 206.564 C 225.860 203.161,224.503 200.311,224.506 200.230 C 224.510 200.149,227.843 197.833,231.914 195.083 C 235.984 192.333,239.263 190.035,239.199 189.977 C 239.135 189.918,235.296 188.126,230.667 185.994 C 226.037 183.861,222.221 182.093,222.185 182.063 C 222.149 182.033,223.447 178.960,225.068 175.235 C 226.690 171.510,227.980 168.425,227.935 168.380 C 227.891 168.335,224.534 169.616,220.477 171.227 C 216.420 172.838,213.087 174.140,213.071 174.120 C 213.055 174.100,210.176 169.996,206.674 165.000 C 199.634 154.957,200.161 155.611,199.707 156.367 "
              stroke="none" fill="#fbfbfb" fill-rule="evenodd"></path>
        <path id="path1"
              d="M198.674 7.006 C 196.576 7.444,203.023 1.101,102.729 101.395 C 21.469 182.655,9.317 194.870,8.935 195.672 C 8.008 197.621,8.002 199.623,8.917 201.639 C 9.551 203.035,195.556 389.042,197.011 389.734 C 199.004 390.683,200.904 390.689,202.966 389.752 C 204.580 389.020,390.419 203.082,391.202 201.417 C 391.966 199.790,391.988 197.662,391.257 196.000 C 390.746 194.837,205.488 9.181,203.660 7.999 C 202.213 7.064,200.260 6.675,198.674 7.006 M194.292 84.545 C 195.930 86.675,201.351 93.742,206.338 100.250 C 228.057 128.597,229.085 129.917,229.423 129.900 C 229.603 129.891,233.762 128.780,238.667 127.431 C 258.831 121.884,272.608 118.090,278.645 116.420 C 282.162 115.447,285.077 114.688,285.121 114.732 C 285.165 114.776,282.316 120.536,278.788 127.531 C 268.749 147.439,263.500 157.939,263.504 158.101 C 263.506 158.183,265.662 159.178,268.296 160.312 C 270.929 161.446,278.483 164.696,285.083 167.534 C 306.449 176.721,317.580 181.540,317.713 181.660 C 317.785 181.724,306.441 187.467,292.505 194.422 C 278.569 201.378,267.167 207.147,267.167 207.242 C 267.167 207.337,268.697 210.790,270.567 214.916 C 272.437 219.041,274.846 224.367,275.919 226.750 C 276.992 229.133,280.218 236.258,283.087 242.583 C 289.029 255.684,289.700 257.189,289.626 257.263 C 289.597 257.292,278.888 255.779,265.828 253.901 C 252.768 252.023,240.156 250.210,237.800 249.873 C 235.445 249.536,233.488 249.295,233.451 249.338 C 233.385 249.416,232.989 292.228,232.996 298.458 C 232.998 300.223,232.935 301.667,232.856 301.667 C 232.776 301.667,231.857 300.895,230.814 299.951 C 222.829 292.732,198.698 271.039,198.550 270.948 C 198.444 270.882,195.802 272.956,192.391 275.784 C 189.105 278.507,183.192 283.404,179.250 286.667 C 175.308 289.930,169.603 294.659,166.571 297.175 C 158.132 304.179,156.024 305.909,155.858 305.964 C 155.772 305.993,155.659 304.450,155.596 302.382 C 155.535 300.385,155.304 292.525,155.083 284.917 C 154.861 277.308,154.517 265.496,154.317 258.667 C 154.118 251.838,153.932 246.223,153.905 246.191 C 153.877 246.159,148.206 245.242,141.302 244.154 C 134.398 243.066,127.100 241.912,125.083 241.589 C 123.067 241.267,112.679 239.613,102.000 237.915 C 91.321 236.216,82.523 234.808,82.450 234.785 C 82.377 234.763,83.914 233.436,85.867 231.836 C 87.819 230.236,92.979 225.996,97.333 222.413 C 101.688 218.830,112.450 209.989,121.250 202.765 C 130.050 195.541,137.426 189.462,137.640 189.255 L 138.030 188.879 126.803 174.814 C 106.497 149.378,101.963 143.649,102.060 143.551 C 102.113 143.499,115.264 143.621,131.286 143.823 C 147.308 144.025,161.266 144.167,162.305 144.137 L 164.193 144.083 165.995 139.833 C 166.985 137.496,168.975 132.771,170.417 129.333 C 171.859 125.896,174.388 119.896,176.037 116.000 C 182.256 101.311,184.502 95.992,185.749 93.000 C 186.456 91.304,187.860 87.967,188.870 85.583 C 189.880 83.200,190.772 81.077,190.853 80.865 C 191.058 80.326,190.988 80.251,194.292 84.545 M196.309 124.205 C 195.344 125.880,191.943 131.787,188.751 137.333 C 183.839 145.865,175.668 160.021,175.603 160.110 C 175.575 160.148,145.667 162.337,145.208 162.335 C 144.657 162.332,144.596 162.189,147.767 168.367 C 157.575 187.475,160.693 193.661,160.637 193.905 C 160.607 194.032,155.748 199.037,149.839 205.026 C 143.930 211.016,137.978 217.053,136.612 218.443 L 134.129 220.968 135.023 221.150 C 136.473 221.445,167.503 227.322,169.055 227.596 C 169.873 227.741,169.659 226.435,171.005 239.500 C 172.852 257.431,173.481 263.370,173.537 263.426 C 173.592 263.481,178.897 259.168,188.500 251.258 C 191.754 248.577,194.574 246.287,194.766 246.168 C 195.091 245.967,195.534 246.317,201.016 251.105 C 204.261 253.939,208.567 257.687,210.583 259.434 C 212.600 261.181,215.036 263.298,215.996 264.139 C 218.114 265.992,217.860 266.021,218.287 263.875 C 219.230 259.136,224.846 232.765,224.931 232.680 C 224.984 232.627,232.202 232.522,240.970 232.446 C 249.739 232.371,256.945 232.277,256.984 232.238 C 257.023 232.199,255.758 229.523,254.173 226.292 C 248.270 214.259,242.667 202.695,242.667 202.548 C 242.667 202.464,244.823 200.942,247.458 199.165 C 250.094 197.389,254.800 194.201,257.917 192.082 C 261.033 189.963,264.952 187.308,266.625 186.182 C 268.298 185.056,269.701 184.079,269.743 184.011 C 269.803 183.915,254.537 176.746,240.125 170.102 C 239.231 169.690,238.500 169.277,238.500 169.185 C 238.500 169.093,240.067 165.395,241.983 160.967 C 248.440 146.040,249.167 144.343,249.167 144.191 C 249.167 144.107,243.089 146.475,235.661 149.452 C 228.233 152.429,222.063 154.829,221.951 154.786 C 221.839 154.743,219.261 151.155,216.222 146.812 C 201.213 125.363,198.314 121.247,198.193 121.205 C 198.121 121.180,197.273 122.530,196.309 124.205 M206.674 165.000 C 210.176 169.996,213.055 174.100,213.071 174.120 C 213.087 174.140,216.420 172.838,220.477 171.227 C 224.534 169.616,227.891 168.335,227.935 168.380 C 227.980 168.425,226.690 171.510,225.068 175.235 C 223.447 178.960,222.149 182.033,222.185 182.063 C 222.221 182.093,226.037 183.861,230.667 185.994 C 235.296 188.126,239.135 189.918,239.199 189.977 C 239.263 190.035,235.984 192.333,231.914 195.083 C 227.843 197.833,224.510 200.149,224.506 200.230 C 224.503 200.311,225.860 203.161,227.522 206.564 C 229.185 209.966,230.944 213.594,231.433 214.625 L 232.321 216.500 227.271 216.500 C 224.493 216.500,220.532 216.549,218.467 216.609 L 214.714 216.718 213.597 222.068 C 211.316 232.985,210.942 234.675,210.818 234.630 C 210.748 234.604,207.970 232.221,204.645 229.333 C 201.320 226.446,198.545 224.060,198.478 224.032 C 198.411 224.003,195.744 226.117,192.553 228.730 C 186.890 233.365,186.747 233.469,186.628 233.032 C 186.562 232.785,186.084 228.421,185.568 223.333 C 185.052 218.246,184.607 214.058,184.579 214.028 C 184.551 213.998,182.591 213.608,180.223 213.161 C 168.244 210.904,165.279 210.334,165.226 210.281 C 165.194 210.249,168.436 206.911,172.432 202.862 L 179.696 195.501 178.743 193.626 C 176.795 189.791,173.746 183.833,172.380 181.190 C 171.604 179.690,171.033 178.408,171.110 178.341 C 171.187 178.275,174.700 177.979,178.917 177.685 C 183.133 177.391,186.857 177.112,187.191 177.064 L 187.799 176.976 193.588 166.947 C 200.483 155.001,200.005 155.806,200.172 155.867 C 200.246 155.894,203.172 160.004,206.674 165.000 "
              stroke="none" fill="#2c446c" fill-rule="evenodd"></path>
    </g>
</svg>