<svg id="svg" version="1.1" xmlns="http://www.w3.org/2000/svg" xmlns:xlink="http://www.w3.org/1999/xlink" width="400"
     height="400" viewBox="0, 0, 400,400">
    <g id="svgg">
        <path id="path0"
              d="M190.484 0.109 C 122.384 3.889,62.965 39.471,28.217 97.281 C 4.761 136.303,-4.575 183.086,1.970 228.804 C 14.478 316.183,83.817 385.522,171.196 398.030 C 189.766 400.689,210.234 400.689,228.804 398.030 C 316.182 385.522,385.522 316.182,398.030 228.804 C 400.689 210.234,400.689 189.766,398.030 171.196 C 387.407 96.990,335.444 34.550,264.258 10.453 C 248.041 4.964,232.823 1.889,214.574 0.413 C 211.349 0.153,193.713 -0.070,190.484 0.109 M212.345 11.818 C 224.643 12.761,234.811 14.333,245.201 16.898 C 322.916 36.081,380.347 102.710,387.730 182.255 C 388.325 188.669,388.427 191.254,388.427 200.000 C 388.427 208.746,388.325 211.331,387.730 217.745 C 379.390 307.601,307.601 379.390,217.745 387.730 C 211.331 388.325,208.746 388.427,200.000 388.427 C 191.254 388.427,188.669 388.325,182.255 387.730 C 92.395 379.390,20.610 307.605,12.270 217.745 C 11.675 211.331,11.573 208.746,11.573 200.000 C 11.573 189.567,11.835 185.032,12.957 176.082 C 24.144 86.812,98.314 17.217,187.998 11.837 C 189.696 11.735,191.509 11.624,192.027 11.591 C 193.999 11.463,210.052 11.643,212.345 11.818 M193.828 99.219 C 181.575 100.324,172.282 104.306,164.953 111.591 C 158.540 117.966,155.044 123.658,149.616 136.562 C 142.710 152.982,136.909 162.345,128.455 170.716 C 116.487 182.567,96.374 188.945,70.957 188.947 C 64.858 188.947,64.899 188.941,65.011 189.917 C 65.346 192.840,91.317 194.459,108.358 192.618 C 123.733 190.958,136.013 184.193,145.378 172.225 C 149.464 167.003,152.125 162.713,157.823 152.165 C 169.875 129.852,177.971 120.612,188.761 116.857 C 202.806 111.968,222.431 120.416,228.775 134.082 C 238.711 155.487,217.718 184.667,195.425 180.438 C 182.313 177.951,176.307 164.891,183.894 155.367 C 189.238 148.661,196.677 148.994,201.423 156.153 L 202.057 157.110 202.111 155.666 C 202.768 137.887,178.569 138.078,169.837 155.921 C 165.839 164.090,166.432 175.085,171.250 182.148 C 179.287 193.930,200.408 196.564,219.081 188.113 C 242.335 177.588,254.424 145.526,243.425 123.548 C 235.596 107.904,214.155 97.386,193.828 99.219 M306.387 157.163 C 296.556 158.090,290.852 159.734,282.040 164.178 C 268.839 170.836,259.892 176.987,242.778 191.171 C 221.959 208.425,211.173 214.601,193.354 219.472 C 172.165 225.265,140.386 223.292,108.646 214.214 C 105.811 213.403,105.444 213.397,105.444 214.164 C 105.444 215.168,117.363 220.842,125.675 223.794 C 134.565 226.952,156.534 232.965,163.367 234.110 C 192.152 238.935,227.870 228.920,256.696 207.942 C 262.809 203.493,267.277 199.939,281.339 188.341 C 295.156 176.946,299.298 174.615,307.862 173.415 C 325.669 170.921,343.479 185.521,339.687 199.505 C 336.114 212.687,320.154 219.252,309.730 211.829 C 303.799 207.605,300.608 198.477,302.180 190.227 C 302.462 188.748,302.516 188.791,301.102 189.346 C 291.647 193.055,287.855 206.785,293.816 215.724 C 301.648 227.468,321.316 232.528,336.354 226.667 C 359.014 217.836,365.594 194.547,350.911 175.147 C 341.803 163.114,323.153 155.580,306.387 157.163 M47.235 217.160 C 46.858 217.197,45.550 217.313,44.329 217.418 C 41.732 217.641,41.368 217.750,41.217 218.355 C 41.008 219.188,41.417 219.353,46.292 220.395 C 62.806 223.923,71.872 226.856,86.069 233.261 C 96.959 238.173,102.091 241.119,118.731 252.011 C 133.872 261.921,135.490 262.973,139.991 265.836 C 175.350 288.329,198.044 297.880,222.297 300.476 C 249.759 303.415,276.140 292.765,285.162 275.096 C 292.910 259.921,290.394 244.469,278.738 235.650 C 264.525 224.898,249.709 226.309,239.101 239.424 C 234.185 245.502,234.259 255.194,239.261 260.411 L 240.495 261.699 240.597 259.396 C 241.206 245.602,255.065 236.919,266.571 243.123 C 276.574 248.518,279.095 260.484,272.070 269.231 C 263.244 280.220,237.437 286.126,216.560 281.934 C 197.272 278.061,177.435 269.440,131.590 245.008 C 98.960 227.618,91.067 224.055,77.241 220.482 C 67.536 217.973,54.114 216.487,47.235 217.160 "
              stroke="none" fill="#fbfbfb" fill-rule="evenodd"></path>
        <path id="path1"
              d="M192.027 11.591 C 191.509 11.624,189.696 11.735,187.998 11.837 C 98.314 17.217,24.144 86.812,12.957 176.082 C 11.835 185.032,11.573 189.567,11.573 200.000 C 11.573 208.746,11.675 211.331,12.270 217.745 C 20.610 307.605,92.395 379.390,182.255 387.730 C 188.669 388.325,191.254 388.427,200.000 388.427 C 208.746 388.427,211.331 388.325,217.745 387.730 C 307.601 379.390,379.390 307.601,387.730 217.745 C 388.325 211.331,388.427 208.746,388.427 200.000 C 388.427 136.091,356.971 77.667,303.600 42.447 C 276.307 24.437,246.516 14.437,212.345 11.818 C 210.052 11.643,193.999 11.463,192.027 11.591 M204.286 99.358 C 221.587 101.193,237.007 110.724,243.425 123.548 C 254.424 145.526,242.335 177.588,219.081 188.113 C 198.886 197.253,176.770 193.468,169.828 179.683 C 162.757 165.639,170.296 147.023,184.655 143.074 C 194.677 140.317,202.470 145.939,202.111 155.666 L 202.057 157.110 201.423 156.153 C 196.677 148.994,189.238 148.661,183.894 155.367 C 176.307 164.891,182.313 177.951,195.425 180.438 C 216.254 184.389,236.988 158.372,229.980 137.077 C 224.933 121.742,204.094 111.519,188.761 116.857 C 177.971 120.612,169.875 129.852,157.823 152.165 C 144.215 177.359,134.369 186.685,116.659 191.152 C 101.213 195.048,61.550 193.538,65.158 189.191 C 65.325 188.990,66.329 188.947,70.957 188.947 C 96.374 188.945,116.487 182.567,128.455 170.716 C 136.909 162.345,142.710 152.982,149.616 136.562 C 155.044 123.658,158.540 117.966,164.953 111.591 C 172.282 104.306,181.575 100.324,193.828 99.219 C 195.776 99.044,202.114 99.128,204.286 99.358 M315.388 157.230 C 339.533 159.284,357.777 175.532,358.793 195.885 C 359.547 211.010,347.200 225.010,329.994 228.539 C 316.657 231.275,300.329 225.491,293.816 215.724 C 287.855 206.785,291.647 193.055,301.102 189.346 C 302.516 188.791,302.462 188.748,302.180 190.227 C 300.608 198.477,303.799 207.605,309.730 211.829 C 320.154 219.252,336.114 212.687,339.687 199.505 C 343.479 185.521,325.669 170.921,307.862 173.415 C 299.298 174.615,295.156 176.946,281.339 188.341 C 264.119 202.544,258.115 207.202,250.366 212.369 C 234.377 223.030,212.080 231.579,193.228 234.276 C 178.073 236.445,167.557 235.666,150.622 231.120 C 128.045 225.060,120.696 222.505,110.081 217.027 C 106.014 214.928,105.444 214.576,105.444 214.164 C 105.444 213.397,105.811 213.403,108.646 214.214 C 140.386 223.292,172.165 225.265,193.354 219.472 C 211.173 214.601,221.959 208.425,242.778 191.171 C 269.752 168.815,287.436 159.047,303.901 157.407 C 304.938 157.304,306.057 157.194,306.387 157.163 C 307.822 157.027,313.505 157.069,315.388 157.230 M60.414 217.474 C 70.080 218.455,79.771 220.725,89.156 224.205 C 98.279 227.588,106.086 231.415,131.590 245.008 C 177.435 269.440,197.272 278.061,216.560 281.934 C 237.437 286.126,263.244 280.220,272.070 269.231 C 279.095 260.484,276.574 248.518,266.571 243.123 C 255.065 236.919,241.206 245.602,240.597 259.396 L 240.495 261.699 239.261 260.411 C 234.259 255.194,234.185 245.502,239.101 239.424 C 249.709 226.309,264.525 224.898,278.738 235.650 C 290.394 244.469,292.910 259.921,285.162 275.096 C 276.140 292.765,249.759 303.415,222.297 300.476 C 198.044 297.880,175.350 288.329,139.991 265.836 C 135.490 262.973,133.872 261.921,118.731 252.011 C 102.091 241.119,96.959 238.173,86.069 233.261 C 71.872 226.856,62.806 223.923,46.292 220.395 C 41.417 219.353,41.008 219.188,41.217 218.355 C 41.368 217.750,41.732 217.641,44.329 217.418 C 45.550 217.313,46.858 217.197,47.235 217.160 C 48.759 217.011,58.031 217.232,60.414 217.474 "
              stroke="none" fill="#9cb4bc" fill-rule="evenodd"></path>
    </g>
</svg>