<svg id="svg" version="1.1" xmlns="http://www.w3.org/2000/svg" xmlns:xlink="http://www.w3.org/1999/xlink" width="400"
     height="397.36299958796866" viewBox="0, 0, 400,397.36299958796866">
    <g id="svgg">
        <path id="path0"
              d="M196.548 0.333 C 194.886 0.769,193.591 1.314,192.415 2.074 C 191.403 2.728,6.674 187.187,4.414 189.801 C 0.060 194.836,0.060 202.497,4.414 207.532 C 7.964 211.639,191.792 394.958,193.079 395.676 C 198.161 398.509,204.616 397.927,208.866 394.253 C 211.936 391.598,395.974 207.246,396.715 206.083 C 399.957 200.995,399.505 194.335,395.613 189.832 C 393.337 187.200,208.606 2.733,207.585 2.074 C 204.630 0.165,199.984 -0.567,196.548 0.333 M202.190 7.258 C 202.582 7.397,203.243 7.730,203.660 7.999 C 205.476 9.174,390.745 194.836,391.262 196.000 C 391.996 197.650,391.972 199.778,391.202 201.417 C 390.419 203.082,204.580 389.020,202.966 389.752 C 200.904 390.689,199.004 390.683,197.011 389.734 C 195.700 389.110,9.615 203.091,8.940 201.730 C 7.985 199.805,7.982 197.674,8.933 195.677 C 9.600 194.275,195.605 8.268,197.008 7.601 C 198.675 6.807,200.559 6.683,202.190 7.258 M250.651 132.382 C 250.129 132.654,249.808 132.978,249.542 133.501 L 249.167 134.237 249.167 151.701 L 249.167 169.164 209.542 169.207 L 169.917 169.250 169.286 169.642 C 167.918 170.493,167.540 172.352,168.445 173.780 C 168.725 174.222,169.454 175.371,170.066 176.333 C 179.334 190.913,179.011 207.492,169.169 222.425 C 167.417 225.083,167.538 226.843,169.536 227.811 L 170.272 228.167 209.719 228.167 L 249.167 228.167 249.170 245.625 C 249.174 265.196,249.104 264.060,250.365 264.829 C 252.086 265.879,251.897 265.983,263.417 257.728 C 268.917 253.788,278.479 246.936,284.667 242.502 C 290.854 238.069,300.229 231.356,305.500 227.584 C 313.445 221.900,325.990 212.916,340.119 202.792 C 343.116 200.644,343.417 200.266,343.417 198.646 C 343.417 196.726,345.472 198.376,323.333 182.525 C 316.871 177.897,303.708 168.473,294.083 161.582 C 284.458 154.691,271.371 145.318,265.000 140.753 C 251.525 131.099,252.276 131.537,250.651 132.382 M58.614 169.329 C 56.184 170.094,55.922 172.126,57.876 175.060 C 68.008 190.277,68.007 207.018,57.873 222.273 C 55.910 225.229,56.181 227.275,58.633 228.010 C 60.023 228.426,68.412 228.137,69.830 227.625 C 76.849 225.085,82.755 213.264,83.422 200.417 C 84.111 187.167,77.555 172.457,69.744 169.724 C 68.343 169.234,59.872 168.933,58.614 169.329 M103.132 169.331 C 100.680 170.070,100.420 172.112,102.399 175.083 C 112.505 190.258,112.500 207.157,102.385 222.282 C 100.490 225.115,100.602 226.881,102.737 227.851 C 103.816 228.341,138.455 228.335,140.372 227.845 C 146.914 226.172,153.246 215.652,154.581 204.240 C 156.421 188.513,149.274 171.347,140.083 169.417 C 138.777 169.143,104.025 169.062,103.132 169.331 "
              stroke="none" fill="#fbfbfb" fill-rule="evenodd"></path>
        <path id="path1"
              d="M198.674 7.006 C 196.576 7.444,203.023 1.101,102.729 101.395 C 21.256 182.868,9.318 194.868,8.933 195.677 C 7.982 197.674,7.985 199.805,8.940 201.730 C 9.615 203.091,195.700 389.110,197.011 389.734 C 199.004 390.683,200.904 390.689,202.966 389.752 C 204.580 389.020,390.419 203.082,391.202 201.417 C 391.972 199.778,391.996 197.650,391.262 196.000 C 390.745 194.836,205.476 9.174,203.660 7.999 C 202.213 7.064,200.260 6.675,198.674 7.006 M252.880 132.227 C 253.175 132.352,258.629 136.189,265.000 140.753 C 271.371 145.318,284.458 154.691,294.083 161.582 C 346.771 199.305,342.447 196.179,342.978 196.926 C 343.346 197.442,343.417 197.721,343.417 198.646 C 343.417 200.266,343.116 200.644,340.119 202.792 C 325.990 212.916,313.445 221.900,305.500 227.584 C 300.229 231.356,290.854 238.069,284.667 242.502 C 249.613 267.620,252.698 265.502,251.498 265.276 C 250.574 265.101,249.844 264.559,249.494 263.788 C 249.185 263.108,249.174 262.480,249.170 245.625 L 249.167 228.167 209.719 228.167 L 170.272 228.167 169.536 227.811 C 167.538 226.843,167.417 225.083,169.169 222.425 C 179.011 207.492,179.334 190.913,170.066 176.333 C 169.454 175.371,168.725 174.222,168.445 173.780 C 167.540 172.352,167.918 170.493,169.286 169.642 L 169.917 169.250 209.542 169.207 L 249.167 169.164 249.167 151.701 L 249.167 134.237 249.542 133.501 C 250.171 132.266,251.644 131.704,252.880 132.227 M69.744 169.724 C 77.555 172.457,84.111 187.167,83.422 200.417 C 82.755 213.264,76.849 225.085,69.830 227.625 C 68.412 228.137,60.023 228.426,58.633 228.010 C 56.181 227.275,55.910 225.229,57.873 222.273 C 68.007 207.018,68.008 190.277,57.876 175.060 C 55.922 172.126,56.184 170.094,58.614 169.329 C 59.872 168.933,68.343 169.234,69.744 169.724 M140.083 169.417 C 146.663 170.799,153.227 181.519,154.581 193.093 C 156.401 208.652,149.509 225.508,140.372 227.845 C 138.455 228.335,103.816 228.341,102.737 227.851 C 100.602 226.881,100.490 225.115,102.385 222.282 C 112.500 207.157,112.505 190.258,102.399 175.083 C 100.420 172.112,100.680 170.070,103.132 169.331 C 104.025 169.062,138.777 169.143,140.083 169.417 "
              stroke="none" fill="#4c5454" fill-rule="evenodd"></path>
    </g>
</svg>