<svg id="svg" xmlns="http://www.w3.org/2000/svg" xmlns:xlink="http://www.w3.org/1999/xlink" width="400" height="400"
     viewBox="0, 0, 400,400">
    <g id="svgg">
        <path id="path0"
              d="M170.737 3.629 C 11.924 26.606,-54.398 222.311,57.470 337.860 C 171.880 456.036,373.765 390.692,396.436 228.148 C 414.790 96.555,302.249 -15.397,170.737 3.629 M228.771 25.130 C 370.766 48.136,426.920 223.106,325.013 325.013 C 238.977 411.049,95.425 387.519,41.245 278.500 C -22.736 149.757,86.556 2.089,228.771 25.130 M225.020 111.754 C 218.993 123.439,201.940 138.103,187.342 144.154 L 182.000 146.368 182.000 161.588 L 182.000 176.808 187.250 174.818 C 196.051 171.483,207.119 165.316,214.750 159.495 L 222.000 153.964 222.000 212.482 L 222.000 271.000 238.500 271.000 L 255.000 271.000 255.000 188.000 L 255.000 105.000 241.750 105.004 L 228.500 105.007 225.020 111.754 M99.000 211.500 L 99.000 228.000 130.500 228.000 L 162.000 228.000 162.000 211.500 L 162.000 195.000 130.500 195.000 L 99.000 195.000 99.000 211.500 "
              stroke="none" fill="#000000" fill-rule="evenodd"></path>
    </g>
</svg>