<svg id="svg" version="1.1" xmlns="http://www.w3.org/2000/svg" xmlns:xlink="http://www.w3.org/1999/xlink" width="400"
     height="397.36299958796866" viewBox="0, 0, 400,397.36299958796866">
    <g id="svgg">
        <path id="path0"
              d="M196.548 0.333 C 194.886 0.769,193.591 1.314,192.415 2.074 C 191.403 2.728,6.674 187.187,4.414 189.801 C 0.060 194.836,0.060 202.497,4.414 207.532 C 7.964 211.639,191.792 394.958,193.079 395.676 C 198.161 398.509,204.616 397.927,208.866 394.253 C 211.936 391.598,395.974 207.246,396.715 206.083 C 399.957 200.995,399.505 194.335,395.613 189.832 C 393.337 187.200,208.606 2.733,207.585 2.074 C 204.630 0.165,199.984 -0.567,196.548 0.333 M201.553 7.083 C 202.080 7.220,202.827 7.489,203.213 7.681 C 204.679 8.410,390.399 194.352,391.132 195.825 C 392.045 197.660,392.046 199.673,391.132 201.509 C 390.197 203.388,204.386 389.172,202.717 389.896 C 200.832 390.714,198.830 390.651,196.917 389.712 C 195.343 388.940,9.664 203.108,8.868 201.509 C 7.987 199.740,7.962 197.696,8.798 195.917 C 9.453 194.524,195.331 8.404,196.792 7.678 C 198.430 6.864,199.974 6.671,201.553 7.083 M225.516 83.848 C 222.820 90.852,218.726 101.533,216.416 107.583 C 209.131 126.669,205.590 135.833,205.500 135.833 C 205.452 135.833,204.722 134.465,203.879 132.792 C 200.933 126.949,195.043 115.376,192.407 110.250 L 189.750 105.083 189.708 121.542 C 189.677 133.183,189.612 138.000,189.485 138.000 C 189.386 138.000,185.483 136.604,180.811 134.897 C 176.139 133.191,172.290 131.822,172.257 131.855 C 172.224 131.889,173.921 134.842,176.029 138.417 C 178.136 141.992,181.857 148.321,184.298 152.482 C 189.609 161.536,189.558 161.485,191.910 160.067 C 207.490 150.673,224.258 156.508,235.296 175.167 C 236.291 176.850,236.750 177.314,237.545 177.443 C 238.487 177.596,237.129 178.593,256.269 163.693 L 259.620 161.083 250.644 161.040 C 245.108 161.014,241.667 160.936,241.667 160.839 C 241.667 160.681,244.052 156.492,249.830 146.500 C 260.669 127.758,259.920 129.130,258.823 130.009 C 258.416 130.335,254.633 133.257,250.417 136.503 C 246.200 139.748,240.050 144.487,236.750 147.033 C 233.450 149.579,230.694 151.663,230.625 151.664 C 230.557 151.666,230.482 133.542,230.459 111.390 L 230.417 71.113 225.516 83.848 M294.417 184.333 L 288.252 190.500 169.017 190.542 L 49.782 190.583 47.305 194.630 L 44.827 198.677 47.308 202.713 L 49.788 206.750 169.018 206.792 L 288.249 206.834 294.452 213.035 L 300.655 219.237 301.619 218.882 C 303.774 218.087,328.433 208.783,338.083 205.124 C 343.767 202.968,349.891 200.653,351.693 199.978 C 353.494 199.303,354.941 198.705,354.906 198.650 C 354.872 198.595,354.523 198.429,354.130 198.282 C 352.285 197.590,337.113 191.853,333.333 190.418 C 330.996 189.530,324.733 187.168,319.417 185.168 C 314.100 183.169,307.746 180.775,305.297 179.850 C 302.848 178.924,300.785 178.167,300.713 178.167 C 300.641 178.167,297.807 180.942,294.417 184.333 M237.048 221.579 C 236.458 221.836,236.196 222.184,234.482 224.987 C 223.988 242.154,207.055 247.886,192.577 239.173 C 190.317 237.812,189.363 237.876,188.378 239.451 C 188.103 239.891,185.700 243.963,183.037 248.500 C 180.374 253.037,176.846 259.037,175.197 261.833 C 173.548 264.629,172.258 266.939,172.330 266.966 C 172.402 266.993,176.262 265.624,180.907 263.924 C 185.553 262.224,189.424 260.833,189.509 260.833 C 189.605 260.833,189.682 267.226,189.708 277.292 L 189.750 293.750 192.451 288.500 C 193.937 285.612,197.462 278.695,200.285 273.128 C 203.107 267.561,205.454 263.005,205.500 263.004 C 205.546 263.003,207.976 269.245,210.900 276.876 C 223.853 310.676,230.350 327.572,230.422 327.644 C 230.465 327.687,230.500 309.597,230.500 287.444 C 230.500 265.292,230.556 247.167,230.625 247.168 C 230.694 247.169,231.350 247.642,232.083 248.219 C 232.817 248.796,238.629 253.282,245.000 258.187 C 251.371 263.092,257.254 267.623,258.074 268.256 C 258.893 268.889,259.514 269.276,259.452 269.117 C 259.334 268.809,255.842 262.718,251.501 255.250 C 246.339 246.370,241.667 238.177,241.667 238.007 C 241.667 237.889,244.526 237.833,250.593 237.833 C 255.621 237.833,259.480 237.770,259.430 237.688 C 259.381 237.608,257.520 236.129,255.295 234.402 C 253.070 232.674,248.550 229.160,245.250 226.592 C 238.104 221.032,238.188 221.084,237.048 221.579 "
              stroke="none" fill="#fbfbfb" fill-rule="evenodd"></path>
        <path id="path1"
              d="M198.375 7.091 C 197.894 7.220,197.181 7.485,196.792 7.678 C 195.331 8.404,9.453 194.524,8.798 195.917 C 7.962 197.696,7.987 199.740,8.868 201.509 C 9.664 203.108,195.343 388.940,196.917 389.712 C 198.830 390.651,200.832 390.714,202.717 389.896 C 204.386 389.172,390.197 203.388,391.132 201.509 C 392.046 199.673,392.045 197.660,391.132 195.825 C 390.399 194.352,204.679 8.410,203.213 7.681 C 201.583 6.871,199.938 6.670,198.375 7.091 M230.625 151.664 C 230.694 151.663,233.450 149.579,236.750 147.033 C 240.050 144.487,246.200 139.748,250.417 136.503 C 254.633 133.257,258.416 130.335,258.823 130.009 C 259.920 129.130,260.669 127.758,249.830 146.500 C 244.052 156.492,241.667 160.681,241.667 160.839 C 241.667 160.936,245.108 161.014,250.644 161.040 L 259.620 161.083 256.269 163.693 C 237.129 178.593,238.487 177.596,237.545 177.443 C 236.750 177.314,236.291 176.850,235.296 175.167 C 224.258 156.508,207.490 150.673,191.910 160.067 C 189.558 161.485,189.609 161.536,184.298 152.482 C 181.857 148.321,178.136 141.992,176.029 138.417 C 173.921 134.842,172.224 131.889,172.257 131.855 C 172.290 131.822,176.139 133.191,180.811 134.897 C 185.483 136.604,189.386 138.000,189.485 138.000 C 189.612 138.000,189.677 133.183,189.708 121.542 L 189.750 105.083 192.407 110.250 C 195.043 115.376,200.933 126.949,203.879 132.792 C 204.722 134.465,205.452 135.833,205.500 135.833 C 205.590 135.833,209.131 126.669,216.416 107.583 C 218.726 101.533,222.820 90.852,225.516 83.848 L 230.417 71.113 230.459 111.390 C 230.482 133.542,230.557 151.666,230.625 151.664 M305.297 179.850 C 307.746 180.775,314.100 183.169,319.417 185.168 C 324.733 187.168,330.996 189.530,333.333 190.418 C 337.113 191.853,352.285 197.590,354.130 198.282 C 354.523 198.429,354.872 198.595,354.906 198.650 C 354.941 198.705,353.494 199.303,351.693 199.978 C 349.891 200.653,343.767 202.968,338.083 205.124 C 328.433 208.783,303.774 218.087,301.619 218.882 L 300.655 219.237 294.452 213.035 L 288.249 206.834 169.018 206.792 L 49.788 206.750 47.308 202.713 L 44.827 198.677 47.305 194.630 L 49.782 190.583 169.017 190.542 L 288.252 190.500 294.417 184.333 C 297.807 180.942,300.641 178.167,300.713 178.167 C 300.785 178.167,302.848 178.924,305.297 179.850 M238.673 221.629 C 238.990 221.791,241.950 224.025,245.250 226.592 C 248.550 229.160,253.070 232.674,255.295 234.402 C 257.520 236.129,259.381 237.608,259.430 237.688 C 259.480 237.770,255.621 237.833,250.593 237.833 C 244.526 237.833,241.667 237.889,241.667 238.007 C 241.667 238.177,246.339 246.370,251.501 255.250 C 255.842 262.718,259.334 268.809,259.452 269.117 C 259.514 269.276,258.893 268.889,258.074 268.256 C 257.254 267.623,251.371 263.092,245.000 258.187 C 238.629 253.282,232.817 248.796,232.083 248.219 C 231.350 247.642,230.694 247.169,230.625 247.168 C 230.556 247.167,230.500 265.292,230.500 287.444 C 230.500 309.597,230.465 327.687,230.422 327.644 C 230.350 327.572,223.853 310.676,210.900 276.876 C 207.976 269.245,205.546 263.003,205.500 263.004 C 205.454 263.005,203.107 267.561,200.285 273.128 C 197.462 278.695,193.937 285.612,192.451 288.500 L 189.750 293.750 189.708 277.292 C 189.682 267.226,189.605 260.833,189.509 260.833 C 189.424 260.833,185.553 262.224,180.907 263.924 C 176.262 265.624,172.402 266.993,172.330 266.966 C 172.258 266.939,173.548 264.629,175.197 261.833 C 176.846 259.037,180.374 253.037,183.037 248.500 C 185.700 243.963,188.103 239.891,188.378 239.451 C 189.363 237.876,190.317 237.812,192.577 239.173 C 207.055 247.886,223.988 242.154,234.482 224.987 C 236.758 221.264,237.227 220.888,238.673 221.629 "
              stroke="none" fill="#d49c6c" fill-rule="evenodd"></path>
    </g>
</svg>